<?xml version="1.0" encoding="UTF-8"?>
<!DOCTYPE svg PUBLIC "-//W3C//DTD SVG 1.1//EN" "http://www.w3.org/Graphics/SVG/1.1/DTD/svg11.dtd">
<svg version="1.1" xmlns="http://www.w3.org/2000/svg" xmlns:xlink="http://www.w3.org/1999/xlink" x="0" y="0" width="64.8" height="92.51" viewBox="0, 0, 64.8, 92.51">
  <g id="Layer_1" transform="translate(-67.45, -46.893)">
    <g>
      <path d="M71.541,137.868 L71.541,135.515 C71.541,134.341 71.064,133.61 69.998,133.61 C69.563,133.61 69.213,133.775 69.023,133.976 L69.023,133.697 L67.925,133.697 L67.925,137.868 L69.023,137.868 L69.023,135.588 C69.023,134.864 69.284,134.643 69.737,134.643 C70.19,134.643 70.444,134.864 70.444,135.611 L70.444,137.868 z M75.681,137.868 L75.681,135.073 C75.681,134.134 74.996,133.61 73.988,133.61 C73.314,133.61 72.907,133.753 72.422,134.031 L72.844,134.793 C73.225,134.587 73.486,134.516 73.988,134.516 C74.385,134.516 74.584,134.754 74.584,135.049 L74.584,135.254 C74.408,135.167 74.162,135.087 73.781,135.087 C72.835,135.087 72.088,135.548 72.088,136.47 C72.088,137.478 72.868,137.957 73.647,137.957 C74.037,137.957 74.385,137.797 74.584,137.591 L74.584,137.868 z M74.584,136.646 C74.465,136.844 74.18,137.027 73.821,137.027 C73.352,137.027 73.185,136.764 73.185,136.47 C73.185,136.137 73.408,135.945 73.821,135.945 C74.209,135.945 74.394,136.003 74.584,136.12 z M78.913,136.59 C78.643,136.82 78.492,136.907 78.295,136.907 C78.034,136.907 77.891,136.804 77.891,136.407 L77.891,134.73 L78.891,134.73 L78.891,133.697 L77.891,133.697 L77.891,132.077 L76.794,132.624 L76.794,133.697 L76.092,133.697 L76.092,134.73 L76.794,134.73 L76.794,136.7 C76.794,137.431 77.231,137.957 77.905,137.957 C78.248,137.957 78.572,137.844 78.757,137.701 z M80.876,132.729 C80.876,132.387 80.591,132.1 80.249,132.1 C79.908,132.1 79.622,132.387 79.622,132.729 C79.622,133.07 79.908,133.356 80.249,133.356 C80.591,133.356 80.876,133.07 80.876,132.729 M80.796,133.697 L79.699,133.697 L79.699,137.87 L80.796,137.87 z M85.183,135.787 C85.183,134.507 84.38,133.61 83.292,133.61 C82.203,133.61 81.409,134.507 81.409,135.787 C81.409,137.067 82.203,137.957 83.292,137.957 C84.38,137.957 85.183,137.067 85.183,135.787 M84.07,135.787 C84.07,136.367 83.816,136.898 83.292,136.898 C82.768,136.898 82.522,136.431 82.522,135.787 C82.522,135.144 82.768,134.667 83.292,134.667 C83.816,134.667 84.07,135.151 84.07,135.787 M89.37,137.868 L89.37,135.515 C89.37,134.341 88.895,133.61 87.83,133.61 C87.393,133.61 87.041,133.775 86.852,133.976 L86.852,133.697 L85.754,133.697 L85.754,137.868 L86.852,137.868 L86.852,135.588 C86.852,134.864 87.113,134.643 87.567,134.643 C88.02,134.643 88.273,134.864 88.273,135.611 L88.273,137.868 z M93.51,137.868 L93.51,135.073 C93.51,134.134 92.827,133.61 91.819,133.61 C91.143,133.61 90.737,133.753 90.253,134.031 L90.673,134.793 C91.056,134.587 91.317,134.516 91.819,134.516 C92.216,134.516 92.413,134.754 92.413,135.049 L92.413,135.254 C92.24,135.167 91.993,135.087 91.611,135.087 C90.666,135.087 89.919,135.548 89.919,136.47 C89.919,137.478 90.697,137.957 91.476,137.957 C91.866,137.957 92.216,137.797 92.413,137.591 L92.413,137.868 z M92.413,136.646 C92.294,136.844 92.009,137.027 91.652,137.027 C91.181,137.027 91.016,136.764 91.016,136.47 C91.016,136.137 91.239,135.945 91.652,135.945 C92.042,135.945 92.223,136.003 92.413,136.12 z M95.392,137.868 L95.392,132.077 L94.297,132.624 L94.297,137.868 z M99.604,137.163 L99.604,133.697 L98.506,133.697 L98.506,133.936 C98.31,133.753 97.993,133.61 97.627,133.61 C96.594,133.61 96.006,134.484 96.006,135.731 C96.006,137.288 96.737,137.957 97.627,137.957 C98.024,137.957 98.301,137.79 98.506,137.607 C98.506,138.251 98.278,138.457 97.42,138.575 L97.808,139.403 C99.271,139.244 99.604,138.537 99.604,137.163 M98.506,136.574 C98.35,136.78 98.176,136.923 97.834,136.923 C97.404,136.923 97.118,136.565 97.118,135.709 C97.118,135.007 97.347,134.643 97.77,134.643 C98.087,134.643 98.341,134.77 98.506,135.002 z M103.982,137.868 L103.982,133.697 L102.887,133.697 L102.887,135.977 C102.887,136.7 102.624,136.923 102.171,136.923 C101.718,136.923 101.464,136.7 101.464,135.954 L101.464,133.697 L100.368,133.697 L100.368,136.05 C100.368,137.226 100.844,137.957 101.91,137.957 C102.345,137.957 102.697,137.79 102.887,137.591 L102.887,137.868 z M108.162,137.868 L108.162,135.073 C108.162,134.134 107.479,133.61 106.471,133.61 C105.795,133.61 105.389,133.753 104.903,134.031 L105.325,134.793 C105.706,134.587 105.969,134.516 106.471,134.516 C106.866,134.516 107.065,134.754 107.065,135.049 L107.065,135.254 C106.891,135.167 106.643,135.087 106.264,135.087 C105.318,135.087 104.571,135.548 104.571,136.47 C104.571,137.478 105.349,137.957 106.128,137.957 C106.518,137.957 106.866,137.797 107.065,137.591 L107.065,137.868 z M107.065,136.646 C106.946,136.844 106.661,137.027 106.304,137.027 C105.833,137.027 105.668,136.764 105.668,136.47 C105.668,136.137 105.891,135.945 106.304,135.945 C106.692,135.945 106.875,136.003 107.065,136.12 z M111.635,133.904 C111.49,133.753 111.22,133.61 110.863,133.61 C110.473,133.61 110.196,133.775 110.006,133.976 L110.006,133.697 L108.909,133.697 L108.909,137.868 L110.006,137.868 L110.006,135.611 C110.006,134.888 110.283,134.707 110.712,134.707 C110.959,134.707 111.173,134.817 111.347,134.977 z M115.299,137.868 L115.299,132.077 L114.202,132.624 L114.202,133.936 C114.003,133.753 113.685,133.61 113.319,133.61 C112.288,133.61 111.699,134.484 111.699,135.731 C111.699,137.288 112.431,137.957 113.319,137.957 C113.718,137.957 113.995,137.79 114.202,137.607 L114.202,137.868 z M114.202,136.574 C114.042,136.78 113.869,136.923 113.526,136.923 C113.096,136.923 112.81,136.565 112.81,135.709 C112.81,135.007 113.042,134.643 113.462,134.643 C113.78,134.643 114.035,134.77 114.202,135.002 z M117.396,137.21 C117.396,136.804 117.055,136.461 116.649,136.461 C116.243,136.461 115.903,136.804 115.903,137.21 C115.903,137.614 116.243,137.957 116.649,137.957 C117.055,137.957 117.396,137.614 117.396,137.21 M121.25,137.027 L120.552,136.367 C120.266,136.708 119.995,136.898 119.564,136.898 C119.04,136.898 118.699,136.454 118.699,135.787 C118.699,135.103 119.04,134.667 119.564,134.667 C120.01,134.667 120.271,134.913 120.519,135.263 L121.242,134.531 C120.893,133.998 120.385,133.61 119.59,133.61 C118.429,133.61 117.586,134.507 117.586,135.787 C117.586,137.067 118.453,137.957 119.543,137.957 C120.367,137.957 120.846,137.567 121.25,137.027 M125.256,135.787 C125.256,134.507 124.453,133.61 123.365,133.61 C122.276,133.61 121.48,134.507 121.48,135.787 C121.48,137.067 122.276,137.957 123.365,137.957 C124.453,137.957 125.256,137.067 125.256,135.787 M124.143,135.787 C124.143,136.367 123.889,136.898 123.365,136.898 C122.839,136.898 122.593,136.431 122.593,135.787 C122.593,135.144 122.839,134.667 123.365,134.667 C123.889,134.667 124.143,135.151 124.143,135.787 M131.803,137.868 L131.803,135.515 C131.803,134.341 131.381,133.61 130.315,133.61 C129.626,133.61 129.274,133.847 128.988,134.141 C128.68,133.761 128.37,133.61 127.837,133.61 C127.4,133.61 127.114,133.775 126.924,133.976 L126.924,133.697 L125.827,133.697 L125.827,137.868 L126.924,137.868 L126.924,135.588 C126.924,134.864 127.146,134.643 127.6,134.643 C128.051,134.643 128.265,134.864 128.265,135.611 L128.265,137.868 L129.363,137.868 L129.363,135.588 C129.363,134.864 129.586,134.643 130.038,134.643 C130.491,134.643 130.705,134.864 130.705,135.611 L130.705,137.868 z" fill="#0E0C0C"/>
      <path d="M69.651,130.522 L69.651,124.961 L68.729,124.961 C68.618,125.421 68.212,125.652 67.592,125.684 L67.592,126.5 L68.546,126.5 L68.546,130.522 z M72.82,127.089 L70.541,127.089 L70.541,128.186 L72.82,128.186 z M78.137,128.799 C78.137,128.09 77.683,127.702 77.254,127.504 C77.683,127.265 77.899,126.875 77.899,126.478 C77.899,125.389 76.906,124.874 75.809,124.874 C74.64,124.874 73.719,125.429 73.719,126.525 C73.719,126.937 73.966,127.289 74.363,127.504 C73.942,127.686 73.48,128.083 73.48,128.853 C73.48,129.95 74.37,130.611 75.809,130.611 C77.247,130.611 78.137,129.917 78.137,128.799 M76.786,126.5 C76.786,126.866 76.492,127.131 75.809,127.131 C75.166,127.131 74.832,126.852 74.832,126.493 C74.832,126.135 75.117,125.835 75.809,125.835 C76.54,125.835 76.786,126.143 76.786,126.5 M77.025,128.838 C77.025,129.346 76.572,129.632 75.809,129.632 C75.102,129.632 74.593,129.337 74.593,128.829 C74.593,128.353 74.975,128.043 75.809,128.043 C76.652,128.043 77.025,128.329 77.025,128.838 M83.388,127.726 C83.388,126.034 82.57,124.874 81.053,124.874 C79.536,124.874 78.717,126.049 78.717,127.74 C78.717,129.433 79.527,130.611 81.044,130.611 C82.563,130.611 83.388,129.418 83.388,127.726 M82.26,127.74 C82.26,128.735 81.903,129.522 81.053,129.522 C80.203,129.522 79.846,128.719 79.846,127.726 C79.846,126.732 80.194,125.962 81.044,125.962 C81.894,125.962 82.26,126.748 82.26,127.74 M88.577,127.726 C88.577,126.034 87.758,124.874 86.241,124.874 C84.724,124.874 83.906,126.049 83.906,127.74 C83.906,129.433 84.716,130.611 86.232,130.611 C87.751,130.611 88.577,129.418 88.577,127.726 M87.45,127.74 C87.45,128.735 87.091,129.522 86.241,129.522 C85.391,129.522 85.034,128.719 85.034,127.726 C85.034,126.732 85.383,125.962 86.232,125.962 C87.084,125.962 87.45,126.748 87.45,127.74 M91.454,127.089 L89.172,127.089 L89.172,128.186 L91.454,128.186 z M96.738,128.369 L96.738,127.639 L94.744,127.639 L94.744,128.677 L95.625,128.677 C95.561,129.165 95.299,129.522 94.536,129.522 C93.702,129.522 93.218,128.766 93.218,127.74 C93.218,126.709 93.694,125.978 94.53,125.978 C95.132,125.978 95.386,126.286 95.594,126.701 L96.649,126.263 C96.283,125.405 95.681,124.874 94.543,124.874 C93.089,124.874 92.074,126.049 92.074,127.74 C92.074,129.498 93.051,130.611 94.505,130.611 C95.792,130.611 96.738,129.799 96.738,128.369 M102.172,127.74 C102.172,126.049 101.275,124.874 99.758,124.874 C98.239,124.874 97.34,126.049 97.34,127.74 C97.34,129.433 98.239,130.611 99.758,130.611 C101.275,130.611 102.172,129.433 102.172,127.74 M101.029,127.74 C101.029,128.735 100.655,129.505 99.758,129.505 C98.859,129.505 98.486,128.735 98.486,127.74 C98.486,126.748 98.859,125.978 99.758,125.978 C100.655,125.978 101.029,126.748 101.029,127.74 M105.072,127.089 L102.792,127.089 L102.792,128.186 L105.072,128.186 z M110.357,128.369 L110.357,127.639 L108.363,127.639 L108.363,128.677 L109.244,128.677 C109.18,129.165 108.919,129.522 108.156,129.522 C107.32,129.522 106.838,128.766 106.838,127.74 C106.838,126.709 107.313,125.978 108.147,125.978 C108.752,125.978 109.006,126.286 109.211,126.701 L110.268,126.263 C109.903,125.405 109.3,124.874 108.163,124.874 C106.709,124.874 105.692,126.049 105.692,127.74 C105.692,129.498 106.669,130.611 108.123,130.611 C109.412,130.611 110.357,129.799 110.357,128.369 M115.72,128.068 L115.72,124.961 L114.607,124.961 L114.607,128.083 C114.607,128.972 114.17,129.522 113.463,129.522 C112.756,129.522 112.327,128.958 112.327,128.068 L112.327,124.961 L111.214,124.961 L111.214,128.083 C111.214,129.703 112.12,130.611 113.463,130.611 C114.877,130.611 115.72,129.681 115.72,128.068 M121.481,130.522 L119.367,124.961 L118.287,124.961 L116.157,130.522 L117.35,130.522 L117.787,129.282 L119.821,129.282 L120.258,130.522 z M119.44,128.226 L118.168,128.226 L118.525,127.218 C118.637,126.89 118.747,126.558 118.804,126.351 C118.858,126.558 118.97,126.89 119.081,127.218 z M126.741,130.522 L125.677,128.362 C126.384,128.083 126.741,127.559 126.741,126.723 C126.741,125.541 125.875,124.961 124.827,124.961 L122.237,124.961 L122.237,130.522 L123.35,130.522 L123.35,128.521 L124.47,128.521 L125.462,130.522 z M125.598,126.748 C125.598,127.232 125.32,127.47 124.802,127.47 L123.35,127.47 L123.35,126.041 L124.802,126.041 C125.295,126.041 125.598,126.248 125.598,126.748 M132.136,127.74 C132.136,125.706 130.961,124.961 129.372,124.961 L127.632,124.961 L127.632,130.522 L129.292,130.522 C130.722,130.522 132.136,129.694 132.136,127.74 M130.992,127.74 C130.992,128.757 130.461,129.442 129.292,129.442 L128.744,129.442 L128.744,126.041 L129.332,126.041 C130.508,126.041 130.992,126.605 130.992,127.74" fill="#0E0C0C"/>
    </g>
    <g>
      <path d="M98.89,118.693 L69.85,106.026 C68.392,105.39 67.45,103.95 67.45,102.359 L67.45,49.293 C67.45,47.968 68.524,46.893 69.85,46.893 L129.85,46.893 C131.175,46.893 132.25,47.968 132.25,49.293 L132.25,102.359 C132.25,103.95 131.307,105.39 129.849,106.026 L100.809,118.693 C100.197,118.96 99.502,118.96 98.89,118.693" fill="#000000"/>
      <path d="M74.998,75.239 L76.338,75.239 L78.821,78.754 C78.99,79.003 79.221,79.334 79.31,79.504 C79.31,79.258 79.288,78.422 79.288,78.051 L79.288,75.239 L80.671,75.239 L80.671,81.889 L79.419,81.889 L76.85,78.262 C76.68,78.014 76.449,77.681 76.361,77.51 C76.361,77.757 76.38,78.593 76.38,78.964 L76.38,81.889 L74.998,81.889 z M85.154,76.902 L84.351,79.143 L85.954,79.143 z M84.503,75.239 L85.862,75.239 L88.524,81.889 L86.984,81.889 L86.432,80.408 L83.872,80.408 L83.321,81.889 L81.824,81.889 z M88.28,75.239 L93.702,75.239 L93.702,76.55 L91.695,76.55 L91.695,81.889 L90.291,81.889 L90.291,76.55 L88.28,76.55 z M95.06,75.239 L96.461,75.239 L96.461,81.889 L95.06,81.889 z M100.942,76.456 C99.812,76.456 99.341,77.377 99.341,78.565 C99.341,79.753 99.812,80.675 100.942,80.675 C102.072,80.675 102.544,79.753 102.544,78.565 C102.544,77.377 102.072,76.456 100.942,76.456 M100.942,75.134 C102.854,75.134 103.984,76.541 103.984,78.565 C103.984,80.587 102.854,81.994 100.942,81.994 C99.029,81.994 97.901,80.587 97.901,78.565 C97.901,76.541 99.029,75.134 100.942,75.134 M105.235,75.239 L106.572,75.239 L109.056,78.754 C109.227,79.003 109.456,79.334 109.544,79.504 C109.544,79.258 109.525,78.422 109.525,78.051 L109.525,75.239 L110.907,75.239 L110.907,81.889 L109.656,81.889 L107.084,78.262 C106.915,78.014 106.688,77.681 106.595,77.51 C106.595,77.757 106.615,78.593 106.615,78.964 L106.615,81.889 L105.235,81.889 z M115.36,76.902 L114.559,79.143 L116.16,79.143 z M114.709,75.239 L116.068,75.239 L118.73,81.889 L117.188,81.889 L116.641,80.408 L114.079,80.408 L113.529,81.889 L112.028,81.889 z M119.787,75.239 L121.191,75.239 L121.191,80.578 L124.702,80.578 L124.702,81.889 L119.787,81.889 z M79.194,94.945 C76.449,94.945 74.609,92.846 74.609,89.534 C74.609,86.342 76.526,84.124 79.271,84.124 C81.412,84.124 82.551,85.128 83.24,86.746 L81.25,87.571 C80.857,86.792 80.378,86.206 79.24,86.206 C77.666,86.206 76.767,87.586 76.767,89.534 C76.767,91.468 77.681,92.891 79.254,92.891 C80.692,92.891 81.188,92.218 81.308,91.303 L79.644,91.303 L79.644,89.34 L83.406,89.34 L83.406,90.719 C83.406,93.415 81.624,94.945 79.194,94.945 M89.31,94.945 C86.779,94.945 85.067,93.236 85.067,90.179 L85.067,84.289 L87.168,84.289 L87.168,90.149 C87.168,91.828 87.977,92.891 89.31,92.891 C90.645,92.891 91.469,91.858 91.469,90.179 L91.469,84.289 L93.567,84.289 L93.567,90.149 C93.567,93.191 91.979,94.945 89.31,94.945 M99.966,88.545 C99.756,87.93 99.546,87.301 99.442,86.911 C99.338,87.301 99.127,87.93 98.917,88.545 L98.242,90.449 L100.64,90.449 z M102.184,94.78 L101.362,92.441 L97.525,92.441 L96.698,94.78 L94.451,94.78 L98.467,84.289 L100.505,84.289 L104.493,94.78 z M110.803,86.327 L108.06,86.327 L108.06,89.025 L110.803,89.025 C111.777,89.025 112.3,88.575 112.3,87.66 C112.3,86.717 111.73,86.327 110.803,86.327 M112.048,94.78 L110.173,91.004 L108.06,91.004 L108.06,94.78 L105.961,94.78 L105.961,84.289 L110.847,84.289 C112.823,84.289 114.46,85.383 114.46,87.616 C114.46,89.189 113.782,90.179 112.45,90.704 L114.46,94.78 z M119.76,86.327 L118.652,86.327 L118.652,92.741 L119.685,92.741 C121.889,92.741 122.892,91.453 122.892,89.534 C122.892,87.391 121.98,86.327 119.76,86.327 M119.685,94.78 L116.551,94.78 L116.551,84.289 L119.833,84.289 C122.834,84.289 125.05,85.697 125.05,89.534 C125.05,93.221 122.38,94.78 119.685,94.78" fill="#FFFFFF"/>
      <path d="M125.05,97.38 L74.65,97.38 L74.65,98.38 L125.05,98.38 z M125.05,59.493 L74.65,59.493 L74.65,58.493 L125.05,58.493 z M81.808,68.333 L79.171,68.333 L80.491,64.635 z M74.998,72.861 L77.475,72.861 L78.38,70.417 L82.603,70.417 L83.508,72.861 L86.049,72.861 L81.66,61.893 L79.419,61.893 z M95.254,65.419 C95.254,66.374 94.676,66.844 93.602,66.844 L90.584,66.844 L90.584,64.023 L93.602,64.023 C94.626,64.023 95.254,64.431 95.254,65.419 M88.276,72.861 L90.584,72.861 L90.584,68.912 L92.909,68.912 L94.973,72.861 L97.627,72.861 L95.419,68.598 C96.882,68.051 97.627,67.017 97.627,65.373 C97.627,63.038 95.829,61.893 93.652,61.893 L88.276,61.893 z M100.605,72.861 L102.864,72.861 L102.864,68.834 C102.864,68.238 102.831,66.844 102.831,66.421 C102.995,66.827 103.342,67.612 103.638,68.238 L105.982,73.111 L108.323,68.238 C108.62,67.612 108.97,66.827 109.132,66.421 C109.132,66.844 109.097,68.238 109.097,68.834 L109.097,72.861 L111.407,72.861 L111.407,61.893 L109.132,61.893 L106.806,66.86 C106.51,67.486 106.179,68.286 106.031,68.693 C105.882,68.302 105.536,67.47 105.24,66.86 L102.831,61.893 L100.605,61.893 z M117.686,68.567 L117.686,72.861 L119.995,72.861 L119.995,68.521 L124.365,61.893 L121.741,61.893 L118.858,66.639 L115.969,61.893 L113.316,61.893 z M101.94,107.887 L105.321,105.434 L101.14,105.434 L99.85,101.458 L98.56,105.434 L94.379,105.434 L97.76,107.887 L96.47,111.861 L99.85,109.404 L103.23,111.861 z" fill="#FFD530"/>
    </g>
  </g>
</svg>
