<?xml version="1.0" encoding="UTF-8"?>
<!DOCTYPE svg PUBLIC "-//W3C//DTD SVG 1.1//EN" "http://www.w3.org/Graphics/SVG/1.1/DTD/svg11.dtd">
<svg version="1.1" xmlns="http://www.w3.org/2000/svg" xmlns:xlink="http://www.w3.org/1999/xlink" x="0" y="0" width="64.8" height="72" viewBox="0, 0, 64.8, 72">
  <g id="Layer_1" transform="translate(-67.45, -46.893)">
    <g>
      <path d="M98.89,118.693 L69.85,106.026 C68.392,105.39 67.45,103.95 67.45,102.359 L67.45,49.293 C67.45,47.968 68.524,46.893 69.85,46.893 L129.85,46.893 C131.175,46.893 132.25,47.968 132.25,49.293 L132.25,102.359 C132.25,103.95 131.307,105.39 129.849,106.026 L100.809,118.693 C100.197,118.96 99.502,118.96 98.89,118.693" fill="#000000"/>
      <path d="M74.998,75.239 L76.338,75.239 L78.821,78.754 C78.99,79.003 79.221,79.334 79.31,79.504 C79.31,79.258 79.288,78.422 79.288,78.051 L79.288,75.239 L80.671,75.239 L80.671,81.889 L79.419,81.889 L76.85,78.262 C76.68,78.014 76.449,77.681 76.361,77.51 C76.361,77.757 76.38,78.593 76.38,78.964 L76.38,81.889 L74.998,81.889 z M85.154,76.902 L84.351,79.143 L85.954,79.143 z M84.503,75.239 L85.862,75.239 L88.524,81.889 L86.984,81.889 L86.432,80.408 L83.872,80.408 L83.321,81.889 L81.824,81.889 z M88.28,75.239 L93.702,75.239 L93.702,76.55 L91.695,76.55 L91.695,81.889 L90.291,81.889 L90.291,76.55 L88.28,76.55 z M95.06,75.239 L96.461,75.239 L96.461,81.889 L95.06,81.889 z M100.942,76.456 C99.812,76.456 99.341,77.377 99.341,78.565 C99.341,79.753 99.812,80.675 100.942,80.675 C102.072,80.675 102.544,79.753 102.544,78.565 C102.544,77.377 102.072,76.456 100.942,76.456 M100.942,75.134 C102.854,75.134 103.984,76.541 103.984,78.565 C103.984,80.587 102.854,81.994 100.942,81.994 C99.029,81.994 97.901,80.587 97.901,78.565 C97.901,76.541 99.029,75.134 100.942,75.134 M105.235,75.239 L106.572,75.239 L109.056,78.754 C109.227,79.003 109.456,79.334 109.544,79.504 C109.544,79.258 109.525,78.422 109.525,78.051 L109.525,75.239 L110.907,75.239 L110.907,81.889 L109.656,81.889 L107.084,78.262 C106.915,78.014 106.688,77.681 106.595,77.51 C106.595,77.757 106.615,78.593 106.615,78.964 L106.615,81.889 L105.235,81.889 z M115.36,76.902 L114.559,79.143 L116.16,79.143 z M114.709,75.239 L116.068,75.239 L118.73,81.889 L117.188,81.889 L116.641,80.408 L114.079,80.408 L113.529,81.889 L112.028,81.889 z M119.787,75.239 L121.191,75.239 L121.191,80.578 L124.702,80.578 L124.702,81.889 L119.787,81.889 z M79.194,94.945 C76.449,94.945 74.609,92.846 74.609,89.534 C74.609,86.342 76.526,84.124 79.271,84.124 C81.412,84.124 82.551,85.128 83.24,86.746 L81.25,87.571 C80.857,86.792 80.378,86.206 79.24,86.206 C77.666,86.206 76.767,87.586 76.767,89.534 C76.767,91.468 77.681,92.891 79.254,92.891 C80.692,92.891 81.188,92.218 81.308,91.303 L79.644,91.303 L79.644,89.34 L83.406,89.34 L83.406,90.719 C83.406,93.415 81.624,94.945 79.194,94.945 M89.31,94.945 C86.779,94.945 85.067,93.236 85.067,90.179 L85.067,84.289 L87.168,84.289 L87.168,90.149 C87.168,91.828 87.977,92.891 89.31,92.891 C90.645,92.891 91.469,91.858 91.469,90.179 L91.469,84.289 L93.567,84.289 L93.567,90.149 C93.567,93.191 91.979,94.945 89.31,94.945 M99.966,88.545 C99.756,87.93 99.546,87.301 99.442,86.911 C99.338,87.301 99.127,87.93 98.917,88.545 L98.242,90.449 L100.64,90.449 z M102.184,94.78 L101.362,92.441 L97.525,92.441 L96.698,94.78 L94.451,94.78 L98.467,84.289 L100.505,84.289 L104.493,94.78 z M110.803,86.327 L108.06,86.327 L108.06,89.025 L110.803,89.025 C111.777,89.025 112.3,88.575 112.3,87.66 C112.3,86.717 111.73,86.327 110.803,86.327 M112.048,94.78 L110.173,91.004 L108.06,91.004 L108.06,94.78 L105.961,94.78 L105.961,84.289 L110.847,84.289 C112.823,84.289 114.46,85.383 114.46,87.616 C114.46,89.189 113.782,90.179 112.45,90.704 L114.46,94.78 z M119.76,86.327 L118.652,86.327 L118.652,92.741 L119.685,92.741 C121.889,92.741 122.892,91.453 122.892,89.534 C122.892,87.391 121.98,86.327 119.76,86.327 M119.685,94.78 L116.551,94.78 L116.551,84.289 L119.833,84.289 C122.834,84.289 125.05,85.697 125.05,89.534 C125.05,93.221 122.38,94.78 119.685,94.78" fill="#FFFFFF"/>
      <path d="M125.05,97.38 L74.65,97.38 L74.65,98.38 L125.05,98.38 z M125.05,59.493 L74.65,59.493 L74.65,58.493 L125.05,58.493 z M81.808,68.333 L79.171,68.333 L80.491,64.635 z M74.998,72.861 L77.475,72.861 L78.38,70.417 L82.603,70.417 L83.508,72.861 L86.049,72.861 L81.66,61.893 L79.419,61.893 z M95.254,65.419 C95.254,66.374 94.676,66.844 93.602,66.844 L90.584,66.844 L90.584,64.023 L93.602,64.023 C94.626,64.023 95.254,64.431 95.254,65.419 M88.276,72.861 L90.584,72.861 L90.584,68.912 L92.909,68.912 L94.973,72.861 L97.627,72.861 L95.419,68.598 C96.882,68.051 97.627,67.017 97.627,65.373 C97.627,63.038 95.829,61.893 93.652,61.893 L88.276,61.893 z M100.605,72.861 L102.864,72.861 L102.864,68.834 C102.864,68.238 102.831,66.844 102.831,66.421 C102.995,66.827 103.342,67.612 103.638,68.238 L105.982,73.111 L108.323,68.238 C108.62,67.612 108.97,66.827 109.132,66.421 C109.132,66.844 109.097,68.238 109.097,68.834 L109.097,72.861 L111.407,72.861 L111.407,61.893 L109.132,61.893 L106.806,66.86 C106.51,67.486 106.179,68.286 106.031,68.693 C105.882,68.302 105.536,67.47 105.24,66.86 L102.831,61.893 L100.605,61.893 z M117.686,68.567 L117.686,72.861 L119.995,72.861 L119.995,68.521 L124.365,61.893 L121.741,61.893 L118.858,66.639 L115.969,61.893 L113.316,61.893 z M101.94,107.887 L105.321,105.434 L101.14,105.434 L99.85,101.458 L98.56,105.434 L94.379,105.434 L97.76,107.887 L96.47,111.861 L99.85,109.404 L103.23,111.861 z" fill="#FFD530"/>
    </g>
  </g>
</svg>
