<?xml version="1.0" encoding="UTF-8"?>
<!DOCTYPE svg PUBLIC "-//W3C//DTD SVG 1.1//EN" "http://www.w3.org/Graphics/SVG/1.1/DTD/svg11.dtd">
<svg version="1.1" xmlns="http://www.w3.org/2000/svg" xmlns:xlink="http://www.w3.org/1999/xlink" x="0" y="0" width="828.96" height="204.606" viewBox="0, 0, 828.96, 204.606">
  <g id="Layer_1" transform="translate(-10.04, -14.284)">
    <path d="M10.04,108.66 C10.97,105.41 10.94,102 11.6,98.7 C18.45,64.2 37.72,39.21 69.29,23.86 C84.16,16.63 100.09,13.45 116.57,14.47 C154.54,16.83 183.05,34.74 202.14,67.66 C203.14,69.39 202.39,69.34 201.01,69.31 C196.59,69.22 192.17,69.25 187.76,69.14 C186.52,69.11 185.94,69.5 185.64,70.7 C184.01,77.14 182.36,83.58 180.61,90 C180.25,91.33 180.48,91.64 181.81,91.65 C189.83,91.73 197.86,91.91 205.88,91.95 C207.58,91.96 208.1,92.23 207.62,94.05 C201.33,117.93 195.11,141.82 188.81,165.7 C188.35,167.43 188.52,167.97 190.41,167.89 C193.73,167.76 197.05,167.85 200.65,167.85 C199.57,170.34 198.17,172.32 196.79,174.29 C180.15,197.97 157.58,212.41 129.09,217.54 C125.77,218.14 122.4,218.44 119.06,218.89 C114.16,218.89 109.26,218.89 104.36,218.89 C104.05,218.38 103.53,218.53 103.08,218.49 C99.63,218.18 96.2,217.7 92.81,217.03 C70.34,212.55 51.4,201.82 36.11,184.78 C22.55,169.67 14.29,152.02 11.19,131.94 C10.79,129.35 10.88,126.7 10.05,124.18 C10.04,119 10.04,113.83 10.04,108.66 z M89.95,55.13 C86.18,54.97 82.46,55.4 78.78,56.1 C46.74,62.13 25.31,92.69 30.54,124.84 C35.58,155.81 63.75,177.62 95.14,174.87 C108.84,173.67 120.65,168.24 130.8,159.04 C131.84,158.1 131.7,157.55 130.78,156.64 C125.21,151.14 119.68,145.61 114.18,140.05 C113.35,139.21 112.9,139.06 111.92,139.94 C106.6,144.72 100.33,147.52 93.22,148.21 C71.1,150.36 53.05,131 57.11,109.24 C59.44,96.78 66.81,88.01 78.8,83.83 C90.84,79.63 101.97,81.93 111.75,90.2 C112.77,91.07 113.27,91.06 114.19,90.13 C119.54,84.7 124.89,79.28 130.38,73.99 C131.81,72.61 131.59,71.91 130.25,70.72 C118.74,60.52 105.32,55.31 89.95,55.13 z M148.34,84.29 C148.85,83.75 149.01,83.54 149.21,83.38 C152.95,80.11 156.77,76.94 160.41,73.57 C164.36,69.92 165.29,65.34 163.58,60.33 C161.93,55.5 157.97,53.83 153.28,53.36 C146.13,52.64 140.3,56.71 139.19,63.15 C138.99,64.31 139.14,64.95 140.53,64.95 C142.09,64.95 143.65,65.14 145.2,65.3 C146.34,65.42 147.04,65.3 147.33,63.89 C147.64,62.39 148.66,61.24 150.3,60.84 C152.45,60.32 154.86,61.05 155.81,62.54 C156.84,64.15 156.49,66.57 154.7,68.26 C151.05,71.72 147.31,75.09 143.55,78.43 C138.54,82.89 138.56,82.86 138.6,89.57 C138.61,91.01 139.04,91.41 140.44,91.39 C146.83,91.33 153.23,91.36 159.62,91.36 C164.76,91.36 164.69,91.36 164.73,86.28 C164.74,84.65 164.26,84.21 162.66,84.24 C158.04,84.36 153.42,84.29 148.34,84.29 z" fill="#2A8EC2"/>
    <path d="M677.61,153.03 C673.13,157.4 668.07,160.41 662.11,161.87 C654.76,163.67 647.66,163.27 641.06,159.28 C635.2,155.74 632.22,150.27 631.85,143.58 C630.74,123.87 646.52,105.07 666.15,102.64 C669.65,102.21 673.21,102.21 676.68,103.16 C681.74,104.55 685.85,107.18 688.4,112.38 C689.08,109.77 689.73,107.58 690.19,105.36 C690.45,104.1 691.03,103.72 692.27,103.77 C694.65,103.86 697.03,103.8 699.41,103.8 C701.74,103.8 701.74,103.8 701.13,106.14 C696.99,121.96 692.86,137.77 688.72,153.59 C688,156.35 687.32,159.11 686.56,161.86 C682.13,177.79 668.96,189.12 652.52,191.18 C645.89,192.01 639.38,191.58 632.99,189.53 C628.74,188.16 625.25,185.68 622.18,182.48 C621.15,181.41 621.33,180.82 622.35,179.91 C624.88,177.64 627.35,175.29 629.76,172.9 C630.61,172.06 631.04,171.85 631.89,172.98 C636.99,179.84 644.08,181.79 652.25,181.11 C665.4,180.01 672.68,171.9 675.77,160.5 C676.44,158.03 677,155.52 677.61,153.03 z M658.7,152.52 C660.19,152.39 661.7,152.4 663.16,152.11 C675.72,149.6 684.5,138.05 683.76,125.08 C683.44,119.52 680.21,115.26 674.91,113.59 C670.34,112.15 665.76,112.49 661.31,114.1 C648.79,118.63 643.78,130.65 643.76,139.92 C643.75,146.11 647.62,150.57 653.64,151.98 C655.31,152.37 657,152.4 658.7,152.52 z" fill="#2D8FC2"/>
    <path d="M369.38,111.99 C373.98,106.95 379.59,103.71 386.38,102.73 C389.83,102.23 393.3,102.22 396.71,103.1 C404.99,105.23 407.88,111.75 407.06,119.25 C406.45,124.8 404.59,130.09 403.21,135.47 C401.07,143.81 398.85,152.14 396.75,160.49 C396.45,161.68 396.06,162.2 394.75,162.16 C391.64,162.06 388.53,162.13 385.23,162.13 C387.63,152.91 389.99,143.93 392.31,134.94 C393.17,131.59 394.2,128.29 394.72,124.85 C396.25,114.75 389.77,111.91 382.35,112.92 C372.56,114.25 367.18,120.76 364.51,129.55 C361.44,139.67 358.96,149.98 356.32,160.22 C355.95,161.65 355.47,162.28 353.91,162.17 C351.81,162.02 349.7,162.13 347.59,162.13 C344.67,162.13 344.68,162.13 345.4,159.4 C348.89,146.15 352.37,132.9 355.85,119.64 C360.07,103.56 364.31,87.5 368.45,71.4 C368.92,69.59 369.68,68.99 371.49,69.14 C373.59,69.31 375.71,69.27 377.81,69.15 C379.59,69.05 380.18,69.34 379.63,71.38 C376.2,84.08 372.91,96.83 369.59,109.56 C369.4,110.28 369.27,111.02 369.12,111.74 C369.1,111.91 369.07,112.07 369.05,112.23 C369.15,112.15 369.27,112.07 369.38,111.99 z" fill="#2D8FC2"/>
    <path d="M260.11,137.11 C252.9,137.11 245.69,137.16 238.48,137.07 C236.85,137.05 236.36,137.68 236.22,139.15 C235.57,146.45 240.16,152.12 247.69,153.58 C255.99,155.19 262.59,151.86 268.53,146.67 C269.98,145.4 270.74,145.53 271.9,146.83 C273.12,148.2 274.51,149.42 275.88,150.64 C276.66,151.33 276.73,151.81 275.9,152.57 C269.06,158.83 261.14,162.6 251.84,163.4 C247.11,163.8 242.46,163.63 237.97,161.98 C230.02,159.07 225.14,152.28 224.81,143.82 C224.05,124.5 239.41,105.85 258.51,102.89 C262.78,102.23 267.06,102.17 271.28,103.1 C280.06,105.05 285.58,112 285.91,121.54 C286.08,126.47 285.13,131.26 283.76,135.99 C283.4,137.23 282.62,137.11 281.75,137.11 C274.53,137.11 267.32,137.11 260.11,137.11 z M256.41,128.23 C260.49,128.23 264.57,128.23 268.66,128.23 C274.75,128.23 274.75,128.23 274.61,122.02 C274.49,116.87 271.67,113.24 266.76,111.9 C256.42,109.09 242.8,116.53 239.39,126.77 C238.94,128.12 239.36,128.25 240.5,128.24 C245.8,128.21 251.11,128.23 256.41,128.23 z" fill="#2D8FC2"/>
    <path d="M757.87,137.12 C750.8,137.12 743.72,137.18 736.65,137.08 C734.86,137.06 734.34,137.65 734.22,139.37 C733.71,146.68 738.29,152.2 745.9,153.61 C753.27,154.97 759.36,152.38 764.99,147.99 C768.34,145.37 768.35,145.38 771.48,148.43 C771.82,148.76 772.16,149.09 772.5,149.43 C774.93,151.81 774.94,151.82 772.37,153.93 C762.18,162.29 750.64,165.52 737.72,162.52 C728.98,160.49 723.32,153.03 722.84,144.05 C721.78,124.12 737.99,105.08 758.08,102.67 C764.19,101.94 770.34,102.2 775.77,105.87 C780.54,109.09 783.07,113.7 783.66,119.3 C784.26,124.9 783.42,130.4 781.81,135.8 C781.39,137.21 780.55,137.14 779.51,137.14 C772.29,137.11 765.08,137.12 757.87,137.12 z M754.49,128.23 C759.79,128.23 765.09,128.2 770.39,128.25 C771.65,128.26 772.33,127.92 772.32,126.58 C772.32,126.11 772.47,125.65 772.54,125.18 C773.61,118.24 770.34,113.14 763.88,111.66 C753.92,109.39 740.73,116.86 737.4,126.61 C736.95,127.93 737.26,128.26 738.6,128.25 C743.89,128.2 749.19,128.23 754.49,128.23 z" fill="#2D8FC2"/>
    <path d="M512.69,102.59 C521.01,102.4 528.1,105.11 532.93,112.15 C537.33,118.58 537.66,125.76 535.68,133.08 C530.6,151.82 512.73,162.82 499.11,163.48 C489.33,163.95 481,161.4 475.72,152.59 C471.89,146.2 471.97,139.29 473.96,132.28 C478.23,117.21 493.31,104.35 508.82,102.61 C510.1,102.46 511.4,102.59 512.69,102.59 z M499.41,153.19 C503.67,153.33 507.62,152.19 511.25,150.03 C519.15,145.31 523.24,138.14 524.64,129.19 C526.07,120.05 520.33,113.01 511.11,112.75 C500.13,112.44 490.47,119.26 486.52,130.08 C485.05,134.1 484.29,138.24 484.98,142.48 C486.08,149.28 491.46,153.18 499.41,153.19 z" fill="#2D8FC2"/>
    <path d="M603.35,102.42 C615.45,102.44 624.36,108.87 626.8,119.57 C628.24,125.88 627.3,132.04 624.66,137.87 C618.32,151.88 607.49,160.43 592.39,163.18 C585.32,164.47 578.39,163.46 572.34,159.15 C564.65,153.68 561.58,143.94 564.21,133.83 C568.41,117.72 582.57,105.04 599.07,102.64 C600.48,102.45 601.92,102.5 603.35,102.42 z M590.28,153.18 C591.8,153.26 593.42,153.12 595.01,152.72 C596.26,152.41 597.5,152.05 598.69,151.57 C608.76,147.52 615.79,136.71 615.47,125.85 C615.28,119.41 611.25,114.48 605.11,113.19 C600.88,112.3 596.7,112.62 592.7,114.19 C582.29,118.28 576.98,126.34 575.57,137.08 C574.82,142.79 576.12,147.96 581.55,151.18 C584.19,152.75 587.11,153.28 590.28,153.18 z" fill="#2D8FC2"/>
    <path d="M224.56,75.19 C235.24,75.19 245.92,75.22 256.61,75.15 C258.21,75.14 258.61,75.47 258.12,77.04 C257.33,79.56 256.63,82.12 256.06,84.7 C255.78,85.97 255.19,86.27 253.98,86.26 C245.88,86.21 237.79,86.28 229.69,86.2 C228.14,86.19 227.51,86.58 227.09,88.18 C220.91,112.09 214.63,135.97 208.43,159.88 C207.99,161.57 207.38,162.36 205.46,162.2 C202.89,161.99 200.29,162.07 197.71,162.17 C196.2,162.23 196.04,161.72 196.39,160.39 C201.17,142.22 205.91,124.03 210.66,105.85 C212.2,99.94 213.74,94.03 215.35,88.14 C215.75,86.69 215.63,86.17 213.9,86.19 C205.8,86.28 197.71,86.2 189.61,86.26 C188.1,86.27 187.73,85.97 188.22,84.45 C188.99,82.07 189.64,79.63 190.13,77.17 C190.47,75.49 191.28,75.13 192.91,75.14 C203.46,75.23 214.01,75.19 224.56,75.19 z" fill="#2A8EC2"/>
    <path d="M430.92,112.13 C434.5,108.41 438.54,105.65 443.33,103.99 C448.13,102.32 453.03,101.96 457.99,102.96 C466.53,104.69 469.95,111.22 469.09,119.1 C468.34,125.94 465.95,132.42 464.34,139.08 C462.61,146.2 460.62,153.25 458.83,160.35 C458.49,161.72 457.97,162.25 456.51,162.17 C454.07,162.04 451.61,162.02 449.17,162.17 C447.5,162.27 447.3,161.77 447.7,160.27 C450.4,150.18 453.04,140.07 455.66,129.96 C456.44,126.95 457.38,123.92 456.88,120.75 C456.04,115.43 453.19,112.89 447.77,112.77 C438.87,112.56 432.67,116.9 428.57,124.53 C426.03,129.25 425.07,134.5 423.7,139.61 C421.84,146.55 420.04,153.52 418.3,160.49 C417.97,161.8 417.41,162.22 416.09,162.17 C413.51,162.07 410.92,162.08 408.34,162.16 C406.96,162.2 406.78,161.8 407.12,160.51 C411.62,143.46 416.05,126.39 420.53,109.33 C420.99,107.57 420.86,105.27 422.17,104.2 C423.57,103.06 425.83,103.88 427.7,103.84 C429.39,103.81 431.8,103.08 432.58,104.12 C433.46,105.3 432.03,107.38 431.7,109.08 C431.5,110.11 431.19,111.11 430.92,112.13 z" fill="#2D8FC2"/>
    <path d="M821.88,102.49 C825.63,102.33 829.18,103.08 832.58,104.61 C835.36,105.86 837.38,107.88 838.71,110.62 C839.15,111.53 839.18,112.13 838.15,112.74 C835.4,114.35 832.69,116.06 830.02,117.81 C829.12,118.4 828.71,118.29 828.13,117.41 C823.65,110.56 813.36,112.26 809.35,115.67 C805.78,118.71 806.24,123.26 810.29,125.62 C812.44,126.87 814.83,127.39 817.24,127.84 C819.72,128.3 822.13,128.96 824.47,129.9 C831.74,132.81 834.19,137.77 832.08,145.35 C829.76,153.66 824.1,158.79 816.19,161.52 C808.77,164.08 801.17,164.45 793.57,162.15 C789.51,160.92 786.68,158.2 784.6,154.59 C784.07,153.67 784.07,153.08 785.06,152.44 C787.68,150.74 790.27,148.97 792.8,147.14 C793.77,146.44 794.31,146.66 794.96,147.51 C800.91,155.29 809.87,153.89 815.96,150.96 C817.2,150.37 818.22,149.46 819.02,148.32 C821.6,144.65 820.68,141.23 816.63,139.29 C813.47,137.78 809.97,137.45 806.67,136.44 C804.53,135.79 802.37,135.18 800.36,134.17 C795.46,131.7 793.47,127.55 794.54,122.19 C796.54,112.18 803.23,106.73 812.46,103.8 C815.5,102.84 818.66,102.33 821.88,102.49 z" fill="#2D8FC2"/>
    <path d="M331.89,102.52 C336.69,102.61 342.61,103.99 347.47,108.4 C350.76,111.38 350.74,111.42 347.2,114.01 C345.11,115.53 343.03,117.06 340.95,118.6 C340.4,119.01 339.92,119.53 339.32,118.6 C334.62,111.35 323.68,111.71 317.15,115.38 C309.2,119.86 305.06,127.03 303.18,135.71 C302.58,138.49 302.73,141.25 303.56,143.96 C305.2,149.32 309.66,152.75 315.27,153.16 C321.42,153.61 326.83,151.86 331.5,147.89 C332.69,146.88 333.29,146.9 334.14,148.23 C335.31,150.06 336.65,151.78 337.99,153.5 C338.61,154.29 338.64,154.78 337.79,155.45 C330.26,161.41 321.7,163.96 312.14,163.48 C307.57,163.25 303.24,162.22 299.42,159.67 C292.49,155.03 289.98,148.13 290.69,140.22 C291.94,126.28 298.56,115.39 310.58,108.02 C316.6,104.31 323.23,102.5 331.89,102.52 z" fill="#2D8FC2"/>
    <path d="M541.87,162.13 C540.39,161.92 537.93,162.96 537,161.69 C536.32,160.76 537.52,158.41 537.97,156.71 C545.44,128.25 552.94,99.79 560.36,71.31 C560.8,69.62 561.47,69.01 563.21,69.13 C565.51,69.29 567.84,69.26 570.14,69.14 C571.97,69.05 571.9,69.79 571.52,71.21 C568.33,83.13 565.21,95.07 562.08,107.01 C557.47,124.59 552.83,142.16 548.3,159.76 C547.83,161.58 547.22,162.49 545.23,162.15 C544.24,162 543.2,162.13 541.87,162.13 z" fill="#2D8FC2"/>
    <path d="M701.43,162.13 C701.02,162.13 700.61,162.13 700.21,162.13 C695.73,162.13 695.73,162.13 696.84,157.89 C701.34,140.7 705.87,123.51 710.3,106.3 C710.79,104.41 711.46,103.54 713.54,103.75 C715.69,103.97 717.89,103.89 720.06,103.77 C721.71,103.68 722.12,104.06 721.66,105.77 C718.43,117.83 715.3,129.91 712.13,141.98 C710.55,148.02 708.9,154.03 707.42,160.1 C707.02,161.73 706.37,162.39 704.69,162.15 C703.62,162.01 702.52,162.13 701.43,162.13 z" fill="#2D8FC2"/>
    <path d="M719.94,91.1 C715.62,91.09 712.91,87.73 713.83,83.51 C714.82,78.95 719.1,75.2 723.71,74.85 C727.88,74.53 730.97,77.92 730.3,82.1 C729.52,86.97 724.76,91.11 719.94,91.1 z" fill="#2D8FC2"/>
    <path d="M89.95,55.13 C105.32,55.31 118.75,60.51 130.26,70.72 C131.59,71.9 131.82,72.6 130.39,73.99 C124.91,79.28 119.55,84.7 114.2,90.13 C113.28,91.06 112.78,91.07 111.76,90.2 C101.99,81.92 90.85,79.63 78.81,83.83 C66.82,88.02 59.45,96.78 57.12,109.24 C53.05,131 71.11,150.36 93.23,148.21 C100.34,147.52 106.61,144.71 111.93,139.94 C112.91,139.06 113.36,139.2 114.19,140.05 C119.69,145.62 125.22,151.15 130.79,156.64 C131.71,157.55 131.85,158.1 130.81,159.04 C120.66,168.24 108.85,173.67 95.15,174.87 C63.76,177.62 35.59,155.81 30.55,124.84 C25.32,92.69 46.75,62.13 78.79,56.1 C82.45,55.41 86.17,54.97 89.95,55.13 z" fill="#FEFFFF"/>
    <path d="M148.34,84.29 C153.41,84.29 158.03,84.36 162.65,84.25 C164.25,84.21 164.73,84.66 164.72,86.29 C164.68,91.37 164.75,91.37 159.61,91.37 C153.22,91.37 146.82,91.33 140.43,91.4 C139.03,91.41 138.6,91.02 138.59,89.58 C138.55,82.87 138.53,82.89 143.54,78.44 C147.3,75.1 151.04,71.73 154.69,68.27 C156.49,66.57 156.83,64.15 155.8,62.55 C154.85,61.06 152.44,60.33 150.29,60.85 C148.65,61.25 147.63,62.39 147.32,63.9 C147.03,65.31 146.33,65.43 145.19,65.31 C143.64,65.14 142.08,64.96 140.52,64.96 C139.12,64.96 138.98,64.32 139.18,63.16 C140.29,56.71 146.12,52.65 153.27,53.37 C157.97,53.84 161.93,55.52 163.57,60.34 C165.28,65.35 164.35,69.93 160.4,73.58 C156.76,76.95 152.94,80.13 149.2,83.39 C149.02,83.55 148.86,83.75 148.34,84.29 z" fill="#FEFFFF"/>
    <path d="M369.38,111.99 C369.27,112.07 369.15,112.15 369.04,112.23 C369.06,112.07 369.09,111.9 369.11,111.74 C369.21,111.82 369.3,111.9 369.38,111.99 z" fill="#FEFFFF"/>
  </g>
</svg>
