<?xml version="1.0" encoding="UTF-8"?>
<!DOCTYPE svg PUBLIC "-//W3C//DTD SVG 1.1//EN" "http://www.w3.org/Graphics/SVG/1.1/DTD/svg11.dtd">
<svg version="1.1" xmlns="http://www.w3.org/2000/svg" xmlns:xlink="http://www.w3.org/1999/xlink" x="0" y="0" width="282.725" height="25.937" viewBox="0, 0, 282.725, 25.937">
  <g id="Layer_1" transform="translate(-291.275, -973.063)">
    <g>
      <g>
        <path d="M309.701,994.264 C308.517,994.819 306.593,995.189 304.743,995.189 C299.267,995.189 296.048,991.674 296.048,986.198 C296.048,980.204 299.711,977.022 304.78,977.022 C306.852,977.022 308.48,977.466 309.664,977.984 L310.663,974.358 C309.738,973.877 307.592,973.248 304.595,973.248 C296.973,973.248 291.275,978.206 291.275,986.42 C291.275,994.005 296.085,999 304.003,999 C307,999 309.368,998.408 310.441,997.853 z" fill="#FFFFFF"/>
        <path d="M327.794,987.752 C327.794,983.83 326.129,980.167 320.357,980.167 C317.508,980.167 315.177,980.944 313.845,981.758 L314.733,984.718 C315.954,983.941 317.804,983.386 319.58,983.386 C322.762,983.386 323.243,985.347 323.243,986.531 L323.243,986.827 C316.583,986.79 312.55,989.084 312.55,993.635 C312.55,996.373 314.585,999 318.211,999 C320.542,999 322.429,998.001 323.539,996.595 L323.65,996.595 L323.946,998.593 L328.053,998.593 C327.868,997.483 327.794,995.892 327.794,994.264 z M323.354,992.266 C323.354,992.562 323.317,992.932 323.206,993.265 C322.799,994.56 321.467,995.744 319.654,995.744 C318.211,995.744 317.064,994.93 317.064,993.154 C317.064,990.416 320.135,989.713 323.354,989.787 z" fill="#FFFFFF"/>
        <path d="M332.604,998.593 L337.155,998.593 L337.155,989.269 C337.155,988.751 337.229,988.27 337.303,987.863 C337.71,985.828 339.19,984.422 341.373,984.422 C341.928,984.422 342.335,984.496 342.705,984.57 L342.705,980.278 C342.335,980.204 342.076,980.167 341.632,980.167 C339.708,980.167 337.599,981.462 336.711,984.015 L336.563,984.015 L336.415,980.574 L332.456,980.574 C332.567,982.202 332.604,983.941 332.604,986.383 z" fill="#FFFFFF"/>
        <path d="M360.724,990.86 C360.798,990.453 360.872,989.787 360.872,988.936 C360.872,984.977 358.985,980.167 353.102,980.167 C347.33,980.167 344.296,984.866 344.296,989.861 C344.296,995.374 347.737,999 353.583,999 C356.173,999 358.319,998.482 359.873,997.853 L359.207,994.708 C357.838,995.226 356.321,995.522 354.212,995.522 C351.326,995.522 348.773,994.116 348.662,990.86 z M348.662,987.678 C348.847,985.828 350.031,983.275 352.843,983.275 C355.877,983.275 356.617,986.013 356.58,987.678 z" fill="#FFFFFF"/>
        <path d="M379.816,990.86 C379.89,990.453 379.964,989.787 379.964,988.936 C379.964,984.977 378.077,980.167 372.194,980.167 C366.422,980.167 363.388,984.866 363.388,989.861 C363.388,995.374 366.829,999 372.675,999 C375.265,999 377.411,998.482 378.965,997.853 L378.299,994.708 C376.93,995.226 375.413,995.522 373.304,995.522 C370.418,995.522 367.865,994.116 367.754,990.86 z M367.754,987.678 C367.939,985.828 369.123,983.275 371.935,983.275 C374.969,983.275 375.709,986.013 375.672,987.678 z" fill="#FFFFFF"/>
        <path d="M383.627,998.593 L388.178,998.593 L388.178,989.269 C388.178,988.751 388.252,988.27 388.326,987.863 C388.733,985.828 390.213,984.422 392.396,984.422 C392.951,984.422 393.358,984.496 393.728,984.57 L393.728,980.278 C393.358,980.204 393.099,980.167 392.655,980.167 C390.731,980.167 388.622,981.462 387.734,984.015 L387.586,984.015 L387.438,980.574 L383.479,980.574 C383.59,982.202 383.627,983.941 383.627,986.383 z" fill="#FFFFFF"/>
        <path d="M396.984,998.519 C398.464,998.704 400.462,998.852 403.126,998.852 C407.973,998.852 411.932,997.705 414.411,995.448 C416.779,993.302 418.296,989.972 418.296,985.532 C418.296,981.277 416.816,978.317 414.411,976.356 C412.117,974.432 408.898,973.47 404.236,973.47 C401.535,973.47 398.982,973.655 396.984,973.988 z M401.535,977.281 C402.164,977.133 403.2,977.022 404.643,977.022 C410.341,977.022 413.523,980.167 413.486,985.68 C413.486,992.007 409.971,995.263 404.051,995.226 C403.126,995.226 402.164,995.226 401.535,995.115 z" fill="#FFFFFF"/>
        <path d="M426.769,998.593 L426.769,980.574 L422.181,980.574 L422.181,998.593 z M424.475,973.063 C422.958,973.063 421.922,974.136 421.922,975.542 C421.922,976.911 422.921,977.984 424.438,977.984 C426.029,977.984 427.028,976.911 427.028,975.542 C426.991,974.136 426.029,973.063 424.475,973.063 z" fill="#FFFFFF"/>
        <path d="M431.653,998.593 L436.204,998.593 L436.204,989.269 C436.204,988.751 436.278,988.27 436.352,987.863 C436.759,985.828 438.239,984.422 440.422,984.422 C440.977,984.422 441.384,984.496 441.754,984.57 L441.754,980.278 C441.384,980.204 441.125,980.167 440.681,980.167 C438.757,980.167 436.648,981.462 435.76,984.015 L435.612,984.015 L435.464,980.574 L431.505,980.574 C431.616,982.202 431.653,983.941 431.653,986.383 z" fill="#FFFFFF"/>
        <path d="M459.773,990.86 C459.847,990.453 459.921,989.787 459.921,988.936 C459.921,984.977 458.034,980.167 452.151,980.167 C446.379,980.167 443.345,984.866 443.345,989.861 C443.345,995.374 446.786,999 452.632,999 C455.222,999 457.368,998.482 458.922,997.853 L458.256,994.708 C456.887,995.226 455.37,995.522 453.261,995.522 C450.375,995.522 447.822,994.116 447.711,990.86 z M447.711,987.678 C447.896,985.828 449.08,983.275 451.892,983.275 C454.926,983.275 455.666,986.013 455.629,987.678 z" fill="#FFFFFF"/>
        <path d="M476.201,994.671 C475.313,995.041 474.203,995.374 472.612,995.374 C469.504,995.374 467.099,993.265 467.099,989.565 C467.062,986.272 469.134,983.719 472.612,983.719 C474.24,983.719 475.313,984.089 476.053,984.422 L476.867,981.018 C475.831,980.537 474.129,980.167 472.464,980.167 C466.137,980.167 462.437,984.385 462.437,989.787 C462.437,995.374 466.1,999 471.724,999 C473.981,999 475.868,998.482 476.83,998.038 z" fill="#FFFFFF"/>
        <path d="M481.529,977.244 L481.529,980.574 L478.939,980.574 L478.939,983.978 L481.529,983.978 L481.529,992.451 C481.529,994.819 481.973,996.447 482.935,997.483 C483.786,998.408 485.192,999 486.857,999 C488.3,999 489.484,998.778 490.15,998.519 L490.076,995.041 C489.558,995.189 489.151,995.263 488.3,995.263 C486.561,995.263 485.969,994.116 485.969,991.933 L485.969,983.978 L490.298,983.978 L490.298,980.574 L485.969,980.574 L485.969,975.949 z" fill="#FFFFFF"/>
        <path d="M498.327,998.593 L498.327,980.574 L493.739,980.574 L493.739,998.593 z M496.033,973.063 C494.516,973.063 493.48,974.136 493.48,975.542 C493.48,976.911 494.479,977.984 495.996,977.984 C497.587,977.984 498.586,976.911 498.586,975.542 C498.549,974.136 497.587,973.063 496.033,973.063 z" fill="#FFFFFF"/>
        <path d="M511.388,980.167 C505.949,980.167 502.064,983.793 502.064,989.713 C502.064,995.485 505.986,999 511.092,999 C515.68,999 520.342,996.04 520.342,989.417 C520.342,983.941 516.753,980.167 511.388,980.167 z M511.277,983.497 C514.385,983.497 515.643,986.716 515.643,989.528 C515.643,993.154 513.83,995.707 511.24,995.707 C508.465,995.707 506.763,993.08 506.763,989.602 C506.763,986.605 508.058,983.497 511.277,983.497 z" fill="#FFFFFF"/>
        <path d="M524.079,998.593 L528.667,998.593 L528.667,988.011 C528.667,987.493 528.704,986.938 528.852,986.531 C529.333,985.162 530.591,983.867 532.404,983.867 C534.883,983.867 535.845,985.828 535.845,988.418 L535.845,998.593 L540.396,998.593 L540.396,987.9 C540.396,982.202 537.14,980.167 533.995,980.167 C530.998,980.167 529.037,981.869 528.26,983.275 L528.149,983.275 L527.927,980.574 L523.931,980.574 C524.042,982.128 524.079,983.867 524.079,985.939 z" fill="#FFFFFF"/>
      </g>
      <path d="M574,984.92 Q572.203,987.14 569.719,989.519 Q567.234,991.898 564.327,993.853 Q561.42,995.809 558.301,997.025 Q555.183,998.24 552.117,998.24 Q547.148,998.24 547.148,993.8 Q547.148,990.84 548.681,987.405 Q550.214,983.969 552.645,981.062 Q555.077,978.154 557.984,976.199 Q560.891,974.243 563.534,974.243 Q565.014,974.243 565.596,974.772 Q566.177,975.3 566.177,976.146 Q566.177,977.414 565.384,978.894 Q564.591,980.375 563.006,981.696 Q561.42,983.017 558.988,983.916 Q556.557,984.815 553.174,984.815 Q552.645,985.766 552.011,987.827 Q551.377,989.889 551.377,992.003 Q551.377,996.338 555.288,996.338 Q557.72,996.338 560.31,995.175 Q562.9,994.012 565.331,992.268 Q567.763,990.523 569.824,988.462 Q571.886,986.4 573.26,984.603 Q573.471,984.392 573.736,984.497 Q574,984.603 574,984.92 z M562.9,976.674 Q562.9,975.3 561.526,975.3 Q560.468,975.3 559.358,976.093 Q558.248,976.886 557.191,978.154 Q556.134,979.423 555.183,980.903 Q554.231,982.383 553.597,983.757 Q553.808,983.863 554.337,983.916 Q554.865,983.969 555.183,983.969 Q558.248,983.969 560.574,981.802 Q562.9,979.635 562.9,976.674 z" fill="#55FFB6"/>
    </g>
  </g>
</svg>
