<?xml version="1.0" encoding="UTF-8"?>
<!DOCTYPE svg PUBLIC "-//W3C//DTD SVG 1.1//EN" "http://www.w3.org/Graphics/SVG/1.1/DTD/svg11.dtd">
<svg version="1.1" xmlns="http://www.w3.org/2000/svg" xmlns:xlink="http://www.w3.org/1999/xlink" x="0" y="0" width="573.703" height="52.128" viewBox="0, 0, 573.703, 52.128">
  <g id="Layer_1" transform="translate(-111.182, -556.196)">
    <g>
      <g>
        <path d="M140.486,596.66 C137.39,598.1 134.006,598.82 130.406,598.82 C127.598,598.82 125.438,598.172 124.07,597.02 C123.35,596.372 122.918,595.436 122.774,594.644 C137.39,595.076 145.454,591.476 145.454,582.62 C145.454,575.348 139.694,571.316 132.35,571.316 C118.958,571.316 111.182,582.188 111.182,592.988 C111.182,602.852 116.87,608.324 127.238,608.324 C130.838,608.324 136.382,607.82 141.134,605.516 z M134.006,582.548 C134.006,584.78 131.414,585.86 123.926,585.788 C124.286,583.484 126.446,580.172 130.838,580.172 C132.854,580.172 134.006,581.252 134.006,582.476 z" fill="#01BC9D"/>
        <path d="M185.99,596.084 C183.974,596.876 180.446,597.524 177.278,597.524 C168.35,597.524 163.094,592.052 163.094,583.196 C163.094,573.26 169.574,568.868 177.062,568.868 C180.95,568.868 183.902,569.732 186.062,570.596 L188.582,560.372 C186.566,559.292 182.03,558.212 176.414,558.212 C161.942,558.212 149.414,566.924 149.414,584.06 C149.414,596.948 157.406,608.324 175.55,608.324 C181.382,608.324 185.918,607.172 187.79,606.308 z" fill="#030202"/>
        <path d="M224.942,586.94 C224.942,578.084 220.694,571.316 208.526,571.316 C201.182,571.316 196.142,573.332 193.838,574.484 L196.142,582.764 C198.446,581.396 202.406,580.1 206.15,580.1 C210.83,580.1 211.91,581.684 211.91,583.124 L211.91,583.412 C199.886,583.484 191.39,587.66 191.39,597.164 C191.39,603.068 195.854,608.324 203.054,608.324 C206.87,608.324 210.398,607.244 212.918,604.436 L213.134,604.436 L213.854,607.532 L225.518,607.532 C225.086,605.732 224.942,602.42 224.942,598.892 z M212.342,594.212 C212.342,594.86 212.342,595.508 212.198,596.084 C211.622,598.028 209.606,599.324 207.734,599.324 C205.574,599.324 204.062,598.172 204.062,595.94 C204.062,592.844 207.086,591.332 212.342,591.332 z" fill="#030202"/>
        <path d="M232.934,607.532 L245.894,607.532 L245.894,590.036 C245.894,589.172 245.966,588.452 246.11,587.804 C246.758,584.924 249.35,583.34 253.166,583.34 C254.534,583.34 255.542,583.484 256.478,583.7 L256.478,571.532 C255.542,571.316 255.038,571.316 253.886,571.316 C250.862,571.316 246.326,573.116 244.454,578.516 L244.166,578.516 L243.734,572.108 L232.646,572.108 C232.79,575.06 232.934,578.444 232.934,584.06 z" fill="#030202"/>
        <path d="M293.774,594.356 C293.99,593.492 294.278,591.62 294.278,589.46 C294.278,579.74 289.382,571.316 277.934,571.316 C264.902,571.316 259.574,581.9 259.574,590.18 C259.574,601.412 266.63,608.324 279.086,608.324 C283.478,608.324 288.086,607.748 292.334,606.02 L290.678,597.38 C287.51,598.388 284.342,598.748 280.958,598.748 C276.422,598.748 272.318,597.164 271.886,594.356 z M271.742,585.572 C271.958,583.34 273.47,579.812 277.286,579.812 C281.39,579.812 282.326,583.556 282.326,585.572 z" fill="#030202"/>
        <path d="M332.582,594.356 C332.798,593.492 333.086,591.62 333.086,589.46 C333.086,579.74 328.19,571.316 316.742,571.316 C303.71,571.316 298.382,581.9 298.382,590.18 C298.382,601.412 305.438,608.324 317.894,608.324 C322.286,608.324 326.894,607.748 331.142,606.02 L329.486,597.38 C326.318,598.388 323.15,598.748 319.766,598.748 C315.23,598.748 311.126,597.164 310.694,594.356 z M310.55,585.572 C310.766,583.34 312.278,579.812 316.094,579.812 C320.198,579.812 321.134,583.556 321.134,585.572 z" fill="#030202"/>
        <path d="M338.99,607.532 L351.95,607.532 L351.95,590.036 C351.95,589.172 352.022,588.452 352.166,587.804 C352.814,584.924 355.406,583.34 359.222,583.34 C360.59,583.34 361.598,583.484 362.534,583.7 L362.534,571.532 C361.598,571.316 361.094,571.316 359.942,571.316 C356.918,571.316 352.382,573.116 350.51,578.516 L350.222,578.516 L349.79,572.108 L338.702,572.108 C338.846,575.06 338.99,578.444 338.99,584.06 z" fill="#030202"/>
        <path d="M368.438,607.244 C370.958,607.676 375.134,608.108 381.398,608.108 C390.902,608.108 398.822,606.236 404.15,602.06 C408.902,598.388 412.646,591.98 412.646,582.116 C412.646,573.188 409.19,567.14 403.862,563.468 C399.038,560.156 393.206,558.644 383.918,558.644 C378.158,558.644 372.614,559.004 368.438,559.652 z M381.47,568.868 C382.118,568.724 383.342,568.58 385.43,568.58 C393.206,568.58 398.822,573.044 398.822,582.476 C398.822,593.42 392.63,598.1 384.206,597.956 C383.342,597.956 382.118,597.956 381.47,597.812 z" fill="#030202"/>
        <path d="M432.374,607.532 L432.374,572.108 L419.414,572.108 L419.414,607.532 z M425.894,556.196 C421.862,556.196 419.27,558.788 419.27,562.316 C419.27,565.772 421.79,568.508 425.822,568.508 C429.926,568.508 432.518,565.772 432.518,562.316 C432.446,558.788 429.926,556.196 425.894,556.196 z" fill="#030202"/>
        <path d="M440.438,607.532 L453.398,607.532 L453.398,590.036 C453.398,589.172 453.47,588.452 453.614,587.804 C454.262,584.924 456.854,583.34 460.67,583.34 C462.038,583.34 463.046,583.484 463.982,583.7 L463.982,571.532 C463.046,571.316 462.542,571.316 461.39,571.316 C458.366,571.316 453.83,573.116 451.958,578.516 L451.67,578.516 L451.238,572.108 L440.15,572.108 C440.294,575.06 440.438,578.444 440.438,584.06 z" fill="#030202"/>
        <path d="M501.278,594.356 C501.494,593.492 501.782,591.62 501.782,589.46 C501.782,579.74 496.886,571.316 485.438,571.316 C472.406,571.316 467.078,581.9 467.078,590.18 C467.078,601.412 474.134,608.324 486.59,608.324 C490.982,608.324 495.59,607.748 499.838,606.02 L498.182,597.38 C495.014,598.388 491.846,598.748 488.462,598.748 C483.926,598.748 479.822,597.164 479.39,594.356 z M479.246,585.572 C479.462,583.34 480.974,579.812 484.79,579.812 C488.894,579.812 489.83,583.556 489.83,585.572 z" fill="#030202"/>
        <path d="M533.39,597.308 C531.806,597.956 529.934,598.172 527.702,598.172 C523.166,598.172 519.134,595.436 519.134,589.676 C519.134,584.492 522.518,581.18 527.414,581.18 C530.006,581.18 531.734,581.612 532.958,582.116 L534.83,572.54 C532.31,571.676 529.214,571.316 526.622,571.316 C512.798,571.316 505.886,580.028 505.886,590.108 C505.886,601.412 513.302,608.324 525.038,608.324 C528.998,608.324 532.67,607.748 534.83,606.812 z" fill="#030202"/>
        <path d="M543.038,565.412 L543.038,572.108 L538.646,572.108 L538.646,581.612 L543.038,581.612 L543.038,593.996 C543.038,599.396 544.19,602.924 546.35,605.084 C548.222,606.956 551.39,608.324 555.206,608.324 C558.518,608.324 561.398,607.82 562.91,607.316 L562.91,597.452 C561.83,597.74 561.326,597.74 559.814,597.74 C556.718,597.74 555.71,596.012 555.71,591.764 L555.71,581.612 L563.054,581.612 L563.054,572.108 L555.71,572.108 L555.71,562.028 z" fill="#030202"/>
        <path d="M582.062,607.532 L582.062,572.108 L569.102,572.108 L569.102,607.532 z M575.582,556.196 C571.55,556.196 568.958,558.788 568.958,562.316 C568.958,565.772 571.478,568.508 575.51,568.508 C579.614,568.508 582.206,565.772 582.206,562.316 C582.134,558.788 579.614,556.196 575.582,556.196 z" fill="#030202"/>
        <path d="M607.838,571.316 C595.742,571.316 588.326,578.804 588.326,590.036 C588.326,601.556 596.534,608.324 607.118,608.324 C617.054,608.324 626.27,602.348 626.27,589.46 C626.27,578.804 618.926,571.316 607.838,571.316 z M607.406,580.46 C611.294,580.46 612.878,584.924 612.878,589.82 C612.878,595.508 610.934,599.18 607.478,599.18 C603.446,599.18 601.718,595.076 601.718,589.82 C601.718,585.14 603.158,580.46 607.406,580.46 z" fill="#030202"/>
        <path d="M632.534,607.532 L645.494,607.532 L645.494,587.444 C645.494,586.508 645.566,585.5 645.854,584.852 C646.43,583.484 647.582,581.756 650.102,581.756 C653.198,581.756 654.638,584.132 654.638,588.236 L654.638,607.532 L667.598,607.532 L667.598,586.652 C667.598,576.932 663.134,571.316 654.854,571.316 C648.95,571.316 645.566,574.772 644.27,576.644 L643.982,576.644 L643.406,572.108 L632.246,572.108 C632.39,575.348 632.534,579.452 632.534,584.132 z" fill="#030202"/>
      </g>
      <g>
        <path d="M672.84,579.341 L674.193,579.341 L674.193,573.06 L676.327,573.06 L676.327,571.927 L670.728,571.927 L670.728,573.06 L672.84,573.06 z" fill="#000000"/>
        <path d="M683.565,579.341 L684.885,579.341 L684.456,571.927 L682.696,571.927 L681.673,574.897 C681.387,575.766 681.134,576.679 680.936,577.482 L680.903,577.482 C680.716,576.657 680.485,575.777 680.221,574.908 L679.253,571.927 L677.471,571.927 L676.976,579.341 L678.241,579.341 L678.406,576.36 C678.461,575.348 678.505,574.171 678.538,573.192 L678.56,573.192 C678.758,574.127 679.022,575.139 679.308,576.085 L680.298,579.253 L681.343,579.253 L682.421,576.041 C682.751,575.106 683.059,574.105 683.301,573.192 L683.334,573.192 C683.323,574.204 683.378,575.359 683.422,576.316 z" fill="#000000"/>
      </g>
    </g>
  </g>
</svg>
