<?xml version="1.0" encoding="UTF-8"?>
<!DOCTYPE svg PUBLIC "-//W3C//DTD SVG 1.1//EN" "http://www.w3.org/Graphics/SVG/1.1/DTD/svg11.dtd">
<svg version="1.1" xmlns="http://www.w3.org/2000/svg" xmlns:xlink="http://www.w3.org/1999/xlink" x="0" y="0" width="538.416" height="51.336" viewBox="0, 0, 538.416, 51.336">
  <g id="Layer_1" transform="translate(-119.074, -452.988)">
    <g>
      <path d="M146.722,494.028 C143.914,495.396 140.674,496.26 136.858,496.26 C133.834,496.26 131.458,495.324 130.09,493.524 C129.37,492.516 129.01,490.932 129.01,489.924 C143.122,490.284 151.834,487.044 151.834,478.044 C151.834,471.492 146.722,467.532 139.594,467.532 C126.85,467.532 119.074,478.692 119.074,489.42 C119.074,498.564 124.258,504.324 134.338,504.324 C138.226,504.324 143.338,503.604 147.442,501.516 z M142.114,478.116 C142.114,481.284 138.082,482.436 130.018,482.364 C130.738,479.052 133.474,475.092 138.298,475.092 C140.674,475.092 142.114,476.316 142.114,478.044 z" fill="#01BC9D"/>
      <path d="M191.866,493.596 C189.706,494.46 186.034,495.18 182.722,495.18 C172.93,495.18 167.17,489.06 167.17,479.34 C167.17,468.54 173.938,463.284 182.65,463.284 C186.538,463.284 189.634,464.148 191.866,465.084 L194.098,456.372 C192.154,455.364 187.834,454.212 182.146,454.212 C167.458,454.212 155.65,463.428 155.65,479.988 C155.65,493.812 164.29,504.324 181.066,504.324 C186.97,504.324 191.506,503.172 193.522,502.164 z" fill="#030202"/>
      <path d="M229.018,482.724 C229.018,474.444 225.274,467.532 213.538,467.532 C207.13,467.532 202.306,469.26 199.858,470.628 L201.874,477.684 C204.178,476.244 207.994,475.02 211.594,475.02 C216.994,475.02 218.002,477.684 218.002,479.556 L218.002,480.06 C205.546,479.988 197.338,484.38 197.338,493.524 C197.338,499.14 201.586,504.324 208.714,504.324 C212.89,504.324 216.49,502.812 218.794,500.004 L219.01,500.004 L219.658,503.532 L229.522,503.532 C229.162,501.588 229.018,498.348 229.018,494.964 z M218.362,490.716 C218.362,491.364 218.29,492.012 218.146,492.588 C217.426,494.82 215.194,496.62 212.458,496.62 C210.01,496.62 208.138,495.252 208.138,492.444 C208.138,488.196 212.602,486.828 218.362,486.9 z" fill="#030202"/>
      <path d="M237.658,503.532 L248.602,503.532 L248.602,485.676 C248.602,484.812 248.674,483.948 248.818,483.228 C249.538,479.844 252.274,477.684 256.306,477.684 C257.53,477.684 258.466,477.828 259.258,478.044 L259.258,467.676 C258.466,467.532 257.962,467.532 256.954,467.532 C253.57,467.532 249.25,469.692 247.45,474.804 L247.162,474.804 L246.802,468.324 L237.37,468.324 C237.514,471.348 237.658,474.732 237.658,479.916 z" fill="#030202"/>
      <path d="M295.546,489.42 C295.69,488.628 295.906,486.972 295.906,485.1 C295.906,476.388 291.586,467.532 280.21,467.532 C267.97,467.532 262.426,477.396 262.426,486.324 C262.426,497.34 269.266,504.324 281.218,504.324 C285.97,504.324 290.362,503.532 293.962,502.092 L292.522,494.676 C289.57,495.612 286.546,496.116 282.802,496.116 C277.69,496.116 273.226,493.956 272.866,489.42 z M272.794,481.932 C273.082,478.98 274.954,474.804 279.562,474.804 C284.602,474.804 285.754,479.268 285.754,481.932 z" fill="#030202"/>
      <path d="M333.562,489.42 C333.706,488.628 333.922,486.972 333.922,485.1 C333.922,476.388 329.602,467.532 318.226,467.532 C305.986,467.532 300.442,477.396 300.442,486.324 C300.442,497.34 307.282,504.324 319.234,504.324 C323.986,504.324 328.378,503.532 331.978,502.092 L330.538,494.676 C327.586,495.612 324.562,496.116 320.818,496.116 C315.706,496.116 311.242,493.956 310.882,489.42 z M310.81,481.932 C311.098,478.98 312.97,474.804 317.578,474.804 C322.618,474.804 323.77,479.268 323.77,481.932 z" fill="#030202"/>
      <path d="M340.474,503.532 L351.418,503.532 L351.418,485.676 C351.418,484.812 351.49,483.948 351.634,483.228 C352.354,479.844 355.09,477.684 359.122,477.684 C360.346,477.684 361.282,477.828 362.074,478.044 L362.074,467.676 C361.282,467.532 360.778,467.532 359.77,467.532 C356.386,467.532 352.066,469.692 350.266,474.804 L349.978,474.804 L349.618,468.324 L340.186,468.324 C340.33,471.348 340.474,474.732 340.474,479.916 z" fill="#030202"/>
      <path d="M368.194,503.316 C370.93,503.676 374.962,504.036 380.65,504.036 C390.154,504.036 397.93,502.02 403.042,497.772 C407.722,493.812 411.106,487.404 411.106,478.116 C411.106,469.548 407.938,463.572 402.898,459.828 C398.218,456.3 392.242,454.644 383.026,454.644 C377.482,454.644 372.226,455.004 368.194,455.652 z M379.21,463.5 C380.146,463.284 381.73,463.068 384.178,463.068 C393.61,463.068 399.514,468.396 399.442,478.476 C399.442,490.068 392.962,495.54 383.026,495.468 C381.658,495.468 380.146,495.468 379.21,495.252 z" fill="#030202"/>
      <path d="M429.178,503.532 L429.178,468.324 L418.234,468.324 L418.234,503.532 z M423.706,452.988 C420.178,452.988 417.874,455.364 417.946,458.532 C417.874,461.556 420.178,464.004 423.634,464.004 C427.234,464.004 429.538,461.556 429.538,458.532 C429.466,455.364 427.234,452.988 423.706,452.988 z" fill="#030202"/>
      <path d="M437.962,503.532 L448.906,503.532 L448.906,485.676 C448.906,484.812 448.978,483.948 449.122,483.228 C449.842,479.844 452.578,477.684 456.61,477.684 C457.834,477.684 458.77,477.828 459.562,478.044 L459.562,467.676 C458.77,467.532 458.266,467.532 457.258,467.532 C453.874,467.532 449.554,469.692 447.754,474.804 L447.466,474.804 L447.106,468.324 L437.674,468.324 C437.818,471.348 437.962,474.732 437.962,479.916 z" fill="#030202"/>
      <path d="M495.85,489.42 C495.994,488.628 496.21,486.972 496.21,485.1 C496.21,476.388 491.89,467.532 480.514,467.532 C468.274,467.532 462.73,477.396 462.73,486.324 C462.73,497.34 469.57,504.324 481.522,504.324 C486.274,504.324 490.666,503.532 494.266,502.092 L492.826,494.676 C489.874,495.612 486.85,496.116 483.106,496.116 C477.994,496.116 473.53,493.956 473.17,489.42 z M473.098,481.932 C473.386,478.98 475.258,474.804 479.866,474.804 C484.906,474.804 486.058,479.268 486.058,481.932 z" fill="#030202"/>
      <path d="M527.89,494.532 C526.234,495.252 524.218,495.684 521.626,495.684 C516.298,495.684 511.978,492.3 511.978,485.82 C511.906,480.06 515.65,475.956 521.41,475.956 C524.29,475.956 526.234,476.46 527.53,477.036 L529.258,468.9 C526.954,468.036 523.786,467.532 520.906,467.532 C507.802,467.532 500.746,475.956 500.746,486.252 C500.746,497.34 508.018,504.324 519.394,504.324 C523.57,504.324 527.242,503.532 529.186,502.668 z" fill="#030202"/>
      <path d="M537.898,461.7 L537.898,468.324 L533.218,468.324 L533.218,476.388 L537.898,476.388 L537.898,490.788 C537.898,495.756 538.906,499.14 540.922,501.228 C542.65,503.028 545.602,504.324 549.13,504.324 C552.226,504.324 554.818,503.892 556.258,503.316 L556.186,495.036 C555.106,495.252 554.458,495.324 552.946,495.324 C549.634,495.324 548.626,493.38 548.626,489.132 L548.626,476.388 L556.474,476.388 L556.474,468.324 L548.626,468.324 L548.626,458.748 z" fill="#030202"/>
      <path d="M573.754,503.532 L573.754,468.324 L562.81,468.324 L562.81,503.532 z M568.282,452.988 C564.754,452.988 562.45,455.364 562.522,458.532 C562.45,461.556 564.754,464.004 568.21,464.004 C571.81,464.004 574.114,461.556 574.114,458.532 C574.042,455.364 571.81,452.988 568.282,452.988 z" fill="#030202"/>
      <path d="M599.314,467.532 C588.01,467.532 580.522,474.804 580.522,486.18 C580.522,497.556 588.442,504.324 598.738,504.324 C608.17,504.324 617.314,498.42 617.314,485.532 C617.314,474.948 610.114,467.532 599.314,467.532 z M599.026,475.308 C603.994,475.308 606.01,480.636 606.01,485.892 C606.01,492.228 603.274,496.476 599.026,496.476 C594.346,496.476 591.826,491.94 591.826,485.892 C591.826,480.708 593.77,475.308 599.026,475.308 z" fill="#030202"/>
      <path d="M624.082,503.532 L635.026,503.532 L635.026,483.228 C635.026,482.22 635.17,481.212 635.458,480.492 C636.178,478.476 637.978,476.388 641.002,476.388 C644.962,476.388 646.546,479.484 646.546,484.02 L646.546,503.532 L657.49,503.532 L657.49,482.652 C657.49,472.284 652.09,467.532 644.89,467.532 C639.058,467.532 635.458,470.916 634.018,473.148 L633.802,473.148 L633.298,468.324 L623.794,468.324 C623.938,471.42 624.082,475.164 624.082,479.556 z" fill="#030202"/>
    </g>
  </g>
</svg>
