<?xml version="1.0" encoding="UTF-8"?>
<!DOCTYPE svg PUBLIC "-//W3C//DTD SVG 1.1//EN" "http://www.w3.org/Graphics/SVG/1.1/DTD/svg11.dtd">
<svg version="1.1" xmlns="http://www.w3.org/2000/svg" xmlns:xlink="http://www.w3.org/1999/xlink" x="0" y="0" width="544.095" height="57.86" viewBox="0, 0, 544.095, 57.86">
  <g id="Layer_1" transform="translate(-119.085, -560.061)">
    <g>
      <path d="M183.006,586.213 Q178.728,591.498 172.814,597.16 Q166.9,602.822 159.98,607.478 Q153.059,612.134 145.635,615.028 Q138.211,617.922 130.913,617.922 Q119.085,617.922 119.085,607.352 Q119.085,600.306 122.734,592.127 Q126.383,583.948 132.172,577.028 Q137.96,570.107 144.88,565.452 Q151.801,560.796 158.092,560.796 Q161.615,560.796 162.999,562.054 Q164.383,563.312 164.383,565.326 Q164.383,568.346 162.496,571.869 Q160.609,575.392 156.834,578.538 Q153.059,581.683 147.271,583.822 Q141.483,585.962 133.43,585.962 Q132.172,588.226 130.662,593.134 Q129.152,598.041 129.152,603.074 Q129.152,613.392 138.463,613.392 Q144.251,613.392 150.417,610.624 Q156.582,607.856 162.37,603.703 Q168.158,599.551 173.066,594.644 Q177.973,589.736 181.244,585.458 Q181.748,584.955 182.377,585.207 Q183.006,585.458 183.006,586.213 z M156.582,566.584 Q156.582,563.312 153.311,563.312 Q150.794,563.312 148.152,565.2 Q145.509,567.087 142.993,570.107 Q140.476,573.127 138.211,576.65 Q135.946,580.173 134.436,583.445 Q134.94,583.697 136.198,583.822 Q137.456,583.948 138.211,583.948 Q145.509,583.948 151.046,578.789 Q156.582,573.63 156.582,566.584 z" fill="#00BC9C"/>
      <g>
        <path d="M213.005,603.981 C210.629,605.205 205.949,606.069 201.989,606.069 C191.261,606.069 184.925,598.365 184.925,588.141 C184.925,577.845 191.405,569.925 201.773,569.925 C205.373,569.925 208.829,570.429 212.645,572.589 L213.365,564.093 C209.693,562.653 205.301,562.005 201.989,562.005 C184.925,562.005 174.413,571.653 174.413,588.861 C174.413,605.853 185.717,613.989 201.989,613.989 C205.805,613.989 209.765,613.269 213.437,612.405 z" fill="#030202"/>
        <path d="M220.933,586.269 C224.173,583.821 228.277,582.237 232.381,582.237 C238.069,582.237 240.733,584.253 240.733,590.229 L235.405,590.229 C231.373,590.229 226.621,590.589 222.949,592.389 C219.277,594.189 216.613,597.429 216.613,602.973 C216.613,610.029 223.021,613.989 229.573,613.989 C233.965,613.989 238.789,611.685 241.021,607.581 L241.165,607.581 C241.237,608.733 241.237,611.181 241.597,613.125 L250.093,613.125 C249.877,610.245 249.733,607.653 249.661,604.845 C249.589,602.109 249.517,599.301 249.517,595.557 L249.517,590.805 C249.517,579.861 244.837,575.181 233.533,575.181 C229.429,575.181 224.389,576.261 220.645,577.989 z M225.829,602.397 C225.829,596.709 232.237,595.989 236.557,595.989 L240.733,595.989 C240.733,598.869 240.301,601.533 238.717,603.621 C237.205,605.637 234.901,606.933 231.949,606.933 C228.493,606.933 225.829,605.565 225.829,602.397 z" fill="#030202"/>
        <path d="M255.237,613.125 L264.885,613.125 L264.885,599.517 C264.885,594.189 264.885,584.397 272.733,584.397 C274.461,584.397 276.189,584.685 277.053,585.189 L277.053,575.469 C276.045,575.181 275.037,575.181 274.101,575.181 C268.341,575.181 264.381,581.013 263.949,584.469 L263.805,584.469 L263.805,576.045 L255.237,576.045 z" fill="#030202"/>
        <path d="M287.869,590.949 C288.301,585.981 291.037,582.237 296.437,582.237 C301.837,582.237 303.997,586.269 304.285,590.949 z M310.765,603.189 C307.165,605.205 303.133,606.933 298.453,606.933 C292.477,606.933 288.301,603.549 287.869,597.573 L313.501,597.573 C313.501,584.613 309.613,575.181 295.861,575.181 C284.341,575.181 278.653,584.037 278.653,594.765 C278.653,606.933 285.781,613.989 298.021,613.989 C303.205,613.989 307.237,612.981 310.765,611.037 z" fill="#030202"/>
        <path d="M326.901,590.949 C327.333,585.981 330.069,582.237 335.469,582.237 C340.869,582.237 343.029,586.269 343.317,590.949 z M349.797,603.189 C346.197,605.205 342.165,606.933 337.485,606.933 C331.509,606.933 327.333,603.549 326.901,597.573 L352.533,597.573 C352.533,584.613 348.645,575.181 334.893,575.181 C323.373,575.181 317.685,584.037 317.685,594.765 C317.685,606.933 324.813,613.989 337.053,613.989 C342.237,613.989 346.269,612.981 349.797,611.037 z" fill="#030202"/>
        <path d="M357.309,613.125 L366.957,613.125 L366.957,599.517 C366.957,594.189 366.957,584.397 374.805,584.397 C376.533,584.397 378.261,584.685 379.125,585.189 L379.125,575.469 C378.117,575.181 377.109,575.181 376.173,575.181 C370.413,575.181 366.453,581.013 366.021,584.469 L365.877,584.469 L365.877,576.045 L357.309,576.045 z" fill="#030202"/>
        <path d="M383.965,613.125 L397.717,613.125 C413.125,613.125 426.733,607.941 426.733,587.997 C426.733,568.053 413.125,562.869 397.717,562.869 L383.965,562.869 z M394.045,570.789 L399.661,570.789 C408.085,570.789 416.221,577.053 416.221,587.997 C416.221,598.941 408.085,605.205 399.661,605.205 L394.045,605.205 z" fill="#030202"/>
        <path d="M432.301,613.125 L441.949,613.125 L441.949,576.045 L432.301,576.045 z M432.301,569.277 L441.949,569.277 L441.949,560.061 L432.301,560.061 z" fill="#030202"/>
        <path d="M448.317,613.125 L457.965,613.125 L457.965,599.517 C457.965,594.189 457.965,584.397 465.813,584.397 C467.541,584.397 469.269,584.685 470.133,585.189 L470.133,575.469 C469.125,575.181 468.117,575.181 467.181,575.181 C461.421,575.181 457.461,581.013 457.029,584.469 L456.885,584.469 L456.885,576.045 L448.317,576.045 z" fill="#030202"/>
        <path d="M480.949,590.949 C481.381,585.981 484.117,582.237 489.517,582.237 C494.917,582.237 497.077,586.269 497.365,590.949 z M503.845,603.189 C500.245,605.205 496.213,606.933 491.533,606.933 C485.557,606.933 481.381,603.549 480.949,597.573 L506.581,597.573 C506.581,584.613 502.693,575.181 488.941,575.181 C477.421,575.181 471.733,584.037 471.733,594.765 C471.733,606.933 478.861,613.989 491.101,613.989 C496.285,613.989 500.317,612.981 503.845,611.037 z" fill="#030202"/>
        <path d="M538.053,576.405 C535.389,575.613 532.581,575.181 528.693,575.181 C517.101,575.181 510.765,583.677 510.765,594.405 C510.765,605.709 516.885,613.989 529.053,613.989 C533.013,613.989 535.893,613.629 538.701,612.765 L538.269,604.773 C536.613,605.493 533.589,606.501 530.853,606.501 C524.085,606.501 520.845,601.245 520.845,594.405 C520.845,587.421 524.661,582.669 530.637,582.669 C533.589,582.669 535.461,583.245 537.189,584.037 z" fill="#030202"/>
        <path d="M548.277,601.965 C548.277,609.309 552.453,613.989 560.013,613.989 C562.893,613.989 565.125,613.701 567.141,613.125 L566.853,605.493 C565.845,606.141 564.189,606.501 562.461,606.501 C558.789,606.501 557.925,603.549 557.925,600.381 L557.925,583.101 L566.493,583.101 L566.493,576.045 L557.925,576.045 L557.925,565.533 L548.277,568.629 L548.277,576.045 L541.149,576.045 L541.149,583.101 L548.277,583.101 z" fill="#030202"/>
        <path d="M571.333,613.125 L580.981,613.125 L580.981,576.045 L571.333,576.045 z M571.333,569.277 L580.981,569.277 L580.981,560.061 L571.333,560.061 z" fill="#030202"/>
        <path d="M585.757,594.837 C585.757,605.493 592.885,613.989 605.125,613.989 C617.437,613.989 624.565,605.493 624.565,594.837 C624.565,582.597 616.141,575.181 605.125,575.181 C594.181,575.181 585.757,582.597 585.757,594.837 z M595.837,593.685 C595.837,588.141 598.861,582.669 605.125,582.669 C611.461,582.669 614.485,587.997 614.485,593.685 C614.485,599.877 612.541,606.501 605.125,606.501 C597.781,606.501 595.837,599.805 595.837,593.685 z" fill="#030202"/>
        <path d="M629.125,613.125 L638.773,613.125 L638.773,594.981 C638.773,590.229 640.285,582.669 647.269,582.669 C653.461,582.669 653.533,588.789 653.533,593.325 L653.533,613.125 L663.181,613.125 L663.181,589.725 C663.181,581.373 659.365,575.181 650.581,575.181 C645.541,575.181 641.437,576.837 638.413,581.085 L638.269,581.085 L638.269,576.045 L629.125,576.045 z" fill="#030202"/>
      </g>
    </g>
  </g>
</svg>
