<?xml version="1.0" encoding="UTF-8"?>
<!DOCTYPE svg PUBLIC "-//W3C//DTD SVG 1.1//EN" "http://www.w3.org/Graphics/SVG/1.1/DTD/svg11.dtd">
<svg version="1.1" xmlns="http://www.w3.org/2000/svg" xmlns:xlink="http://www.w3.org/1999/xlink" x="0" y="0" width="532.095" height="54.861" viewBox="0, 0, 532.095, 54.861">
  <g id="Layer_1" transform="translate(-134.085, -570.061)">
    <g>
      <path d="M181.222,601.539 Q178.067,605.436 173.706,609.612 Q169.345,613.787 164.242,617.22 Q159.138,620.654 153.664,622.788 Q148.189,624.922 142.808,624.922 Q134.085,624.922 134.085,617.128 Q134.085,611.931 136.776,605.9 Q139.467,599.869 143.735,594.766 Q148.004,589.662 153.107,586.229 Q158.21,582.796 162.85,582.796 Q165.448,582.796 166.469,583.724 Q167.489,584.652 167.489,586.136 Q167.489,588.363 166.097,590.961 Q164.706,593.559 161.922,595.879 Q159.138,598.199 154.87,599.776 Q150.602,601.354 144.663,601.354 Q143.735,603.024 142.622,606.643 Q141.508,610.261 141.508,613.973 Q141.508,621.581 148.375,621.581 Q152.643,621.581 157.19,619.54 Q161.736,617.499 166.005,614.437 Q170.273,611.375 173.892,607.756 Q177.51,604.137 179.923,600.982 Q180.294,600.611 180.758,600.797 Q181.222,600.982 181.222,601.539 z M161.736,587.064 Q161.736,584.652 159.324,584.652 Q157.468,584.652 155.52,586.044 Q153.571,587.435 151.715,589.662 Q149.859,591.889 148.189,594.487 Q146.519,597.085 145.406,599.498 Q145.777,599.683 146.705,599.776 Q147.633,599.869 148.189,599.869 Q153.571,599.869 157.654,596.065 Q161.736,592.26 161.736,587.064 z" fill="#00BC9C"/>
      <g>
        <path d="M216.005,613.981 C213.629,615.205 208.949,616.069 204.989,616.069 C194.261,616.069 187.925,608.365 187.925,598.141 C187.925,587.845 194.405,579.925 204.773,579.925 C208.373,579.925 211.829,580.429 215.645,582.589 L216.365,574.093 C212.693,572.653 208.301,572.005 204.989,572.005 C187.925,572.005 177.413,581.653 177.413,598.861 C177.413,615.853 188.717,623.989 204.989,623.989 C208.805,623.989 212.765,623.269 216.437,622.405 z" fill="#030202"/>
        <path d="M223.933,596.269 C227.173,593.821 231.277,592.237 235.381,592.237 C241.069,592.237 243.733,594.253 243.733,600.229 L238.405,600.229 C234.373,600.229 229.621,600.589 225.949,602.389 C222.277,604.189 219.613,607.429 219.613,612.973 C219.613,620.029 226.021,623.989 232.573,623.989 C236.965,623.989 241.789,621.685 244.021,617.581 L244.165,617.581 C244.237,618.733 244.237,621.181 244.597,623.125 L253.093,623.125 C252.877,620.245 252.733,617.653 252.661,614.845 C252.589,612.109 252.517,609.301 252.517,605.557 L252.517,600.805 C252.517,589.861 247.837,585.181 236.533,585.181 C232.429,585.181 227.389,586.261 223.645,587.989 z M228.829,612.397 C228.829,606.709 235.237,605.989 239.557,605.989 L243.733,605.989 C243.733,608.869 243.301,611.533 241.717,613.621 C240.205,615.637 237.901,616.933 234.949,616.933 C231.493,616.933 228.829,615.565 228.829,612.397 z" fill="#030202"/>
        <path d="M258.237,623.125 L267.885,623.125 L267.885,609.517 C267.885,604.189 267.885,594.397 275.733,594.397 C277.461,594.397 279.189,594.685 280.053,595.189 L280.053,585.469 C279.045,585.181 278.037,585.181 277.101,585.181 C271.341,585.181 267.381,591.013 266.949,594.469 L266.805,594.469 L266.805,586.045 L258.237,586.045 z" fill="#030202"/>
        <path d="M290.869,600.949 C291.301,595.981 294.037,592.237 299.437,592.237 C304.837,592.237 306.997,596.269 307.285,600.949 z M313.765,613.189 C310.165,615.205 306.133,616.933 301.453,616.933 C295.477,616.933 291.301,613.549 290.869,607.573 L316.501,607.573 C316.501,594.613 312.613,585.181 298.861,585.181 C287.341,585.181 281.653,594.037 281.653,604.765 C281.653,616.933 288.781,623.989 301.021,623.989 C306.205,623.989 310.237,622.981 313.765,621.037 z" fill="#030202"/>
        <path d="M329.901,600.949 C330.333,595.981 333.069,592.237 338.469,592.237 C343.869,592.237 346.029,596.269 346.317,600.949 z M352.797,613.189 C349.197,615.205 345.165,616.933 340.485,616.933 C334.509,616.933 330.333,613.549 329.901,607.573 L355.533,607.573 C355.533,594.613 351.645,585.181 337.893,585.181 C326.373,585.181 320.685,594.037 320.685,604.765 C320.685,616.933 327.813,623.989 340.053,623.989 C345.237,623.989 349.269,622.981 352.797,621.037 z" fill="#030202"/>
        <path d="M360.309,623.125 L369.957,623.125 L369.957,609.517 C369.957,604.189 369.957,594.397 377.805,594.397 C379.533,594.397 381.261,594.685 382.125,595.189 L382.125,585.469 C381.117,585.181 380.109,585.181 379.173,585.181 C373.413,585.181 369.453,591.013 369.021,594.469 L368.877,594.469 L368.877,586.045 L360.309,586.045 z" fill="#030202"/>
        <path d="M386.965,623.125 L400.717,623.125 C416.125,623.125 429.733,617.941 429.733,597.997 C429.733,578.053 416.125,572.869 400.717,572.869 L386.965,572.869 z M397.045,580.789 L402.661,580.789 C411.085,580.789 419.221,587.053 419.221,597.997 C419.221,608.941 411.085,615.205 402.661,615.205 L397.045,615.205 z" fill="#030202"/>
        <path d="M435.301,623.125 L444.949,623.125 L444.949,586.045 L435.301,586.045 z M435.301,579.277 L444.949,579.277 L444.949,570.061 L435.301,570.061 z" fill="#030202"/>
        <path d="M451.317,623.125 L460.965,623.125 L460.965,609.517 C460.965,604.189 460.965,594.397 468.813,594.397 C470.541,594.397 472.269,594.685 473.133,595.189 L473.133,585.469 C472.125,585.181 471.117,585.181 470.181,585.181 C464.421,585.181 460.461,591.013 460.029,594.469 L459.885,594.469 L459.885,586.045 L451.317,586.045 z" fill="#030202"/>
        <path d="M483.949,600.949 C484.381,595.981 487.117,592.237 492.517,592.237 C497.917,592.237 500.077,596.269 500.365,600.949 z M506.845,613.189 C503.245,615.205 499.213,616.933 494.533,616.933 C488.557,616.933 484.381,613.549 483.949,607.573 L509.581,607.573 C509.581,594.613 505.693,585.181 491.941,585.181 C480.421,585.181 474.733,594.037 474.733,604.765 C474.733,616.933 481.861,623.989 494.101,623.989 C499.285,623.989 503.317,622.981 506.845,621.037 z" fill="#030202"/>
        <path d="M541.053,586.405 C538.389,585.613 535.581,585.181 531.693,585.181 C520.101,585.181 513.765,593.677 513.765,604.405 C513.765,615.709 519.885,623.989 532.053,623.989 C536.013,623.989 538.893,623.629 541.701,622.765 L541.269,614.773 C539.613,615.493 536.589,616.501 533.853,616.501 C527.085,616.501 523.845,611.245 523.845,604.405 C523.845,597.421 527.661,592.669 533.637,592.669 C536.589,592.669 538.461,593.245 540.189,594.037 z" fill="#030202"/>
        <path d="M551.277,611.965 C551.277,619.309 555.453,623.989 563.013,623.989 C565.893,623.989 568.125,623.701 570.141,623.125 L569.853,615.493 C568.845,616.141 567.189,616.501 565.461,616.501 C561.789,616.501 560.925,613.549 560.925,610.381 L560.925,593.101 L569.493,593.101 L569.493,586.045 L560.925,586.045 L560.925,575.533 L551.277,578.629 L551.277,586.045 L544.149,586.045 L544.149,593.101 L551.277,593.101 z" fill="#030202"/>
        <path d="M574.333,623.125 L583.981,623.125 L583.981,586.045 L574.333,586.045 z M574.333,579.277 L583.981,579.277 L583.981,570.061 L574.333,570.061 z" fill="#030202"/>
        <path d="M588.757,604.837 C588.757,615.493 595.885,623.989 608.125,623.989 C620.437,623.989 627.565,615.493 627.565,604.837 C627.565,592.597 619.141,585.181 608.125,585.181 C597.181,585.181 588.757,592.597 588.757,604.837 z M598.837,603.685 C598.837,598.141 601.861,592.669 608.125,592.669 C614.461,592.669 617.485,597.997 617.485,603.685 C617.485,609.877 615.541,616.501 608.125,616.501 C600.781,616.501 598.837,609.805 598.837,603.685 z" fill="#030202"/>
        <path d="M632.125,623.125 L641.773,623.125 L641.773,604.981 C641.773,600.229 643.285,592.669 650.269,592.669 C656.461,592.669 656.533,598.789 656.533,603.325 L656.533,623.125 L666.181,623.125 L666.181,599.725 C666.181,591.373 662.365,585.181 653.581,585.181 C648.541,585.181 644.437,586.837 641.413,591.085 L641.269,591.085 L641.269,586.045 L632.125,586.045 z" fill="#030202"/>
      </g>
    </g>
  </g>
</svg>
