<?xml version="1.0" encoding="UTF-8"?>
<!DOCTYPE svg PUBLIC "-//W3C//DTD SVG 1.1//EN" "http://www.w3.org/Graphics/SVG/1.1/DTD/svg11.dtd">
<svg version="1.1" xmlns="http://www.w3.org/2000/svg" xmlns:xlink="http://www.w3.org/1999/xlink" x="0" y="0" width="538.416" height="51.336" viewBox="0, 0, 538.416, 51.336">
  <g id="Layer_1" transform="translate(-140.074, -835.988)">
    <g>
      <path d="M167.722,877.028 C164.914,878.396 161.674,879.26 157.858,879.26 C154.834,879.26 152.458,878.324 151.09,876.524 C150.37,875.516 150.01,873.932 150.01,872.924 C164.122,873.284 172.834,870.044 172.834,861.044 C172.834,854.492 167.722,850.532 160.594,850.532 C147.85,850.532 140.074,861.692 140.074,872.42 C140.074,881.564 145.258,887.324 155.338,887.324 C159.226,887.324 164.338,886.604 168.442,884.516 z M163.114,861.116 C163.114,864.284 159.082,865.436 151.018,865.364 C151.738,862.052 154.474,858.092 159.298,858.092 C161.674,858.092 163.114,859.316 163.114,861.044 z" fill="#01BC9D"/>
      <path d="M212.866,876.596 C210.706,877.46 207.034,878.18 203.722,878.18 C193.93,878.18 188.17,872.06 188.17,862.34 C188.17,851.54 194.938,846.284 203.65,846.284 C207.538,846.284 210.634,847.148 212.866,848.084 L215.098,839.372 C213.154,838.364 208.834,837.212 203.146,837.212 C188.458,837.212 176.65,846.428 176.65,862.988 C176.65,876.812 185.29,887.324 202.066,887.324 C207.97,887.324 212.506,886.172 214.522,885.164 z" fill="#FFFFFF"/>
      <path d="M250.018,865.724 C250.018,857.444 246.274,850.532 234.538,850.532 C228.13,850.532 223.306,852.26 220.858,853.628 L222.874,860.684 C225.178,859.244 228.994,858.02 232.594,858.02 C237.994,858.02 239.002,860.684 239.002,862.556 L239.002,863.06 C226.546,862.988 218.338,867.38 218.338,876.524 C218.338,882.14 222.586,887.324 229.714,887.324 C233.89,887.324 237.49,885.812 239.794,883.004 L240.01,883.004 L240.658,886.532 L250.522,886.532 C250.162,884.588 250.018,881.348 250.018,877.964 z M239.362,873.716 C239.362,874.364 239.29,875.012 239.146,875.588 C238.426,877.82 236.194,879.62 233.458,879.62 C231.01,879.62 229.138,878.252 229.138,875.444 C229.138,871.196 233.602,869.828 239.362,869.9 z" fill="#FFFFFF"/>
      <path d="M258.658,886.532 L269.602,886.532 L269.602,868.676 C269.602,867.812 269.674,866.948 269.818,866.228 C270.538,862.844 273.274,860.684 277.306,860.684 C278.53,860.684 279.466,860.828 280.258,861.044 L280.258,850.676 C279.466,850.532 278.962,850.532 277.954,850.532 C274.57,850.532 270.25,852.692 268.45,857.804 L268.162,857.804 L267.802,851.324 L258.37,851.324 C258.514,854.348 258.658,857.732 258.658,862.916 z" fill="#FFFFFF"/>
      <path d="M316.546,872.42 C316.69,871.628 316.906,869.972 316.906,868.1 C316.906,859.388 312.586,850.532 301.21,850.532 C288.97,850.532 283.426,860.396 283.426,869.324 C283.426,880.34 290.266,887.324 302.218,887.324 C306.97,887.324 311.362,886.532 314.962,885.092 L313.522,877.676 C310.57,878.612 307.546,879.116 303.802,879.116 C298.69,879.116 294.226,876.956 293.866,872.42 z M293.794,864.932 C294.082,861.98 295.954,857.804 300.562,857.804 C305.602,857.804 306.754,862.268 306.754,864.932 z" fill="#FFFFFF"/>
      <path d="M354.562,872.42 C354.706,871.628 354.922,869.972 354.922,868.1 C354.922,859.388 350.602,850.532 339.226,850.532 C326.986,850.532 321.442,860.396 321.442,869.324 C321.442,880.34 328.282,887.324 340.234,887.324 C344.986,887.324 349.378,886.532 352.978,885.092 L351.538,877.676 C348.586,878.612 345.562,879.116 341.818,879.116 C336.706,879.116 332.242,876.956 331.882,872.42 z M331.81,864.932 C332.098,861.98 333.97,857.804 338.578,857.804 C343.618,857.804 344.77,862.268 344.77,864.932 z" fill="#FFFFFF"/>
      <path d="M361.474,886.532 L372.418,886.532 L372.418,868.676 C372.418,867.812 372.49,866.948 372.634,866.228 C373.354,862.844 376.09,860.684 380.122,860.684 C381.346,860.684 382.282,860.828 383.074,861.044 L383.074,850.676 C382.282,850.532 381.778,850.532 380.77,850.532 C377.386,850.532 373.066,852.692 371.266,857.804 L370.978,857.804 L370.618,851.324 L361.186,851.324 C361.33,854.348 361.474,857.732 361.474,862.916 z" fill="#FFFFFF"/>
      <path d="M389.194,886.316 C391.93,886.676 395.962,887.036 401.65,887.036 C411.154,887.036 418.93,885.02 424.042,880.772 C428.722,876.812 432.106,870.404 432.106,861.116 C432.106,852.548 428.938,846.572 423.898,842.828 C419.218,839.3 413.242,837.644 404.026,837.644 C398.482,837.644 393.226,838.004 389.194,838.652 z M400.21,846.5 C401.146,846.284 402.73,846.068 405.178,846.068 C414.61,846.068 420.514,851.396 420.442,861.476 C420.442,873.068 413.962,878.54 404.026,878.468 C402.658,878.468 401.146,878.468 400.21,878.252 z" fill="#FFFFFF"/>
      <path d="M450.178,886.532 L450.178,851.324 L439.234,851.324 L439.234,886.532 z M444.706,835.988 C441.178,835.988 438.874,838.364 438.946,841.532 C438.874,844.556 441.178,847.004 444.634,847.004 C448.234,847.004 450.538,844.556 450.538,841.532 C450.466,838.364 448.234,835.988 444.706,835.988 z" fill="#FFFFFF"/>
      <path d="M458.962,886.532 L469.906,886.532 L469.906,868.676 C469.906,867.812 469.978,866.948 470.122,866.228 C470.842,862.844 473.578,860.684 477.61,860.684 C478.834,860.684 479.77,860.828 480.562,861.044 L480.562,850.676 C479.77,850.532 479.266,850.532 478.258,850.532 C474.874,850.532 470.554,852.692 468.754,857.804 L468.466,857.804 L468.106,851.324 L458.674,851.324 C458.818,854.348 458.962,857.732 458.962,862.916 z" fill="#FFFFFF"/>
      <path d="M516.85,872.42 C516.994,871.628 517.21,869.972 517.21,868.1 C517.21,859.388 512.89,850.532 501.514,850.532 C489.274,850.532 483.73,860.396 483.73,869.324 C483.73,880.34 490.57,887.324 502.522,887.324 C507.274,887.324 511.666,886.532 515.266,885.092 L513.826,877.676 C510.874,878.612 507.85,879.116 504.106,879.116 C498.994,879.116 494.53,876.956 494.17,872.42 z M494.098,864.932 C494.386,861.98 496.258,857.804 500.866,857.804 C505.906,857.804 507.058,862.268 507.058,864.932 z" fill="#FFFFFF"/>
      <path d="M548.89,877.532 C547.234,878.252 545.218,878.684 542.626,878.684 C537.298,878.684 532.978,875.3 532.978,868.82 C532.906,863.06 536.65,858.956 542.41,858.956 C545.29,858.956 547.234,859.46 548.53,860.036 L550.258,851.9 C547.954,851.036 544.786,850.532 541.906,850.532 C528.802,850.532 521.746,858.956 521.746,869.252 C521.746,880.34 529.018,887.324 540.394,887.324 C544.57,887.324 548.242,886.532 550.186,885.668 z" fill="#FFFFFF"/>
      <path d="M558.898,844.7 L558.898,851.324 L554.218,851.324 L554.218,859.388 L558.898,859.388 L558.898,873.788 C558.898,878.756 559.906,882.14 561.922,884.228 C563.65,886.028 566.602,887.324 570.13,887.324 C573.226,887.324 575.818,886.892 577.258,886.316 L577.186,878.036 C576.106,878.252 575.458,878.324 573.946,878.324 C570.634,878.324 569.626,876.38 569.626,872.132 L569.626,859.388 L577.474,859.388 L577.474,851.324 L569.626,851.324 L569.626,841.748 z" fill="#FFFFFF"/>
      <path d="M594.754,886.532 L594.754,851.324 L583.81,851.324 L583.81,886.532 z M589.282,835.988 C585.754,835.988 583.45,838.364 583.522,841.532 C583.45,844.556 585.754,847.004 589.21,847.004 C592.81,847.004 595.114,844.556 595.114,841.532 C595.042,838.364 592.81,835.988 589.282,835.988 z" fill="#FFFFFF"/>
      <path d="M620.314,850.532 C609.01,850.532 601.522,857.804 601.522,869.18 C601.522,880.556 609.442,887.324 619.738,887.324 C629.17,887.324 638.314,881.42 638.314,868.532 C638.314,857.948 631.114,850.532 620.314,850.532 z M620.026,858.308 C624.994,858.308 627.01,863.636 627.01,868.892 C627.01,875.228 624.274,879.476 620.026,879.476 C615.346,879.476 612.826,874.94 612.826,868.892 C612.826,863.708 614.77,858.308 620.026,858.308 z" fill="#FFFFFF"/>
      <path d="M645.082,886.532 L656.026,886.532 L656.026,866.228 C656.026,865.22 656.17,864.212 656.458,863.492 C657.178,861.476 658.978,859.388 662.002,859.388 C665.962,859.388 667.546,862.484 667.546,867.02 L667.546,886.532 L678.49,886.532 L678.49,865.652 C678.49,855.284 673.09,850.532 665.89,850.532 C660.058,850.532 656.458,853.916 655.018,856.148 L654.802,856.148 L654.298,851.324 L644.794,851.324 C644.938,854.42 645.082,858.164 645.082,862.556 z" fill="#FFFFFF"/>
    </g>
  </g>
</svg>
