<?xml version="1.0" encoding="UTF-8"?>
<!DOCTYPE svg PUBLIC "-//W3C//DTD SVG 1.1//EN" "http://www.w3.org/Graphics/SVG/1.1/DTD/svg11.dtd">
<svg version="1.1" xmlns="http://www.w3.org/2000/svg" xmlns:xlink="http://www.w3.org/1999/xlink" x="0" y="0" width="544.095" height="57.86" viewBox="0, 0, 544.095, 57.86">
  <g id="Layer_1" transform="translate(-128.401, -841.499)">
    <g>
      <path d="M192.321,867.651 Q188.043,872.935 182.129,878.598 Q176.215,884.26 169.295,888.916 Q162.374,893.571 154.95,896.465 Q147.527,899.359 140.229,899.359 Q128.401,899.359 128.401,888.79 Q128.401,881.743 132.05,873.565 Q135.699,865.386 141.487,858.465 Q147.275,851.545 154.195,846.889 Q161.116,842.233 167.407,842.233 Q170.931,842.233 172.315,843.492 Q173.699,844.75 173.699,846.763 Q173.699,849.783 171.811,853.306 Q169.924,856.829 166.149,859.975 Q162.374,863.121 156.586,865.26 Q150.798,867.399 142.745,867.399 Q141.487,869.664 139.977,874.571 Q138.467,879.479 138.467,884.512 Q138.467,894.83 147.778,894.83 Q153.566,894.83 159.732,892.061 Q165.897,889.293 171.686,885.141 Q177.474,880.988 182.381,876.081 Q187.288,871.174 190.56,866.896 Q191.063,866.392 191.692,866.644 Q192.321,866.896 192.321,867.651 z M165.897,848.022 Q165.897,844.75 162.626,844.75 Q160.109,844.75 157.467,846.637 Q154.825,848.525 152.308,851.545 Q149.791,854.565 147.527,858.088 Q145.262,861.611 143.752,864.882 Q144.255,865.134 145.513,865.26 Q146.772,865.386 147.527,865.386 Q154.825,865.386 160.361,860.227 Q165.897,855.068 165.897,848.022 z" fill="#00BC9C"/>
      <g>
        <path d="M222.32,885.419 C219.944,886.643 215.264,887.507 211.304,887.507 C200.576,887.507 194.24,879.803 194.24,869.579 C194.24,859.283 200.72,851.363 211.088,851.363 C214.688,851.363 218.144,851.867 221.96,854.027 L222.68,845.531 C219.008,844.091 214.616,843.443 211.304,843.443 C194.24,843.443 183.728,853.091 183.728,870.299 C183.728,887.291 195.032,895.427 211.304,895.427 C215.12,895.427 219.08,894.707 222.752,893.843 z" fill="#FFFFFF"/>
        <path d="M230.248,867.707 C233.488,865.259 237.592,863.675 241.696,863.675 C247.384,863.675 250.048,865.691 250.048,871.667 L244.72,871.667 C240.688,871.667 235.936,872.027 232.264,873.827 C228.592,875.627 225.928,878.867 225.928,884.411 C225.928,891.467 232.336,895.427 238.888,895.427 C243.28,895.427 248.104,893.123 250.336,889.019 L250.48,889.019 C250.552,890.171 250.552,892.619 250.912,894.563 L259.408,894.563 C259.192,891.683 259.048,889.091 258.976,886.283 C258.904,883.547 258.832,880.739 258.832,876.995 L258.832,872.243 C258.832,861.299 254.152,856.619 242.848,856.619 C238.744,856.619 233.704,857.699 229.96,859.427 z M235.144,883.835 C235.144,878.147 241.552,877.427 245.872,877.427 L250.048,877.427 C250.048,880.307 249.616,882.971 248.032,885.059 C246.52,887.075 244.216,888.371 241.264,888.371 C237.808,888.371 235.144,887.003 235.144,883.835 z" fill="#FFFFFF"/>
        <path d="M264.552,894.563 L274.2,894.563 L274.2,880.955 C274.2,875.627 274.2,865.835 282.048,865.835 C283.776,865.835 285.504,866.123 286.368,866.627 L286.368,856.907 C285.36,856.619 284.352,856.619 283.416,856.619 C277.656,856.619 273.696,862.451 273.264,865.907 L273.12,865.907 L273.12,857.483 L264.552,857.483 z" fill="#FFFFFF"/>
        <path d="M297.184,872.387 C297.616,867.419 300.352,863.675 305.752,863.675 C311.152,863.675 313.312,867.707 313.6,872.387 z M320.08,884.627 C316.48,886.643 312.448,888.371 307.768,888.371 C301.792,888.371 297.616,884.987 297.184,879.011 L322.816,879.011 C322.816,866.051 318.928,856.619 305.176,856.619 C293.656,856.619 287.968,865.475 287.968,876.203 C287.968,888.371 295.096,895.427 307.336,895.427 C312.52,895.427 316.552,894.419 320.08,892.475 z" fill="#FFFFFF"/>
        <path d="M336.216,872.387 C336.648,867.419 339.384,863.675 344.784,863.675 C350.184,863.675 352.344,867.707 352.632,872.387 z M359.112,884.627 C355.512,886.643 351.48,888.371 346.8,888.371 C340.824,888.371 336.648,884.987 336.216,879.011 L361.848,879.011 C361.848,866.051 357.96,856.619 344.208,856.619 C332.688,856.619 327,865.475 327,876.203 C327,888.371 334.128,895.427 346.368,895.427 C351.552,895.427 355.584,894.419 359.112,892.475 z" fill="#FFFFFF"/>
        <path d="M366.624,894.563 L376.272,894.563 L376.272,880.955 C376.272,875.627 376.272,865.835 384.12,865.835 C385.848,865.835 387.576,866.123 388.44,866.627 L388.44,856.907 C387.432,856.619 386.424,856.619 385.488,856.619 C379.728,856.619 375.768,862.451 375.336,865.907 L375.192,865.907 L375.192,857.483 L366.624,857.483 z" fill="#FFFFFF"/>
        <path d="M393.28,894.563 L407.032,894.563 C422.44,894.563 436.048,889.379 436.048,869.435 C436.048,849.491 422.44,844.307 407.032,844.307 L393.28,844.307 z M403.36,852.227 L408.976,852.227 C417.4,852.227 425.536,858.491 425.536,869.435 C425.536,880.379 417.4,886.643 408.976,886.643 L403.36,886.643 z" fill="#FFFFFF"/>
        <path d="M441.616,894.563 L451.264,894.563 L451.264,857.483 L441.616,857.483 z M441.616,850.715 L451.264,850.715 L451.264,841.499 L441.616,841.499 z" fill="#FFFFFF"/>
        <path d="M457.632,894.563 L467.28,894.563 L467.28,880.955 C467.28,875.627 467.28,865.835 475.128,865.835 C476.856,865.835 478.584,866.123 479.448,866.627 L479.448,856.907 C478.44,856.619 477.432,856.619 476.496,856.619 C470.736,856.619 466.776,862.451 466.344,865.907 L466.2,865.907 L466.2,857.483 L457.632,857.483 z" fill="#FFFFFF"/>
        <path d="M490.264,872.387 C490.696,867.419 493.432,863.675 498.832,863.675 C504.232,863.675 506.392,867.707 506.68,872.387 z M513.16,884.627 C509.56,886.643 505.528,888.371 500.848,888.371 C494.872,888.371 490.696,884.987 490.264,879.011 L515.896,879.011 C515.896,866.051 512.008,856.619 498.256,856.619 C486.736,856.619 481.048,865.475 481.048,876.203 C481.048,888.371 488.176,895.427 500.416,895.427 C505.6,895.427 509.632,894.419 513.16,892.475 z" fill="#FFFFFF"/>
        <path d="M547.368,857.843 C544.704,857.051 541.896,856.619 538.008,856.619 C526.416,856.619 520.08,865.115 520.08,875.843 C520.08,887.147 526.2,895.427 538.368,895.427 C542.328,895.427 545.208,895.067 548.016,894.203 L547.584,886.211 C545.928,886.931 542.904,887.939 540.168,887.939 C533.4,887.939 530.16,882.683 530.16,875.843 C530.16,868.859 533.976,864.107 539.952,864.107 C542.904,864.107 544.776,864.683 546.504,865.475 z" fill="#FFFFFF"/>
        <path d="M557.592,883.403 C557.592,890.747 561.768,895.427 569.328,895.427 C572.208,895.427 574.44,895.139 576.456,894.563 L576.168,886.931 C575.16,887.579 573.504,887.939 571.776,887.939 C568.104,887.939 567.24,884.987 567.24,881.819 L567.24,864.539 L575.808,864.539 L575.808,857.483 L567.24,857.483 L567.24,846.971 L557.592,850.067 L557.592,857.483 L550.464,857.483 L550.464,864.539 L557.592,864.539 z" fill="#FFFFFF"/>
        <path d="M580.648,894.563 L590.296,894.563 L590.296,857.483 L580.648,857.483 z M580.648,850.715 L590.296,850.715 L590.296,841.499 L580.648,841.499 z" fill="#FFFFFF"/>
        <path d="M595.072,876.275 C595.072,886.931 602.2,895.427 614.44,895.427 C626.752,895.427 633.88,886.931 633.88,876.275 C633.88,864.035 625.456,856.619 614.44,856.619 C603.496,856.619 595.072,864.035 595.072,876.275 z M605.152,875.123 C605.152,869.579 608.176,864.107 614.44,864.107 C620.776,864.107 623.8,869.435 623.8,875.123 C623.8,881.315 621.856,887.939 614.44,887.939 C607.096,887.939 605.152,881.243 605.152,875.123 z" fill="#FFFFFF"/>
        <path d="M638.44,894.563 L648.088,894.563 L648.088,876.419 C648.088,871.667 649.6,864.107 656.584,864.107 C662.776,864.107 662.848,870.227 662.848,874.763 L662.848,894.563 L672.496,894.563 L672.496,871.163 C672.496,862.811 668.68,856.619 659.896,856.619 C654.856,856.619 650.752,858.275 647.728,862.523 L647.584,862.523 L647.584,857.483 L638.44,857.483 z" fill="#FFFFFF"/>
      </g>
    </g>
  </g>
</svg>
