<?xml version="1.0" encoding="UTF-8"?>
<!DOCTYPE svg PUBLIC "-//W3C//DTD SVG 1.1//EN" "http://www.w3.org/Graphics/SVG/1.1/DTD/svg11.dtd">
<svg version="1.1" xmlns="http://www.w3.org/2000/svg" xmlns:xlink="http://www.w3.org/1999/xlink" x="0" y="0" width="575.016" height="52.128" viewBox="0, 0, 575.016, 52.128">
  <g id="Layer_1" transform="translate(-90.584, -907.872)">
    <g>
      <g>
        <path d="M119.888,948.336 C116.792,949.776 113.408,950.496 109.808,950.496 C107,950.496 104.84,949.848 103.472,948.696 C102.752,948.048 102.32,947.112 102.176,946.32 C116.792,946.752 124.856,943.152 124.856,934.296 C124.856,927.024 119.096,922.992 111.752,922.992 C98.36,922.992 90.584,933.864 90.584,944.664 C90.584,954.528 96.272,960 106.64,960 C110.24,960 115.784,959.496 120.536,957.192 z M113.408,934.224 C113.408,936.456 110.816,937.536 103.328,937.464 C103.688,935.16 105.848,931.848 110.24,931.848 C112.256,931.848 113.408,932.928 113.408,934.152 z" fill="#01BC9D"/>
        <path d="M165.392,947.76 C163.376,948.552 159.848,949.2 156.68,949.2 C147.752,949.2 142.496,943.728 142.496,934.872 C142.496,924.936 148.976,920.544 156.464,920.544 C160.352,920.544 163.304,921.408 165.464,922.272 L167.984,912.048 C165.968,910.968 161.432,909.888 155.816,909.888 C141.344,909.888 128.816,918.6 128.816,935.736 C128.816,948.624 136.808,960 154.952,960 C160.784,960 165.32,958.848 167.192,957.984 z" fill="#FFFFFF"/>
        <path d="M204.344,938.616 C204.344,929.76 200.096,922.992 187.928,922.992 C180.584,922.992 175.544,925.008 173.24,926.16 L175.544,934.44 C177.848,933.072 181.808,931.776 185.552,931.776 C190.232,931.776 191.312,933.36 191.312,934.8 L191.312,935.088 C179.288,935.16 170.792,939.336 170.792,948.84 C170.792,954.744 175.256,960 182.456,960 C186.272,960 189.8,958.92 192.32,956.112 L192.536,956.112 L193.256,959.208 L204.92,959.208 C204.488,957.408 204.344,954.096 204.344,950.568 z M191.744,945.888 C191.744,946.536 191.744,947.184 191.6,947.76 C191.024,949.704 189.008,951 187.136,951 C184.976,951 183.464,949.848 183.464,947.616 C183.464,944.52 186.488,943.008 191.744,943.008 z" fill="#FFFFFF"/>
        <path d="M212.336,959.208 L225.296,959.208 L225.296,941.712 C225.296,940.848 225.368,940.128 225.512,939.48 C226.16,936.6 228.752,935.016 232.568,935.016 C233.936,935.016 234.944,935.16 235.88,935.376 L235.88,923.208 C234.944,922.992 234.44,922.992 233.288,922.992 C230.264,922.992 225.728,924.792 223.856,930.192 L223.568,930.192 L223.136,923.784 L212.048,923.784 C212.192,926.736 212.336,930.12 212.336,935.736 z" fill="#FFFFFF"/>
        <path d="M273.176,946.032 C273.392,945.168 273.68,943.296 273.68,941.136 C273.68,931.416 268.784,922.992 257.336,922.992 C244.304,922.992 238.976,933.576 238.976,941.856 C238.976,953.088 246.032,960 258.488,960 C262.88,960 267.488,959.424 271.736,957.696 L270.08,949.056 C266.912,950.064 263.744,950.424 260.36,950.424 C255.824,950.424 251.72,948.84 251.288,946.032 z M251.144,937.248 C251.36,935.016 252.872,931.488 256.688,931.488 C260.792,931.488 261.728,935.232 261.728,937.248 z" fill="#FFFFFF"/>
        <path d="M311.984,946.032 C312.2,945.168 312.488,943.296 312.488,941.136 C312.488,931.416 307.592,922.992 296.144,922.992 C283.112,922.992 277.784,933.576 277.784,941.856 C277.784,953.088 284.84,960 297.296,960 C301.688,960 306.296,959.424 310.544,957.696 L308.888,949.056 C305.72,950.064 302.552,950.424 299.168,950.424 C294.632,950.424 290.528,948.84 290.096,946.032 z M289.952,937.248 C290.168,935.016 291.68,931.488 295.496,931.488 C299.6,931.488 300.536,935.232 300.536,937.248 z" fill="#FFFFFF"/>
        <path d="M318.392,959.208 L331.352,959.208 L331.352,941.712 C331.352,940.848 331.424,940.128 331.568,939.48 C332.216,936.6 334.808,935.016 338.624,935.016 C339.992,935.016 341,935.16 341.936,935.376 L341.936,923.208 C341,922.992 340.496,922.992 339.344,922.992 C336.32,922.992 331.784,924.792 329.912,930.192 L329.624,930.192 L329.192,923.784 L318.104,923.784 C318.248,926.736 318.392,930.12 318.392,935.736 z" fill="#FFFFFF"/>
        <path d="M347.84,958.92 C350.36,959.352 354.536,959.784 360.8,959.784 C370.304,959.784 378.224,957.912 383.552,953.736 C388.304,950.064 392.048,943.656 392.048,933.792 C392.048,924.864 388.592,918.816 383.264,915.144 C378.44,911.832 372.608,910.32 363.32,910.32 C357.56,910.32 352.016,910.68 347.84,911.328 z M360.872,920.544 C361.52,920.4 362.744,920.256 364.832,920.256 C372.608,920.256 378.224,924.72 378.224,934.152 C378.224,945.096 372.032,949.776 363.608,949.632 C362.744,949.632 361.52,949.632 360.872,949.488 z" fill="#FFFFFF"/>
        <path d="M411.776,959.208 L411.776,923.784 L398.816,923.784 L398.816,959.208 z M405.296,907.872 C401.264,907.872 398.672,910.464 398.672,913.992 C398.672,917.448 401.192,920.184 405.224,920.184 C409.328,920.184 411.92,917.448 411.92,913.992 C411.848,910.464 409.328,907.872 405.296,907.872 z" fill="#FFFFFF"/>
        <path d="M419.84,959.208 L432.8,959.208 L432.8,941.712 C432.8,940.848 432.872,940.128 433.016,939.48 C433.664,936.6 436.256,935.016 440.072,935.016 C441.44,935.016 442.448,935.16 443.384,935.376 L443.384,923.208 C442.448,922.992 441.944,922.992 440.792,922.992 C437.768,922.992 433.232,924.792 431.36,930.192 L431.072,930.192 L430.64,923.784 L419.552,923.784 C419.696,926.736 419.84,930.12 419.84,935.736 z" fill="#FFFFFF"/>
        <path d="M480.68,946.032 C480.896,945.168 481.184,943.296 481.184,941.136 C481.184,931.416 476.288,922.992 464.84,922.992 C451.808,922.992 446.48,933.576 446.48,941.856 C446.48,953.088 453.536,960 465.992,960 C470.384,960 474.992,959.424 479.24,957.696 L477.584,949.056 C474.416,950.064 471.248,950.424 467.864,950.424 C463.328,950.424 459.224,948.84 458.792,946.032 z M458.648,937.248 C458.864,935.016 460.376,931.488 464.192,931.488 C468.296,931.488 469.232,935.232 469.232,937.248 z" fill="#FFFFFF"/>
        <path d="M512.792,948.984 C511.208,949.632 509.336,949.848 507.104,949.848 C502.568,949.848 498.536,947.112 498.536,941.352 C498.536,936.168 501.92,932.856 506.816,932.856 C509.408,932.856 511.136,933.288 512.36,933.792 L514.232,924.216 C511.712,923.352 508.616,922.992 506.024,922.992 C492.2,922.992 485.288,931.704 485.288,941.784 C485.288,953.088 492.704,960 504.44,960 C508.4,960 512.072,959.424 514.232,958.488 z" fill="#FFFFFF"/>
        <path d="M522.44,917.088 L522.44,923.784 L518.048,923.784 L518.048,933.288 L522.44,933.288 L522.44,945.672 C522.44,951.072 523.592,954.6 525.752,956.76 C527.624,958.632 530.792,960 534.608,960 C537.92,960 540.8,959.496 542.312,958.992 L542.312,949.128 C541.232,949.416 540.728,949.416 539.216,949.416 C536.12,949.416 535.112,947.688 535.112,943.44 L535.112,933.288 L542.456,933.288 L542.456,923.784 L535.112,923.784 L535.112,913.704 z" fill="#FFFFFF"/>
        <path d="M561.464,959.208 L561.464,923.784 L548.504,923.784 L548.504,959.208 z M554.984,907.872 C550.952,907.872 548.36,910.464 548.36,913.992 C548.36,917.448 550.88,920.184 554.912,920.184 C559.016,920.184 561.608,917.448 561.608,913.992 C561.536,910.464 559.016,907.872 554.984,907.872 z" fill="#FFFFFF"/>
        <path d="M587.24,922.992 C575.144,922.992 567.728,930.48 567.728,941.712 C567.728,953.232 575.936,960 586.52,960 C596.456,960 605.672,954.024 605.672,941.136 C605.672,930.48 598.328,922.992 587.24,922.992 z M586.808,932.136 C590.696,932.136 592.28,936.6 592.28,941.496 C592.28,947.184 590.336,950.856 586.88,950.856 C582.848,950.856 581.12,946.752 581.12,941.496 C581.12,936.816 582.56,932.136 586.808,932.136 z" fill="#FFFFFF"/>
        <path d="M611.936,959.208 L624.896,959.208 L624.896,939.12 C624.896,938.184 624.968,937.176 625.256,936.528 C625.832,935.16 626.984,933.432 629.504,933.432 C632.6,933.432 634.04,935.808 634.04,939.912 L634.04,959.208 L647,959.208 L647,938.328 C647,928.608 642.536,922.992 634.256,922.992 C628.352,922.992 624.968,926.448 623.672,928.32 L623.384,928.32 L622.808,923.784 L611.648,923.784 C611.792,927.024 611.936,931.128 611.936,935.808 z" fill="#FFFFFF"/>
      </g>
      <g>
        <path d="M653.555,931.54 L654.908,931.54 L654.908,925.259 L657.042,925.259 L657.042,924.126 L651.443,924.126 L651.443,925.259 L653.555,925.259 z" fill="#FFFFFF"/>
        <path d="M664.28,931.54 L665.6,931.54 L665.171,924.126 L663.411,924.126 L662.388,927.096 C662.102,927.965 661.849,928.878 661.651,929.681 L661.618,929.681 C661.431,928.856 661.2,927.976 660.936,927.107 L659.968,924.126 L658.186,924.126 L657.691,931.54 L658.956,931.54 L659.121,928.559 C659.176,927.547 659.22,926.37 659.253,925.391 L659.275,925.391 C659.473,926.326 659.737,927.338 660.023,928.284 L661.013,931.452 L662.058,931.452 L663.136,928.24 C663.466,927.305 663.774,926.304 664.016,925.391 L664.049,925.391 C664.038,926.403 664.093,927.558 664.137,928.515 z" fill="#FFFFFF"/>
      </g>
    </g>
  </g>
</svg>
