<?xml version="1.0" encoding="UTF-8"?>
<!DOCTYPE svg PUBLIC "-//W3C//DTD SVG 1.1//EN" "http://www.w3.org/Graphics/SVG/1.1/DTD/svg11.dtd">
<svg version="1.1" xmlns="http://www.w3.org/2000/svg" xmlns:xlink="http://www.w3.org/1999/xlink" x="0" y="0" width="553.777" height="55.243" viewBox="0, 0, 553.777, 55.243">
  <g id="Layer_1" transform="translate(-111.808, -869.119)">
    <g>
      <path d="M140.708,881.501 C142.613,881.501 144.008,881.859 144.89,882.661 C145.763,883.455 146.208,884.505 146.208,885.741 C146.208,887.36 145.712,889.077 144.739,890.894 C143.775,892.693 142.342,894.381 140.448,895.96 C138.555,897.537 136.176,898.852 133.314,899.909 C130.246,901.081 126.952,901.367 123.698,901.48 C122.978,902.889 122.528,904.424 122.044,905.925 C121.353,908.171 121.008,910.442 121.008,912.741 C121.008,917.131 122.804,919.121 126.668,919.121 C129.281,919.121 131.992,918.493 134.808,917.229 C137.686,915.937 140.478,914.32 143.185,912.379 C145.901,910.43 148.409,908.306 150.711,906.004 C153.021,903.694 154.942,901.536 156.473,899.534 L156.561,899.434 C157.079,898.916 157.772,898.762 158.449,899.033 C159.143,899.31 159.528,899.926 159.528,900.681 L159.528,901.035 L159.305,901.311 C157.237,903.865 154.779,906.506 151.929,909.234 C149.068,911.973 145.963,914.469 142.616,916.721 C139.256,918.982 135.77,920.816 132.161,922.223 C128.508,923.647 124.875,924.361 121.268,924.361 C115.099,924.361 111.808,921.42 111.808,915.801 C111.808,912.291 112.71,908.525 114.505,904.504 C116.282,900.519 118.581,896.841 121.401,893.47 C124.22,890.099 127.32,887.275 130.7,885.002 C134.154,882.678 137.492,881.501 140.708,881.501 z M137.288,885.301 C136.312,885.301 135.279,885.679 134.179,886.465 C132.992,887.313 131.824,888.424 130.676,889.801 C129.503,891.209 128.387,892.736 127.329,894.382 C125.65,897.18 126.305,895.962 125.273,897.987 C126.102,898.056 125.697,898.032 126.488,898.061 C129.712,898.061 132.529,896.929 134.986,894.64 C137.427,892.365 138.628,889.718 138.628,886.641 C138.628,885.634 138.295,885.301 137.288,885.301 z" fill="#01BC9D"/>
      <g>
        <path d="M194.409,913.039 C192.033,914.263 187.353,915.127 183.393,915.127 C172.665,915.127 166.329,907.423 166.329,897.199 C166.329,886.903 172.809,878.983 183.177,878.983 C186.777,878.983 190.233,879.487 194.049,881.647 L194.769,873.151 C191.097,871.711 186.705,871.063 183.393,871.063 C166.329,871.063 155.817,880.711 155.817,897.919 C155.817,914.911 167.121,923.047 183.393,923.047 C187.209,923.047 191.169,922.327 194.841,921.463 z" fill="#FFFFFF"/>
        <path d="M203.337,895.327 C206.577,892.879 210.681,891.295 214.785,891.295 C220.473,891.295 223.137,893.311 223.137,899.287 L217.809,899.287 C213.777,899.287 209.025,899.647 205.353,901.447 C201.681,903.247 199.017,906.487 199.017,912.031 C199.017,919.087 205.425,923.047 211.977,923.047 C216.369,923.047 221.193,920.743 223.425,916.639 L223.569,916.639 C223.641,917.791 223.641,920.239 224.001,922.183 L232.497,922.183 C232.281,919.303 232.137,916.711 232.065,913.903 C231.993,911.167 231.921,908.359 231.921,904.615 L231.921,899.863 C231.921,888.919 227.241,884.239 215.937,884.239 C211.833,884.239 206.793,885.319 203.049,887.047 z M208.233,911.455 C208.233,905.767 214.641,905.047 218.961,905.047 L223.137,905.047 C223.137,907.927 222.705,910.591 221.121,912.679 C219.609,914.695 217.305,915.991 214.353,915.991 C210.897,915.991 208.233,914.623 208.233,911.455 z" fill="#FFFFFF"/>
        <path d="M239.641,922.183 L249.289,922.183 L249.289,908.575 C249.289,903.247 249.289,893.455 257.137,893.455 C258.865,893.455 260.593,893.743 261.457,894.247 L261.457,884.527 C260.449,884.239 259.441,884.239 258.505,884.239 C252.745,884.239 248.785,890.071 248.353,893.527 L248.209,893.527 L248.209,885.103 L239.641,885.103 z" fill="#FFFFFF"/>
        <path d="M273.273,900.007 C273.705,895.039 276.441,891.295 281.841,891.295 C287.241,891.295 289.401,895.327 289.689,900.007 z M296.169,912.247 C292.569,914.263 288.537,915.991 283.857,915.991 C277.881,915.991 273.705,912.607 273.273,906.631 L298.905,906.631 C298.905,893.671 295.017,884.239 281.265,884.239 C269.745,884.239 264.057,893.095 264.057,903.823 C264.057,915.991 271.185,923.047 283.425,923.047 C288.609,923.047 292.641,922.039 296.169,920.095 z" fill="#FFFFFF"/>
        <path d="M313.305,900.007 C313.737,895.039 316.473,891.295 321.873,891.295 C327.273,891.295 329.433,895.327 329.721,900.007 z M336.201,912.247 C332.601,914.263 328.569,915.991 323.889,915.991 C317.913,915.991 313.737,912.607 313.305,906.631 L338.937,906.631 C338.937,893.671 335.049,884.239 321.297,884.239 C309.777,884.239 304.089,893.095 304.089,903.823 C304.089,915.991 311.217,923.047 323.457,923.047 C328.641,923.047 332.673,922.039 336.201,920.095 z" fill="#FFFFFF"/>
        <path d="M345.713,922.183 L355.361,922.183 L355.361,908.575 C355.361,903.247 355.361,893.455 363.209,893.455 C364.937,893.455 366.665,893.743 367.529,894.247 L367.529,884.527 C366.521,884.239 365.513,884.239 364.577,884.239 C358.817,884.239 354.857,890.071 354.425,893.527 L354.281,893.527 L354.281,885.103 L345.713,885.103 z" fill="#FFFFFF"/>
        <path d="M374.369,922.183 L388.121,922.183 C403.529,922.183 417.137,916.999 417.137,897.055 C417.137,877.111 403.529,871.927 388.121,871.927 L374.369,871.927 z M384.449,879.847 L390.065,879.847 C398.489,879.847 406.625,886.111 406.625,897.055 C406.625,907.999 398.489,914.263 390.065,914.263 L384.449,914.263 z" fill="#FFFFFF"/>
        <path d="M423.705,922.183 L433.353,922.183 L433.353,885.103 L423.705,885.103 z M423.705,878.335 L433.353,878.335 L433.353,869.119 L423.705,869.119 z" fill="#FFFFFF"/>
        <path d="M441.721,922.183 L451.369,922.183 L451.369,908.575 C451.369,903.247 451.369,893.455 459.217,893.455 C460.945,893.455 462.673,893.743 463.537,894.247 L463.537,884.527 C462.529,884.239 461.521,884.239 460.585,884.239 C454.825,884.239 450.865,890.071 450.433,893.527 L450.289,893.527 L450.289,885.103 L441.721,885.103 z" fill="#FFFFFF"/>
        <path d="M476.353,900.007 C476.785,895.039 479.521,891.295 484.921,891.295 C490.321,891.295 492.481,895.327 492.769,900.007 z M499.249,912.247 C495.649,914.263 491.617,915.991 486.937,915.991 C480.961,915.991 476.785,912.607 476.353,906.631 L501.985,906.631 C501.985,893.671 498.097,884.239 484.345,884.239 C472.825,884.239 467.137,893.095 467.137,903.823 C467.137,915.991 474.265,923.047 486.505,923.047 C491.689,923.047 495.721,922.039 499.249,920.095 z" fill="#FFFFFF"/>
        <path d="M534.457,885.463 C531.793,884.671 528.985,884.239 525.097,884.239 C513.505,884.239 507.169,892.735 507.169,903.463 C507.169,914.767 513.289,923.047 525.457,923.047 C529.417,923.047 532.297,922.687 535.105,921.823 L534.673,913.831 C533.017,914.551 529.993,915.559 527.257,915.559 C520.489,915.559 517.249,910.303 517.249,903.463 C517.249,896.479 521.065,891.727 527.041,891.727 C529.993,891.727 531.865,892.303 533.593,893.095 z" fill="#FFFFFF"/>
        <path d="M544.681,911.023 C544.681,918.367 548.857,923.047 556.417,923.047 C559.297,923.047 561.529,922.759 563.545,922.183 L563.257,914.551 C562.249,915.199 560.593,915.559 558.865,915.559 C555.193,915.559 554.329,912.607 554.329,909.439 L554.329,892.159 L562.897,892.159 L562.897,885.103 L554.329,885.103 L554.329,874.591 L544.681,877.687 L544.681,885.103 L537.553,885.103 L537.553,892.159 L544.681,892.159 z" fill="#FFFFFF"/>
        <path d="M569.737,922.183 L579.385,922.183 L579.385,885.103 L569.737,885.103 z M569.737,878.335 L579.385,878.335 L579.385,869.119 L569.737,869.119 z" fill="#FFFFFF"/>
        <path d="M586.161,903.895 C586.161,914.551 593.289,923.047 605.529,923.047 C617.841,923.047 624.969,914.551 624.969,903.895 C624.969,891.655 616.545,884.239 605.529,884.239 C594.585,884.239 586.161,891.655 586.161,903.895 z M596.241,902.743 C596.241,897.199 599.265,891.727 605.529,891.727 C611.865,891.727 614.889,897.055 614.889,902.743 C614.889,908.935 612.945,915.559 605.529,915.559 C598.185,915.559 596.241,908.863 596.241,902.743 z" fill="#FFFFFF"/>
        <path d="M631.529,922.183 L641.177,922.183 L641.177,904.039 C641.177,899.287 642.689,891.727 649.673,891.727 C655.865,891.727 655.937,897.847 655.937,902.383 L655.937,922.183 L665.585,922.183 L665.585,898.783 C665.585,890.431 661.769,884.239 652.985,884.239 C647.945,884.239 643.841,885.895 640.817,890.143 L640.673,890.143 L640.673,885.103 L631.529,885.103 z" fill="#FFFFFF"/>
      </g>
    </g>
  </g>
</svg>
