<?xml version="1.0" encoding="UTF-8"?>
<!DOCTYPE svg PUBLIC "-//W3C//DTD SVG 1.1//EN" "http://www.w3.org/Graphics/SVG/1.1/DTD/svg11.dtd">
<svg version="1.1" xmlns="http://www.w3.org/2000/svg" xmlns:xlink="http://www.w3.org/1999/xlink" x="0" y="0" width="553.777" height="55.243" viewBox="0, 0, 553.777, 55.243">
  <g id="Layer_1" transform="translate(-102.684, -561.696)">
    <g>
      <path d="M131.584,574.079 C133.489,574.079 134.884,574.437 135.767,575.239 C136.64,576.033 137.084,577.083 137.084,578.319 C137.084,579.937 136.589,581.655 135.616,583.471 C134.652,585.271 133.219,586.959 131.324,588.537 C129.431,590.115 127.052,591.429 124.191,592.487 C121.122,593.658 117.828,593.944 114.574,594.057 C113.854,595.466 113.405,597.002 112.92,598.503 C112.229,600.748 111.884,603.019 111.884,605.319 C111.884,609.708 113.681,611.699 117.544,611.699 C120.157,611.699 122.869,611.071 125.685,609.807 C128.563,608.514 131.355,606.898 134.061,604.956 C136.777,603.008 139.286,600.883 141.587,598.582 C143.898,596.271 145.819,594.114 147.35,592.111 L147.437,592.012 C147.956,591.493 148.648,591.339 149.326,591.61 C150.019,591.888 150.404,592.504 150.404,593.259 L150.404,593.613 L150.181,593.888 C148.114,596.443 145.655,599.083 142.806,601.811 C139.944,604.551 136.84,607.047 133.492,609.299 C130.132,611.559 126.647,613.394 123.037,614.801 C119.384,616.225 115.751,616.939 112.144,616.939 C105.976,616.939 102.684,613.998 102.684,608.379 C102.684,604.869 103.587,601.103 105.381,597.081 C107.159,593.097 109.458,589.418 112.277,586.047 C115.096,582.676 118.196,579.853 121.576,577.579 C125.031,575.255 128.369,574.079 131.584,574.079 z M128.164,577.879 C127.189,577.879 126.156,578.257 125.055,579.043 C123.869,579.89 122.7,581.002 121.552,582.379 C120.379,583.787 119.264,585.314 118.205,586.96 C116.527,589.757 117.182,588.539 116.15,590.564 C116.979,590.634 116.574,590.61 117.364,590.639 C120.589,590.639 123.406,589.506 125.863,587.217 C128.304,584.943 129.504,582.296 129.504,579.219 C129.504,578.211 129.172,577.879 128.164,577.879 z" fill="#01BC9D"/>
      <g>
        <path d="M185.285,605.616 C182.909,606.84 178.229,607.704 174.269,607.704 C163.541,607.704 157.205,600 157.205,589.776 C157.205,579.48 163.685,571.56 174.053,571.56 C177.653,571.56 181.109,572.064 184.925,574.224 L185.645,565.728 C181.973,564.288 177.581,563.64 174.269,563.64 C157.205,563.64 146.693,573.288 146.693,590.496 C146.693,607.488 157.997,615.624 174.269,615.624 C178.085,615.624 182.045,614.904 185.717,614.04 z" fill="#030202"/>
        <path d="M194.213,587.904 C197.453,585.456 201.557,583.872 205.661,583.872 C211.349,583.872 214.013,585.888 214.013,591.864 L208.685,591.864 C204.653,591.864 199.901,592.224 196.229,594.024 C192.557,595.824 189.893,599.064 189.893,604.608 C189.893,611.664 196.301,615.624 202.853,615.624 C207.245,615.624 212.069,613.32 214.301,609.216 L214.445,609.216 C214.517,610.368 214.517,612.816 214.877,614.76 L223.373,614.76 C223.157,611.88 223.013,609.288 222.941,606.48 C222.869,603.744 222.797,600.936 222.797,597.192 L222.797,592.44 C222.797,581.496 218.117,576.816 206.813,576.816 C202.709,576.816 197.669,577.896 193.925,579.624 z M199.109,604.032 C199.109,598.344 205.517,597.624 209.837,597.624 L214.013,597.624 C214.013,600.504 213.581,603.168 211.997,605.256 C210.485,607.272 208.181,608.568 205.229,608.568 C201.773,608.568 199.109,607.2 199.109,604.032 z" fill="#030202"/>
        <path d="M230.517,614.76 L240.165,614.76 L240.165,601.152 C240.165,595.824 240.165,586.032 248.013,586.032 C249.741,586.032 251.469,586.32 252.333,586.824 L252.333,577.104 C251.325,576.816 250.317,576.816 249.381,576.816 C243.621,576.816 239.661,582.648 239.229,586.104 L239.085,586.104 L239.085,577.68 L230.517,577.68 z" fill="#030202"/>
        <path d="M264.149,592.584 C264.581,587.616 267.317,583.872 272.717,583.872 C278.117,583.872 280.277,587.904 280.565,592.584 z M287.045,604.824 C283.445,606.84 279.413,608.568 274.733,608.568 C268.757,608.568 264.581,605.184 264.149,599.208 L289.781,599.208 C289.781,586.248 285.893,576.816 272.141,576.816 C260.621,576.816 254.933,585.672 254.933,596.4 C254.933,608.568 262.061,615.624 274.301,615.624 C279.485,615.624 283.517,614.616 287.045,612.672 z" fill="#030202"/>
        <path d="M304.181,592.584 C304.613,587.616 307.349,583.872 312.749,583.872 C318.149,583.872 320.309,587.904 320.597,592.584 z M327.077,604.824 C323.477,606.84 319.445,608.568 314.765,608.568 C308.789,608.568 304.613,605.184 304.181,599.208 L329.813,599.208 C329.813,586.248 325.925,576.816 312.173,576.816 C300.653,576.816 294.965,585.672 294.965,596.4 C294.965,608.568 302.093,615.624 314.333,615.624 C319.517,615.624 323.549,614.616 327.077,612.672 z" fill="#030202"/>
        <path d="M336.589,614.76 L346.237,614.76 L346.237,601.152 C346.237,595.824 346.237,586.032 354.085,586.032 C355.813,586.032 357.541,586.32 358.405,586.824 L358.405,577.104 C357.397,576.816 356.389,576.816 355.453,576.816 C349.693,576.816 345.733,582.648 345.301,586.104 L345.157,586.104 L345.157,577.68 L336.589,577.68 z" fill="#030202"/>
        <path d="M365.245,614.76 L378.997,614.76 C394.405,614.76 408.013,609.576 408.013,589.632 C408.013,569.688 394.405,564.504 378.997,564.504 L365.245,564.504 z M375.325,572.424 L380.941,572.424 C389.365,572.424 397.501,578.688 397.501,589.632 C397.501,600.576 389.365,606.84 380.941,606.84 L375.325,606.84 z" fill="#030202"/>
        <path d="M414.581,614.76 L424.229,614.76 L424.229,577.68 L414.581,577.68 z M414.581,570.912 L424.229,570.912 L424.229,561.696 L414.581,561.696 z" fill="#030202"/>
        <path d="M432.597,614.76 L442.245,614.76 L442.245,601.152 C442.245,595.824 442.245,586.032 450.093,586.032 C451.821,586.032 453.549,586.32 454.413,586.824 L454.413,577.104 C453.405,576.816 452.397,576.816 451.461,576.816 C445.701,576.816 441.741,582.648 441.309,586.104 L441.165,586.104 L441.165,577.68 L432.597,577.68 z" fill="#030202"/>
        <path d="M467.229,592.584 C467.661,587.616 470.397,583.872 475.797,583.872 C481.197,583.872 483.357,587.904 483.645,592.584 z M490.125,604.824 C486.525,606.84 482.493,608.568 477.813,608.568 C471.837,608.568 467.661,605.184 467.229,599.208 L492.861,599.208 C492.861,586.248 488.973,576.816 475.221,576.816 C463.701,576.816 458.013,585.672 458.013,596.4 C458.013,608.568 465.141,615.624 477.381,615.624 C482.565,615.624 486.597,614.616 490.125,612.672 z" fill="#030202"/>
        <path d="M525.333,578.04 C522.669,577.248 519.861,576.816 515.973,576.816 C504.381,576.816 498.045,585.312 498.045,596.04 C498.045,607.344 504.165,615.624 516.333,615.624 C520.293,615.624 523.173,615.264 525.981,614.4 L525.549,606.408 C523.893,607.128 520.869,608.136 518.133,608.136 C511.365,608.136 508.125,602.88 508.125,596.04 C508.125,589.056 511.941,584.304 517.917,584.304 C520.869,584.304 522.741,584.88 524.469,585.672 z" fill="#030202"/>
        <path d="M535.557,603.6 C535.557,610.944 539.733,615.624 547.293,615.624 C550.173,615.624 552.405,615.336 554.421,614.76 L554.133,607.128 C553.125,607.776 551.469,608.136 549.741,608.136 C546.069,608.136 545.205,605.184 545.205,602.016 L545.205,584.736 L553.773,584.736 L553.773,577.68 L545.205,577.68 L545.205,567.168 L535.557,570.264 L535.557,577.68 L528.429,577.68 L528.429,584.736 L535.557,584.736 z" fill="#030202"/>
        <path d="M560.613,614.76 L570.261,614.76 L570.261,577.68 L560.613,577.68 z M560.613,570.912 L570.261,570.912 L570.261,561.696 L560.613,561.696 z" fill="#030202"/>
        <path d="M577.037,596.472 C577.037,607.128 584.165,615.624 596.405,615.624 C608.717,615.624 615.845,607.128 615.845,596.472 C615.845,584.232 607.421,576.816 596.405,576.816 C585.461,576.816 577.037,584.232 577.037,596.472 z M587.117,595.32 C587.117,589.776 590.141,584.304 596.405,584.304 C602.741,584.304 605.766,589.632 605.766,595.32 C605.766,601.512 603.821,608.136 596.405,608.136 C589.061,608.136 587.117,601.44 587.117,595.32 z" fill="#030202"/>
        <path d="M622.405,614.76 L632.053,614.76 L632.053,596.616 C632.053,591.864 633.565,584.304 640.549,584.304 C646.741,584.304 646.813,590.424 646.813,594.96 L646.813,614.76 L656.461,614.76 L656.461,591.36 C656.461,583.008 652.645,576.816 643.861,576.816 C638.821,576.816 634.717,578.472 631.693,582.72 L631.549,582.72 L631.549,577.68 L622.405,577.68 z" fill="#030202"/>
      </g>
    </g>
  </g>
</svg>
