<?xml version="1.0" encoding="UTF-8"?>
<!DOCTYPE svg PUBLIC "-//W3C//DTD SVG 1.1//EN" "http://www.w3.org/Graphics/SVG/1.1/DTD/svg11.dtd">
<svg version="1.1" xmlns="http://www.w3.org/2000/svg" xmlns:xlink="http://www.w3.org/1999/xlink" x="0" y="0" width="532.095" height="54.861" viewBox="0, 0, 532.095, 54.861">
  <g id="Layer_1" transform="translate(-129.905, -867.14)">
    <g>
      <path d="M177.041,898.618 Q173.886,902.515 169.525,906.691 Q165.164,910.866 160.061,914.299 Q154.958,917.732 149.483,919.867 Q144.009,922.001 138.627,922.001 Q129.905,922.001 129.905,914.207 Q129.905,909.01 132.596,902.979 Q135.287,896.948 139.555,891.845 Q143.823,886.741 148.926,883.308 Q154.03,879.875 158.669,879.875 Q161.267,879.875 162.288,880.803 Q163.309,881.731 163.309,883.215 Q163.309,885.442 161.917,888.04 Q160.525,890.638 157.741,892.958 Q154.958,895.278 150.689,896.855 Q146.421,898.432 140.483,898.432 Q139.555,900.103 138.441,903.721 Q137.328,907.34 137.328,911.052 Q137.328,918.66 144.194,918.66 Q148.462,918.66 153.009,916.619 Q157.556,914.578 161.824,911.516 Q166.092,908.454 169.711,904.835 Q173.33,901.216 175.742,898.061 Q176.113,897.69 176.577,897.876 Q177.041,898.061 177.041,898.618 z M157.556,884.143 Q157.556,881.731 155.143,881.731 Q153.287,881.731 151.339,883.122 Q149.39,884.514 147.535,886.741 Q145.679,888.968 144.009,891.566 Q142.338,894.164 141.225,896.577 Q141.596,896.762 142.524,896.855 Q143.452,896.948 144.009,896.948 Q149.39,896.948 153.473,893.144 Q157.556,889.339 157.556,884.143 z" fill="#00BC9C"/>
      <g>
        <path d="M211.824,911.06 C209.448,912.284 204.768,913.147 200.808,913.147 C190.08,913.147 183.744,905.443 183.744,895.219 C183.744,884.923 190.224,877.003 200.592,877.003 C204.192,877.003 207.648,877.508 211.464,879.667 L212.184,871.172 C208.512,869.732 204.12,869.083 200.808,869.083 C183.744,869.083 173.232,878.732 173.232,895.94 C173.232,912.932 184.536,921.068 200.808,921.068 C204.624,921.068 208.584,920.347 212.256,919.483 z" fill="#FFFFFF"/>
        <path d="M219.752,893.348 C222.992,890.9 227.096,889.315 231.2,889.315 C236.888,889.315 239.552,891.331 239.552,897.307 L234.224,897.307 C230.192,897.307 225.44,897.667 221.768,899.468 C218.096,901.268 215.432,904.508 215.432,910.052 C215.432,917.107 221.84,921.068 228.392,921.068 C232.784,921.068 237.608,918.763 239.84,914.659 L239.984,914.659 C240.056,915.812 240.056,918.26 240.416,920.203 L248.912,920.203 C248.696,917.323 248.552,914.732 248.48,911.924 C248.408,909.188 248.336,906.38 248.336,902.635 L248.336,897.883 C248.336,886.94 243.656,882.26 232.352,882.26 C228.248,882.26 223.208,883.339 219.464,885.068 z M224.648,909.476 C224.648,903.787 231.056,903.068 235.376,903.068 L239.552,903.068 C239.552,905.948 239.12,908.612 237.536,910.7 C236.024,912.716 233.72,914.012 230.768,914.012 C227.312,914.012 224.648,912.643 224.648,909.476 z" fill="#FFFFFF"/>
        <path d="M254.056,920.203 L263.704,920.203 L263.704,906.595 C263.704,901.267 263.704,891.475 271.552,891.475 C273.28,891.475 275.008,891.763 275.872,892.267 L275.872,882.547 C274.864,882.259 273.856,882.259 272.92,882.259 C267.16,882.259 263.2,888.091 262.768,891.547 L262.624,891.547 L262.624,883.123 L254.056,883.123 z" fill="#FFFFFF"/>
        <path d="M286.688,898.028 C287.12,893.06 289.856,889.315 295.256,889.315 C300.656,889.315 302.816,893.348 303.104,898.028 z M309.584,910.268 C305.984,912.284 301.952,914.012 297.272,914.012 C291.296,914.012 287.12,910.628 286.688,904.651 L312.32,904.651 C312.32,891.692 308.432,882.26 294.68,882.26 C283.16,882.26 277.472,891.115 277.472,901.844 C277.472,914.012 284.6,921.068 296.84,921.068 C302.024,921.068 306.056,920.06 309.584,918.115 z" fill="#FFFFFF"/>
        <path d="M325.72,898.028 C326.152,893.06 328.888,889.315 334.288,889.315 C339.688,889.315 341.848,893.348 342.136,898.028 z M348.616,910.268 C345.016,912.284 340.984,914.012 336.304,914.012 C330.328,914.012 326.152,910.628 325.72,904.651 L351.352,904.651 C351.352,891.692 347.464,882.26 333.712,882.26 C322.192,882.26 316.504,891.115 316.504,901.844 C316.504,914.012 323.632,921.068 335.872,921.068 C341.056,921.068 345.088,920.06 348.616,918.115 z" fill="#FFFFFF"/>
        <path d="M356.128,920.203 L365.776,920.203 L365.776,906.595 C365.776,901.267 365.776,891.475 373.624,891.475 C375.352,891.475 377.08,891.763 377.944,892.267 L377.944,882.547 C376.936,882.259 375.928,882.259 374.992,882.259 C369.232,882.259 365.272,888.091 364.84,891.547 L364.696,891.547 L364.696,883.123 L356.128,883.123 z" fill="#FFFFFF"/>
        <path d="M382.784,920.203 L396.536,920.203 C411.944,920.203 425.552,915.019 425.552,895.076 C425.552,875.131 411.944,869.948 396.536,869.948 L382.784,869.948 z M392.864,877.867 L398.48,877.867 C406.904,877.867 415.04,884.131 415.04,895.076 C415.04,906.019 406.904,912.284 398.48,912.284 L392.864,912.284 z" fill="#FFFFFF"/>
        <path d="M431.12,920.203 L440.768,920.203 L440.768,883.124 L431.12,883.124 z M431.12,876.356 L440.768,876.356 L440.768,867.14 L431.12,867.14 z" fill="#FFFFFF"/>
        <path d="M447.136,920.203 L456.784,920.203 L456.784,906.595 C456.784,901.267 456.784,891.475 464.632,891.475 C466.36,891.475 468.088,891.763 468.952,892.267 L468.952,882.547 C467.944,882.259 466.936,882.259 466,882.259 C460.24,882.259 456.28,888.091 455.848,891.547 L455.704,891.547 L455.704,883.123 L447.136,883.123 z" fill="#FFFFFF"/>
        <path d="M479.768,898.028 C480.2,893.06 482.936,889.315 488.336,889.315 C493.736,889.315 495.896,893.348 496.184,898.028 z M502.664,910.268 C499.064,912.284 495.032,914.012 490.352,914.012 C484.376,914.012 480.2,910.628 479.768,904.651 L505.4,904.651 C505.4,891.692 501.512,882.26 487.76,882.26 C476.24,882.26 470.552,891.116 470.552,901.844 C470.552,914.012 477.68,921.068 489.92,921.068 C495.104,921.068 499.136,920.06 502.664,918.116 z" fill="#FFFFFF"/>
        <path d="M536.872,883.484 C534.208,882.692 531.4,882.26 527.512,882.26 C515.92,882.26 509.584,890.755 509.584,901.484 C509.584,912.788 515.704,921.068 527.872,921.068 C531.832,921.068 534.712,920.708 537.52,919.844 L537.088,911.852 C535.432,912.572 532.408,913.58 529.672,913.58 C522.904,913.58 519.664,908.323 519.664,901.484 C519.664,894.5 523.48,889.747 529.456,889.747 C532.408,889.747 534.28,890.323 536.008,891.116 z" fill="#FFFFFF"/>
        <path d="M547.096,909.044 C547.096,916.388 551.272,921.068 558.832,921.068 C561.712,921.068 563.944,920.78 565.96,920.203 L565.672,912.572 C564.664,913.22 563.008,913.58 561.28,913.58 C557.608,913.58 556.744,910.628 556.744,907.46 L556.744,890.18 L565.312,890.18 L565.312,883.124 L556.744,883.124 L556.744,872.612 L547.096,875.708 L547.096,883.124 L539.968,883.124 L539.968,890.18 L547.096,890.18 z" fill="#FFFFFF"/>
        <path d="M570.152,920.203 L579.8,920.203 L579.8,883.124 L570.152,883.124 z M570.152,876.356 L579.8,876.356 L579.8,867.14 L570.152,867.14 z" fill="#FFFFFF"/>
        <path d="M584.576,901.916 C584.576,912.572 591.704,921.068 603.944,921.068 C616.256,921.068 623.384,912.572 623.384,901.916 C623.384,889.676 614.96,882.26 603.944,882.26 C593,882.26 584.576,889.676 584.576,901.916 z M594.656,900.763 C594.656,895.219 597.68,889.747 603.944,889.747 C610.28,889.747 613.304,895.076 613.304,900.763 C613.304,906.956 611.36,913.58 603.944,913.58 C596.6,913.58 594.656,906.883 594.656,900.763 z" fill="#FFFFFF"/>
        <path d="M627.944,920.203 L637.592,920.203 L637.592,902.06 C637.592,897.307 639.104,889.747 646.088,889.747 C652.28,889.747 652.352,895.867 652.352,900.404 L652.352,920.203 L662,920.203 L662,896.803 C662,888.451 658.184,882.259 649.4,882.259 C644.36,882.259 640.256,883.915 637.232,888.163 L637.088,888.163 L637.088,883.123 L627.944,883.123 z" fill="#FFFFFF"/>
      </g>
    </g>
  </g>
</svg>
