<?xml version="1.0" encoding="UTF-8"?>
<!DOCTYPE svg PUBLIC "-//W3C//DTD SVG 1.1//EN" "http://www.w3.org/Graphics/SVG/1.1/DTD/svg11.dtd">
<svg version="1.1" xmlns="http://www.w3.org/2000/svg" xmlns:xlink="http://www.w3.org/1999/xlink" x="0" y="0" width="366.213" height="109.868" viewBox="0, 0, 732.426, 219.737">
  <g id="Layer_2" transform="translate(-33.787, -56.832)">
    <g>
      <g>
        <g>
          <path d="M253.75,191.198 Q247.728,191.198 244.308,188.683 Q240.887,186.169 239.515,181.769 Q238.143,177.369 238.143,171.675 L238.143,150.735 Q238.143,144.721 239.515,140.321 Q240.887,135.921 244.308,133.513 Q247.728,131.105 253.75,131.105 Q259.374,131.105 262.592,133.19 Q265.809,135.274 267.179,139.078 Q268.55,142.882 268.55,148.02 L268.55,152.88 L258.946,152.88 L258.946,147.854 Q258.946,145.379 258.711,143.348 Q258.477,141.316 257.404,140.108 Q256.331,138.9 253.782,138.9 Q251.235,138.9 250.045,140.179 Q248.855,141.459 248.52,143.614 Q248.185,145.77 248.185,148.457 L248.185,173.951 Q248.185,177.099 248.669,179.184 Q249.153,181.27 250.376,182.3 Q251.599,183.331 253.782,183.331 Q256.263,183.331 257.336,182.07 Q258.409,180.809 258.677,178.687 Q258.946,176.566 258.946,173.987 L258.946,168.706 L268.55,168.706 L268.55,173.425 Q268.55,178.599 267.246,182.616 Q265.942,186.634 262.741,188.916 Q259.54,191.198 253.75,191.198 z" fill="#082126"/>
          <path d="M270.486,190.434 L281.448,131.762 L292.129,131.762 L303.056,190.434 L293.8,190.434 L291.648,176.891 L282.101,176.891 L279.848,190.434 z M283.15,170.051 L290.564,170.051 L286.841,145.445 z" fill="#082126"/>
          <path d="M306.658,190.434 L306.658,131.762 L319.768,131.762 Q325.278,131.762 329.104,133.188 Q332.93,134.615 334.933,138.018 Q336.936,141.422 336.936,147.298 Q336.936,150.814 336.33,153.622 Q335.724,156.429 334.254,158.423 Q332.785,160.418 330.212,161.548 L337.845,190.434 L327.826,190.434 L321.255,163.545 L316.598,163.545 L316.598,190.434 z M316.598,156.855 L319.748,156.855 Q322.644,156.855 324.358,155.929 Q326.071,155.004 326.826,153.034 Q327.58,151.064 327.58,147.895 Q327.58,143.463 326.067,141.275 Q324.553,139.087 320.256,139.087 L316.598,139.087 z" fill="#082126"/>
          <path d="M342.555,190.434 L342.555,131.762 L365.522,131.762 L365.522,139.267 L352.495,139.267 L352.495,156.174 L362.744,156.174 L362.744,163.614 L352.495,163.614 L352.495,183.071 L365.657,183.071 L365.657,190.434 z" fill="#082126"/>
          <path d="M369.684,190.434 L369.684,131.762 L392.651,131.762 L392.651,139.267 L379.624,139.267 L379.624,156.174 L389.874,156.174 L389.874,163.614 L379.624,163.614 L379.624,183.071 L392.786,183.071 L392.786,190.434 z" fill="#082126"/>
          <path d="M396.697,190.434 L396.697,131.762 L409.808,131.762 Q415.317,131.762 419.143,133.188 Q422.97,134.615 424.973,138.018 Q426.975,141.422 426.975,147.298 Q426.975,150.814 426.369,153.622 Q425.763,156.429 424.294,158.423 Q422.824,160.418 420.251,161.548 L427.885,190.434 L417.866,190.434 L411.295,163.545 L406.637,163.545 L406.637,190.434 z M406.637,156.855 L409.788,156.855 Q412.683,156.855 414.397,155.929 Q416.11,155.004 416.865,153.034 Q417.62,151.064 417.62,147.895 Q417.62,143.463 416.106,141.275 Q414.593,139.087 410.296,139.087 L406.637,139.087 z" fill="#082126"/>
          <path d="M447.822,190.434 L447.822,131.762 L460.729,131.762 Q467.37,131.762 471.145,133.716 Q474.921,135.671 476.494,139.711 Q478.067,143.751 478.067,149.989 L478.067,171.425 Q478.067,177.841 476.494,182.059 Q474.921,186.277 471.228,188.355 Q467.536,190.434 461.094,190.434 z M457.762,182.959 L460.832,182.959 Q464.289,182.959 465.768,181.669 Q467.246,180.379 467.583,177.87 Q467.92,175.36 467.92,171.737 L467.92,149.321 Q467.92,145.768 467.466,143.578 Q467.013,141.389 465.502,140.384 Q463.99,139.379 460.699,139.379 L457.762,139.379 z" fill="#082126"/>
          <path d="M483.956,190.434 L483.956,131.762 L493.83,131.762 L493.83,190.434 z" fill="#082126"/>
          <path d="M500.328,190.434 L500.328,131.762 L513.438,131.762 Q518.948,131.762 522.774,133.188 Q526.6,134.615 528.603,138.018 Q530.606,141.422 530.606,147.298 Q530.606,150.814 530,153.622 Q529.394,156.429 527.924,158.423 Q526.455,160.418 523.882,161.548 L531.515,190.434 L521.496,190.434 L514.925,163.545 L510.268,163.545 L510.268,190.434 z M510.268,156.855 L513.418,156.855 Q516.314,156.855 518.027,155.929 Q519.741,155.004 520.496,153.034 Q521.25,151.064 521.25,147.895 Q521.25,143.463 519.737,141.275 Q518.223,139.087 513.926,139.087 L510.268,139.087 z" fill="#082126"/>
          <path d="M536.341,190.434 L536.341,131.762 L559.308,131.762 L559.308,139.267 L546.281,139.267 L546.281,156.174 L556.531,156.174 L556.531,163.614 L546.281,163.614 L546.281,183.071 L559.443,183.071 L559.443,190.434 z" fill="#082126"/>
          <path d="M578.203,191.198 Q572.181,191.198 568.761,188.683 Q565.341,186.169 563.969,181.769 Q562.596,177.369 562.596,171.675 L562.596,150.735 Q562.596,144.721 563.969,140.321 Q565.341,135.921 568.761,133.513 Q572.181,131.105 578.203,131.105 Q583.828,131.105 587.045,133.19 Q590.263,135.274 591.633,139.078 Q593.003,142.882 593.003,148.02 L593.003,152.88 L583.399,152.88 L583.399,147.854 Q583.399,145.379 583.165,143.348 Q582.93,141.316 581.857,140.108 Q580.784,138.9 578.236,138.9 Q575.689,138.9 574.498,140.179 Q573.308,141.459 572.973,143.614 Q572.639,145.77 572.639,148.457 L572.639,173.951 Q572.639,177.099 573.123,179.184 Q573.607,181.27 574.83,182.3 Q576.053,183.331 578.236,183.331 Q580.717,183.331 581.79,182.07 Q582.863,180.809 583.131,178.687 Q583.399,176.566 583.399,173.987 L583.399,168.706 L593.003,168.706 L593.003,173.425 Q593.003,178.599 591.7,182.616 Q590.396,186.634 587.195,188.916 Q583.994,191.198 578.203,191.198 z" fill="#082126"/>
          <path d="M603.519,190.434 L603.519,139.679 L594.783,139.679 L594.783,131.762 L622.065,131.762 L622.065,139.679 L613.495,139.679 L613.495,190.434 z" fill="#082126"/>
          <path d="M625.433,190.434 L625.433,131.762 L635.308,131.762 L635.308,190.434 z" fill="#082126"/>
          <path d="M657.018,191.198 Q651.161,191.198 647.71,188.88 Q644.258,186.562 642.769,182.233 Q641.28,177.905 641.28,171.998 L641.28,149.985 Q641.28,144.041 642.786,139.82 Q644.291,135.599 647.726,133.352 Q651.161,131.105 657.018,131.105 Q662.909,131.105 666.345,133.369 Q669.781,135.634 671.286,139.837 Q672.792,144.041 672.792,149.985 L672.792,172.033 Q672.792,177.905 671.286,182.216 Q669.781,186.527 666.345,188.862 Q662.909,191.198 657.018,191.198 z M657.018,183.331 Q659.466,183.331 660.672,182.159 Q661.878,180.987 662.279,178.99 Q662.68,176.994 662.68,174.557 L662.68,147.533 Q662.68,145.059 662.279,143.116 Q661.878,141.174 660.672,140.037 Q659.466,138.9 657.018,138.9 Q654.639,138.9 653.417,140.037 Q652.195,141.174 651.794,143.116 Q651.392,145.059 651.392,147.533 L651.392,174.557 Q651.392,176.994 651.776,178.99 Q652.16,180.987 653.365,182.159 Q654.569,183.331 657.018,183.331 z" fill="#082126"/>
          <path d="M678.101,190.434 L678.101,131.762 L685.014,131.762 L698.327,165.198 L698.327,131.762 L706.565,131.762 L706.565,190.434 L699.989,190.434 L686.578,155.349 L686.578,190.434 z" fill="#082126"/>
        </g>
        <path d="M90.789,203.751 L134.992,217 L178.34,205.305 L135.409,190.279 z" fill="#F7D537"/>
        <path d="M180.491,116.401 L137.144,128.096 L181.346,141.344 L224.695,129.651 z" fill="#F7D537"/>
        <path d="M178.811,147.686 L136.582,134.64 L136.582,183.692 L178.811,197.84 z" fill="#F7D537"/>
        <path d="M201.254,157.478 C200.271,158.941 199.783,160.625 199.789,162.535 L199.784,167.415 C199.785,167.629 199.884,167.709 200.08,167.66 L210.977,163.978 C211.174,163.93 211.273,163.8 211.273,163.587 L211.262,159.676 C211.256,157.768 210.758,156.327 209.769,155.349 C208.78,154.373 207.471,154.085 205.844,154.486 C204.264,154.874 202.238,156.015 201.254,157.478 M216.715,167.985 L200.082,173.487 C199.886,173.536 199.789,173.668 199.789,173.878 L199.83,178.042 C199.836,179.951 200.333,181.394 201.323,182.371 C202.312,183.347 203.595,183.64 205.175,183.252 C206.554,182.912 207.713,182.176 208.648,181.042 C209.582,179.912 210.218,178.309 210.46,176.817 C210.608,176.356 210.878,176.077 211.273,175.98 L216.847,174.043 C217.094,173.982 217.279,174.016 217.403,174.145 C217.526,174.274 217.564,174.451 217.516,174.674 C217.18,178.207 215.819,182.394 213.729,184.845 C211.638,187.298 208.792,188.965 205.193,189.852 C201.395,190.788 198.37,190.393 196.121,188.665 C193.87,186.939 192.74,184.165 192.73,180.349 L192.685,163.807 C192.675,160.043 193.787,156.718 196.026,153.832 C198.263,150.946 201.281,149.035 205.079,148.101 C208.926,147.153 211.962,147.572 214.188,149.358 C216.412,151.145 217.531,153.92 217.541,157.683 L217.452,167.008 C217.454,167.539 217.208,167.864 216.715,167.985" fill="#082126"/>
      </g>
    </g>
  </g>
</svg>
