<?xml version="1.0" encoding="UTF-8"?>
<!DOCTYPE svg PUBLIC "-//W3C//DTD SVG 1.1//EN" "http://www.w3.org/Graphics/SVG/1.1/DTD/svg11.dtd">
<svg version="1.1" xmlns="http://www.w3.org/2000/svg" xmlns:xlink="http://www.w3.org/1999/xlink" x="0" y="0" width="366.213" height="109.868" viewBox="0, 0, 732.426, 219.737">
  <g id="Layer_2" transform="translate(-33.787, -291.439)">
    <g>
      <g>
        <g>
          <path d="M254.185,425.804 Q248.163,425.804 244.743,423.29 Q241.323,420.776 239.951,416.376 Q238.578,411.976 238.578,406.282 L238.578,385.342 Q238.578,379.328 239.951,374.928 Q241.323,370.528 244.743,368.12 Q248.163,365.712 254.185,365.712 Q259.81,365.712 263.027,367.796 Q266.245,369.881 267.615,373.684 Q268.985,377.488 268.985,382.627 L268.985,387.487 L259.381,387.487 L259.381,382.46 Q259.381,379.986 259.147,377.955 Q258.912,375.923 257.839,374.715 Q256.766,373.507 254.218,373.507 Q251.67,373.507 250.48,374.786 Q249.29,376.066 248.955,378.221 Q248.62,380.377 248.62,383.064 L248.62,408.558 Q248.62,411.706 249.105,413.791 Q249.589,415.876 250.812,416.907 Q252.035,417.937 254.218,417.937 Q256.699,417.937 257.772,416.677 Q258.844,415.416 259.113,413.294 Q259.381,411.173 259.381,408.593 L259.381,403.312 L268.985,403.312 L268.985,408.032 Q268.985,413.205 267.681,417.223 Q266.378,421.241 263.177,423.523 Q259.976,425.804 254.185,425.804 z" fill="#FFFFFF"/>
          <path d="M270.921,425.04 L281.884,366.369 L292.565,366.369 L303.491,425.04 L294.236,425.04 L292.083,411.497 L282.536,411.497 L280.284,425.04 z M283.585,404.658 L291,404.658 L287.276,380.052 z" fill="#FFFFFF"/>
          <path d="M307.093,425.04 L307.093,366.369 L320.204,366.369 Q325.713,366.369 329.54,367.795 Q333.366,369.222 335.369,372.625 Q337.372,376.028 337.372,381.905 Q337.372,385.421 336.765,388.229 Q336.159,391.036 334.69,393.03 Q333.22,395.024 330.647,396.155 L338.281,425.04 L328.262,425.04 L321.691,398.151 L317.033,398.151 L317.033,425.04 z M317.033,391.461 L320.184,391.461 Q323.079,391.461 324.793,390.536 Q326.506,389.611 327.261,387.641 Q328.016,385.671 328.016,382.502 Q328.016,378.07 326.502,375.882 Q324.989,373.694 320.692,373.694 L317.033,373.694 z" fill="#FFFFFF"/>
          <path d="M342.99,425.04 L342.99,366.369 L365.957,366.369 L365.957,373.874 L352.93,373.874 L352.93,390.781 L363.179,390.781 L363.179,398.22 L352.93,398.22 L352.93,417.678 L366.092,417.678 L366.092,425.04 z" fill="#FFFFFF"/>
          <path d="M370.12,425.04 L370.12,366.369 L393.087,366.369 L393.087,373.874 L380.06,373.874 L380.06,390.781 L390.309,390.781 L390.309,398.22 L380.06,398.22 L380.06,417.678 L393.222,417.678 L393.222,425.04 z" fill="#FFFFFF"/>
          <path d="M397.133,425.04 L397.133,366.369 L410.243,366.369 Q415.753,366.369 419.579,367.795 Q423.405,369.222 425.408,372.625 Q427.411,376.028 427.411,381.905 Q427.411,385.421 426.805,388.229 Q426.198,391.036 424.729,393.03 Q423.259,395.024 420.687,396.155 L428.32,425.04 L418.301,425.04 L411.73,398.151 L407.073,398.151 L407.073,425.04 z M407.073,391.461 L410.223,391.461 Q413.119,391.461 414.832,390.536 Q416.546,389.611 417.3,387.641 Q418.055,385.671 418.055,382.502 Q418.055,378.07 416.542,375.882 Q415.028,373.694 410.731,373.694 L407.073,373.694 z" fill="#FFFFFF"/>
          <path d="M448.257,425.04 L448.257,366.369 L461.165,366.369 Q467.805,366.369 471.581,368.323 Q475.356,370.278 476.929,374.318 Q478.502,378.358 478.502,384.596 L478.502,406.032 Q478.502,412.448 476.929,416.666 Q475.356,420.883 471.664,422.962 Q467.971,425.04 461.529,425.04 z M458.197,417.566 L461.267,417.566 Q464.725,417.566 466.203,416.276 Q467.682,414.986 468.019,412.477 Q468.355,409.967 468.355,406.343 L468.355,383.928 Q468.355,380.374 467.902,378.185 Q467.448,375.996 465.937,374.991 Q464.426,373.986 461.134,373.986 L458.197,373.986 z" fill="#FFFFFF"/>
          <path d="M484.391,425.04 L484.391,366.369 L494.266,366.369 L494.266,425.04 z" fill="#FFFFFF"/>
          <path d="M500.763,425.04 L500.763,366.369 L513.874,366.369 Q519.383,366.369 523.209,367.795 Q527.036,369.222 529.039,372.625 Q531.041,376.028 531.041,381.905 Q531.041,385.421 530.435,388.229 Q529.829,391.036 528.359,393.03 Q526.89,395.024 524.317,396.155 L531.951,425.04 L521.932,425.04 L515.361,398.151 L510.703,398.151 L510.703,425.04 z M510.703,391.461 L513.854,391.461 Q516.749,391.461 518.463,390.536 Q520.176,389.611 520.931,387.641 Q521.686,385.671 521.686,382.502 Q521.686,378.07 520.172,375.882 Q518.659,373.694 514.362,373.694 L510.703,373.694 z" fill="#FFFFFF"/>
          <path d="M536.777,425.04 L536.777,366.369 L559.743,366.369 L559.743,373.874 L546.717,373.874 L546.717,390.781 L556.966,390.781 L556.966,398.22 L546.717,398.22 L546.717,417.678 L559.879,417.678 L559.879,425.04 z" fill="#FFFFFF"/>
          <path d="M578.639,425.804 Q572.617,425.804 569.197,423.29 Q565.777,420.776 564.404,416.376 Q563.032,411.976 563.032,406.282 L563.032,385.342 Q563.032,379.328 564.404,374.928 Q565.777,370.528 569.197,368.12 Q572.617,365.712 578.639,365.712 Q584.263,365.712 587.481,367.796 Q590.698,369.881 592.068,373.684 Q593.439,377.488 593.439,382.627 L593.439,387.487 L583.835,387.487 L583.835,382.46 Q583.835,379.986 583.6,377.955 Q583.366,375.923 582.293,374.715 Q581.22,373.507 578.671,373.507 Q576.124,373.507 574.934,374.786 Q573.744,376.066 573.409,378.221 Q573.074,380.377 573.074,383.064 L573.074,408.558 Q573.074,411.706 573.558,413.791 Q574.043,415.876 575.266,416.907 Q576.488,417.937 578.671,417.937 Q581.152,417.937 582.225,416.677 Q583.298,415.416 583.566,413.294 Q583.835,411.173 583.835,408.593 L583.835,403.312 L593.439,403.312 L593.439,408.032 Q593.439,413.205 592.135,417.223 Q590.831,421.241 587.63,423.523 Q584.429,425.804 578.639,425.804 z" fill="#FFFFFF"/>
          <path d="M603.955,425.04 L603.955,374.285 L595.219,374.285 L595.219,366.369 L622.501,366.369 L622.501,374.285 L613.931,374.285 L613.931,425.04 z" fill="#FFFFFF"/>
          <path d="M625.869,425.04 L625.869,366.369 L635.743,366.369 L635.743,425.04 z" fill="#FFFFFF"/>
          <path d="M657.454,425.804 Q651.596,425.804 648.145,423.487 Q644.694,421.169 643.205,416.84 Q641.716,412.512 641.716,406.605 L641.716,384.592 Q641.716,378.647 643.221,374.426 Q644.727,370.205 648.162,367.959 Q651.596,365.712 657.454,365.712 Q663.344,365.712 666.78,367.976 Q670.216,370.24 671.722,374.444 Q673.227,378.647 673.227,384.592 L673.227,406.64 Q673.227,412.512 671.722,416.823 Q670.216,421.134 666.78,423.469 Q663.344,425.804 657.454,425.804 z M657.454,417.937 Q659.902,417.937 661.108,416.765 Q662.314,415.593 662.714,413.597 Q663.115,411.6 663.115,409.164 L663.115,382.14 Q663.115,379.666 662.714,377.723 Q662.314,375.781 661.108,374.644 Q659.902,373.507 657.454,373.507 Q655.074,373.507 653.852,374.644 Q652.63,375.781 652.229,377.723 Q651.828,379.666 651.828,382.14 L651.828,409.164 Q651.828,411.6 652.212,413.597 Q652.596,415.593 653.8,416.765 Q655.005,417.937 657.454,417.937 z" fill="#FFFFFF"/>
          <path d="M678.536,425.04 L678.536,366.369 L685.449,366.369 L698.763,399.805 L698.763,366.369 L707,366.369 L707,425.04 L700.425,425.04 L687.013,389.956 L687.013,425.04 z" fill="#FFFFFF"/>
        </g>
        <path d="M92.112,438.358 L136.316,451.607 L179.664,439.912 L136.732,424.885 z" fill="#F7D537"/>
        <path d="M181.815,351.008 L138.467,362.703 L182.67,375.951 L226.019,364.258 z" fill="#F7D537"/>
        <path d="M180.135,382.293 L137.905,369.246 L137.905,418.299 L180.135,432.447 z" fill="#F7D537"/>
        <path d="M202.578,392.085 C201.595,393.548 201.106,395.232 201.112,397.141 L201.108,402.022 C201.109,402.235 201.207,402.316 201.404,402.267 L212.301,398.585 C212.497,398.537 212.597,398.406 212.597,398.194 L212.585,394.283 C212.58,392.375 212.081,390.934 211.092,389.956 C210.103,388.98 208.794,388.692 207.167,389.092 C205.587,389.481 203.561,390.622 202.578,392.085 M218.039,402.591 L201.406,408.094 C201.209,408.143 201.112,408.275 201.112,408.485 L201.153,412.649 C201.159,414.558 201.656,416.001 202.646,416.977 C203.635,417.954 204.918,418.247 206.498,417.858 C207.877,417.519 209.036,416.782 209.972,415.649 C210.906,414.518 211.541,412.916 211.784,411.423 C211.931,410.962 212.201,410.684 212.597,410.587 L218.17,408.649 C218.417,408.589 218.603,408.623 218.726,408.752 C218.85,408.88 218.887,409.058 218.839,409.281 C218.503,412.813 217.143,417.001 215.053,419.451 C212.961,421.905 210.116,423.572 206.517,424.459 C202.718,425.395 199.693,424.999 197.444,423.272 C195.193,421.546 194.064,418.772 194.053,414.956 L194.009,398.413 C193.998,394.65 195.111,391.325 197.349,388.439 C199.587,385.553 202.604,383.642 206.402,382.708 C210.249,381.76 213.285,382.179 215.511,383.964 C217.736,385.752 218.854,388.526 218.864,392.29 L218.775,401.615 C218.777,402.146 218.532,402.471 218.039,402.591" fill="#FFFFFF"/>
      </g>
    </g>
  </g>
</svg>
