<?xml version="1.0" encoding="UTF-8"?>
<!DOCTYPE svg PUBLIC "-//W3C//DTD SVG 1.1//EN" "http://www.w3.org/Graphics/SVG/1.1/DTD/svg11.dtd">
<svg version="1.1" xmlns="http://www.w3.org/2000/svg" xmlns:xlink="http://www.w3.org/1999/xlink" x="0" y="0" width="307.888" height="50.299" viewBox="0, 0, 615.776, 100.599">
  <g id="Layer_2" transform="translate(-91.668, -95.401)">
    <g>
      <g>
        <path d="M254.629,170.198 Q248.607,170.198 245.187,167.683 Q241.767,165.169 240.395,160.769 Q239.022,156.369 239.022,150.675 L239.022,129.735 Q239.022,123.721 240.395,119.321 Q241.767,114.921 245.187,112.513 Q248.607,110.105 254.629,110.105 Q260.254,110.105 263.471,112.19 Q266.689,114.274 268.059,118.078 Q269.429,121.882 269.429,127.02 L269.429,131.88 L259.825,131.88 L259.825,126.854 Q259.825,124.379 259.591,122.348 Q259.356,120.316 258.283,119.108 Q257.21,117.9 254.662,117.9 Q252.114,117.9 250.924,119.179 Q249.734,120.459 249.399,122.614 Q249.064,124.77 249.064,127.457 L249.064,152.951 Q249.064,156.099 249.549,158.184 Q250.033,160.27 251.256,161.3 Q252.479,162.331 254.662,162.331 Q257.143,162.331 258.216,161.07 Q259.288,159.809 259.557,157.687 Q259.825,155.566 259.825,152.987 L259.825,147.706 L269.429,147.706 L269.429,152.425 Q269.429,157.599 268.125,161.616 Q266.822,165.634 263.621,167.916 Q260.42,170.198 254.629,170.198 z" fill="#082126"/>
        <path d="M271.365,169.434 L282.328,110.762 L293.009,110.762 L303.935,169.434 L294.68,169.434 L292.527,155.891 L282.98,155.891 L280.728,169.434 z M284.029,149.051 L291.444,149.051 L287.72,124.445 z" fill="#082126"/>
        <path d="M307.537,169.434 L307.537,110.762 L320.648,110.762 Q326.157,110.762 329.984,112.188 Q333.81,113.615 335.813,117.018 Q337.816,120.422 337.816,126.298 Q337.816,129.814 337.209,132.622 Q336.603,135.429 335.134,137.423 Q333.664,139.418 331.091,140.548 L338.725,169.434 L328.706,169.434 L322.135,142.545 L317.477,142.545 L317.477,169.434 z M317.477,135.855 L320.628,135.855 Q323.523,135.855 325.237,134.929 Q326.95,134.004 327.705,132.034 Q328.46,130.064 328.46,126.895 Q328.46,122.463 326.946,120.275 Q325.433,118.087 321.136,118.087 L317.477,118.087 z" fill="#082126"/>
        <path d="M343.434,169.434 L343.434,110.762 L366.401,110.762 L366.401,118.267 L353.374,118.267 L353.374,135.174 L363.623,135.174 L363.623,142.614 L353.374,142.614 L353.374,162.071 L366.536,162.071 L366.536,169.434 z" fill="#082126"/>
        <path d="M370.564,169.434 L370.564,110.762 L393.531,110.762 L393.531,118.267 L380.504,118.267 L380.504,135.174 L390.753,135.174 L390.753,142.614 L380.504,142.614 L380.504,162.071 L393.666,162.071 L393.666,169.434 z" fill="#082126"/>
        <path d="M397.577,169.434 L397.577,110.762 L410.687,110.762 Q416.197,110.762 420.023,112.188 Q423.849,113.615 425.852,117.018 Q427.855,120.422 427.855,126.298 Q427.855,129.814 427.249,132.622 Q426.642,135.429 425.173,137.423 Q423.703,139.418 421.131,140.548 L428.764,169.434 L418.745,169.434 L412.174,142.545 L407.517,142.545 L407.517,169.434 z M407.517,135.855 L410.667,135.855 Q413.563,135.855 415.276,134.929 Q416.99,134.004 417.744,132.034 Q418.499,130.064 418.499,126.895 Q418.499,122.463 416.986,120.275 Q415.472,118.087 411.175,118.087 L407.517,118.087 z" fill="#082126"/>
        <path d="M448.701,169.434 L448.701,110.762 L461.609,110.762 Q468.249,110.762 472.025,112.716 Q475.8,114.671 477.373,118.711 Q478.946,122.751 478.946,128.989 L478.946,150.425 Q478.946,156.841 477.373,161.059 Q475.8,165.277 472.108,167.355 Q468.415,169.434 461.973,169.434 z M458.641,161.959 L461.711,161.959 Q465.169,161.959 466.647,160.669 Q468.126,159.379 468.463,156.87 Q468.799,154.36 468.799,150.737 L468.799,128.321 Q468.799,124.768 468.346,122.578 Q467.892,120.389 466.381,119.384 Q464.87,118.379 461.578,118.379 L458.641,118.379 z" fill="#082126"/>
        <path d="M484.835,169.434 L484.835,110.762 L494.71,110.762 L494.71,169.434 z" fill="#082126"/>
        <path d="M501.207,169.434 L501.207,110.762 L514.318,110.762 Q519.827,110.762 523.654,112.188 Q527.48,113.615 529.483,117.018 Q531.485,120.422 531.485,126.298 Q531.485,129.814 530.879,132.622 Q530.273,135.429 528.804,137.423 Q527.334,139.418 524.761,140.548 L532.395,169.434 L522.376,169.434 L515.805,142.545 L511.147,142.545 L511.147,169.434 z M511.147,135.855 L514.298,135.855 Q517.193,135.855 518.907,134.929 Q520.62,134.004 521.375,132.034 Q522.13,130.064 522.13,126.895 Q522.13,122.463 520.616,120.275 Q519.103,118.087 514.806,118.087 L511.147,118.087 z" fill="#082126"/>
        <path d="M537.221,169.434 L537.221,110.762 L560.188,110.762 L560.188,118.267 L547.161,118.267 L547.161,135.174 L557.41,135.174 L557.41,142.614 L547.161,142.614 L547.161,162.071 L560.323,162.071 L560.323,169.434 z" fill="#082126"/>
        <path d="M579.083,170.198 Q573.061,170.198 569.641,167.683 Q566.221,165.169 564.848,160.769 Q563.476,156.369 563.476,150.675 L563.476,129.735 Q563.476,123.721 564.848,119.321 Q566.221,114.921 569.641,112.513 Q573.061,110.105 579.083,110.105 Q584.707,110.105 587.925,112.19 Q591.142,114.274 592.512,118.078 Q593.883,121.882 593.883,127.02 L593.883,131.88 L584.279,131.88 L584.279,126.854 Q584.279,124.379 584.044,122.348 Q583.81,120.316 582.737,119.108 Q581.664,117.9 579.115,117.9 Q576.568,117.9 575.378,119.179 Q574.188,120.459 573.853,122.614 Q573.518,124.77 573.518,127.457 L573.518,152.951 Q573.518,156.099 574.002,158.184 Q574.487,160.27 575.709,161.3 Q576.932,162.331 579.115,162.331 Q581.596,162.331 582.669,161.07 Q583.742,159.809 584.01,157.687 Q584.279,155.566 584.279,152.987 L584.279,147.706 L593.883,147.706 L593.883,152.425 Q593.883,157.599 592.579,161.616 Q591.275,165.634 588.074,167.916 Q584.873,170.198 579.083,170.198 z" fill="#082126"/>
        <path d="M604.399,169.434 L604.399,118.679 L595.663,118.679 L595.663,110.762 L622.945,110.762 L622.945,118.679 L614.375,118.679 L614.375,169.434 z" fill="#082126"/>
        <path d="M626.313,169.434 L626.313,110.762 L636.187,110.762 L636.187,169.434 z" fill="#082126"/>
        <path d="M657.898,170.198 Q652.04,170.198 648.589,167.88 Q645.138,165.562 643.649,161.233 Q642.16,156.905 642.16,150.998 L642.16,128.985 Q642.16,123.041 643.665,118.82 Q645.171,114.599 648.606,112.352 Q652.04,110.105 657.898,110.105 Q663.788,110.105 667.224,112.369 Q670.66,114.634 672.166,118.837 Q673.671,123.041 673.671,128.985 L673.671,151.033 Q673.671,156.905 672.166,161.216 Q670.66,165.527 667.224,167.862 Q663.788,170.198 657.898,170.198 z M657.898,162.331 Q660.346,162.331 661.552,161.159 Q662.758,159.987 663.158,157.99 Q663.559,155.994 663.559,153.557 L663.559,126.533 Q663.559,124.059 663.158,122.116 Q662.758,120.174 661.552,119.037 Q660.346,117.9 657.898,117.9 Q655.518,117.9 654.296,119.037 Q653.074,120.174 652.673,122.116 Q652.272,124.059 652.272,126.533 L652.272,153.557 Q652.272,155.994 652.656,157.99 Q653.04,159.987 654.244,161.159 Q655.448,162.331 657.898,162.331 z" fill="#082126"/>
        <path d="M678.98,169.434 L678.98,110.762 L685.893,110.762 L699.206,144.198 L699.206,110.762 L707.444,110.762 L707.444,169.434 L700.869,169.434 L687.458,134.349 L687.458,169.434 z" fill="#082126"/>
      </g>
      <path d="M91.668,182.751 L135.872,196 L179.22,184.305 L136.288,169.279 z" fill="#F7D537"/>
      <path d="M181.371,95.401 L138.023,107.096 L182.226,120.344 L225.575,108.651 z" fill="#F7D537"/>
      <path d="M179.691,126.686 L137.461,113.64 L137.461,162.692 L179.691,176.84 z" fill="#F7D537"/>
      <path d="M202.134,136.478 C201.151,137.941 200.662,139.625 200.668,141.535 L200.664,146.415 C200.665,146.629 200.763,146.709 200.96,146.66 L211.857,142.978 C212.053,142.93 212.153,142.8 212.153,142.587 L212.141,138.676 C212.136,136.768 211.637,135.327 210.648,134.349 C209.659,133.373 208.35,133.085 206.723,133.486 C205.143,133.874 203.117,135.016 202.134,136.478 M217.595,146.985 L200.962,152.487 C200.765,152.536 200.668,152.668 200.668,152.878 L200.709,157.042 C200.715,158.951 201.212,160.394 202.202,161.371 C203.191,162.347 204.474,162.64 206.054,162.252 C207.433,161.912 208.592,161.176 209.528,160.042 C210.462,158.912 211.097,157.309 211.34,155.817 C211.487,155.356 211.757,155.077 212.153,154.98 L217.726,153.043 C217.973,152.982 218.159,153.016 218.282,153.145 C218.405,153.274 218.443,153.451 218.395,153.674 C218.059,157.207 216.699,161.394 214.609,163.845 C212.517,166.298 209.672,167.965 206.073,168.852 C202.274,169.788 199.249,169.393 197,167.665 C194.749,165.939 193.62,163.165 193.609,159.349 L193.565,142.807 C193.554,139.043 194.667,135.718 196.905,132.832 C199.143,129.946 202.16,128.035 205.958,127.101 C209.805,126.153 212.841,126.572 215.067,128.358 C217.292,130.145 218.41,132.92 218.42,136.683 L218.331,146.008 C218.333,146.539 218.088,146.864 217.595,146.985" fill="#082126"/>
    </g>
  </g>
</svg>
