<?xml version="1.0" encoding="UTF-8"?>
<!DOCTYPE svg PUBLIC "-//W3C//DTD SVG 1.1//EN" "http://www.w3.org/Graphics/SVG/1.1/DTD/svg11.dtd">
<svg version="1.1" xmlns="http://www.w3.org/2000/svg" xmlns:xlink="http://www.w3.org/1999/xlink" x="0" y="0" width="281.327" height="266.098" viewBox="0, 0, 281.327, 266.098">
  <g id="Layer_1" transform="translate(-162.731, -600.747)">
    <g>
      <path d="M303.395,836.729 C225.709,836.729 162.731,790.701 162.731,733.923 C162.731,677.144 225.709,631.116 303.395,631.116 C381.081,631.116 444.059,677.144 444.059,733.923 C444.059,790.701 381.081,836.729 303.395,836.729 z" fill="#383838"/>
      <g>
        <path d="M303.395,826.844 C252.006,826.844 210.346,785.185 210.346,733.796 C210.346,682.406 252.006,640.747 303.395,640.747 C354.784,640.747 396.444,682.406 396.444,733.796 C396.444,785.185 354.784,826.844 303.395,826.844 z" fill="#55B99E"/>
        <path d="M303.395,630.747 C360.307,630.747 406.444,676.883 406.444,733.795 C406.444,790.708 360.307,836.844 303.395,836.844 C246.483,836.844 200.346,790.708 200.346,733.795 C200.346,676.883 246.483,630.747 303.395,630.747 z M303.395,640.747 C252.006,640.747 210.346,682.406 210.346,733.795 C210.346,785.185 252.006,826.844 303.395,826.844 C354.784,826.844 396.444,785.185 396.444,733.795 C396.444,682.406 354.784,640.747 303.395,640.747 z" fill="#FFFFFF"/>
      </g>
      <path d="M354.265,753.547 C339.51,761.228 326.978,765.675 308.99,765.796 C298.776,765.864 290.919,763.439 285.943,759.248 C283.324,756.891 281.753,753.486 281.229,750.606 C334.394,752.177 363.726,739.082 363.726,706.869 C363.726,680.417 342.775,665.751 316.061,665.751 C267.348,665.751 239.064,705.297 239.064,744.582 C239.064,780.462 259.759,799.726 297.466,800.366 C313.994,800.647 330.516,798.453 349.23,787.049 L354.265,753.547 z M322.085,706.607 C322.085,714.726 312.656,718.654 285.419,718.392 C286.729,710.012 294.586,697.964 310.561,697.964 C317.894,697.964 322.085,701.893 322.085,706.345 z" fill="#FFFFFF"/>
    </g>
  </g>
</svg>
