<?xml version="1.0" encoding="UTF-8"?>
<!DOCTYPE svg PUBLIC "-//W3C//DTD SVG 1.1//EN" "http://www.w3.org/Graphics/SVG/1.1/DTD/svg11.dtd">
<svg version="1.1" xmlns="http://www.w3.org/2000/svg" xmlns:xlink="http://www.w3.org/1999/xlink" x="0" y="0" width="148" height="68" viewBox="0, 0, 148, 68">
  <g id="Layer_1" transform="translate(-193, -341)">
    <path d="M217.026,341 L316.974,341 C330.243,341 341,352.532 341,366.758 L341,383.242 C341,397.468 330.243,409 316.974,409 L217.026,409 C203.757,409 193,397.468 193,383.242 L193,366.758 C193,352.532 203.757,341 217.026,341 z" fill="#000000"/>
    <path d="M278.924,387.694 C276.797,388.529 273.077,389.213 269.735,389.213 C260.32,389.213 254.776,383.441 254.776,374.101 C254.776,363.622 261.61,358.99 269.508,358.99 C273.608,358.99 276.721,359.902 279,360.813 L281.657,350.03 C279.531,348.891 274.747,347.752 268.824,347.752 C253.561,347.752 240.349,356.94 240.349,375.013 C240.349,388.605 248.777,400.603 267.913,400.603 C274.064,400.603 278.848,399.388 280.822,398.477 z" fill="#FFFFFF"/>
    <path d="M284.479,399.861 C287.136,400.317 291.54,400.772 298.147,400.772 C308.17,400.772 316.523,398.798 322.142,394.394 C327.154,390.521 331.103,383.763 331.103,373.36 C331.103,363.944 327.458,357.565 321.838,353.693 C316.751,350.2 310.6,348.605 300.805,348.605 C294.73,348.605 288.883,348.985 284.479,349.668 z M298.223,359.388 C298.906,359.236 300.197,359.084 302.399,359.084 C310.6,359.084 316.523,363.792 316.523,373.739 C316.523,385.281 309.993,390.217 301.108,390.065 C300.197,390.065 298.906,390.065 298.223,389.914 z" fill="#FFFFFF"/>
    <path d="M233.125,388.301 C229.859,389.82 226.29,390.579 222.494,390.579 C219.532,390.579 217.254,389.896 215.811,388.681 C215.052,387.998 214.597,387.01 214.445,386.175 C229.859,386.631 238.364,382.834 238.364,373.494 C238.364,365.825 232.289,361.572 224.544,361.572 C210.42,361.572 202.219,373.038 202.219,384.429 C202.219,394.832 208.218,400.603 219.153,400.603 C222.949,400.603 228.796,400.071 233.808,397.641 z M226.29,373.418 C226.29,375.772 223.557,376.911 215.66,376.835 C216.039,374.405 218.317,370.912 222.949,370.912 C225.076,370.912 226.29,372.051 226.29,373.342 z" fill="#01BC9D"/>
  </g>
</svg>
