<?xml version="1.0" encoding="UTF-8"?>
<!DOCTYPE svg PUBLIC "-//W3C//DTD SVG 1.1//EN" "http://www.w3.org/Graphics/SVG/1.1/DTD/svg11.dtd">
<svg version="1.1" xmlns="http://www.w3.org/2000/svg" xmlns:xlink="http://www.w3.org/1999/xlink" x="0" y="0" width="598.368" height="427.055" viewBox="0, 0, 598.368, 427.055">
  <g id="Layer_1" transform="translate(0, 0)">
    <path d="M7.198,117.764 L62.749,117.764 C63.614,117.764 63.665,117.661 63.665,116.849 L63.665,101.754 C63.665,101.115 63.551,100.959 63.549,100.956 C63.547,100.956 63.376,100.838 62.749,100.838 L23.511,100.838 L23.511,67.345 L53.843,67.345 C54.361,67.345 54.758,67.267 54.758,66.279 L54.758,51.335 C54.758,50.347 54.361,50.268 53.843,50.268 L26.747,50.268 L26.747,67.134 L23.747,67.134 L23.747,50.268 L23.511,50.268 L23.511,20.113 L6.434,20.113 L6.434,116.849 C6.434,117.694 6.828,117.764 7.198,117.764" fill="#1A1919"/>
    <path d="M23.511,17.077 L62.749,17.077 C63.43,17.077 63.665,17.026 63.665,16.011 L63.665,0.915 C63.665,0.104 63.614,-0 62.749,-0 L7.198,-0 C6.828,-0 6.434,0.071 6.434,0.915 L6.434,17.113 L23.511,17.113 L23.511,17.077" fill="#1A1919"/>
    <path d="M96.122,32.022 L111.51,32.022 C116.301,32.022 119.048,34.824 119.048,39.711 L119.048,93.3 C119.048,94.103 118.968,94.84 118.824,95.521 L118.824,117.422 L115.824,117.422 L115.824,99.846 C114.672,100.496 113.231,100.838 111.51,100.838 L96.122,100.838 L96.122,35.103 L78.592,35.103 L78.592,116.849 C78.592,117.679 78.678,117.764 79.507,117.764 L115.736,117.764 C129.165,117.764 135.974,110.955 135.974,97.527 L135.974,35.484 C135.974,22.146 128.976,15.096 115.736,15.096 L79.507,15.096 C78.746,15.096 78.592,15.25 78.592,16.011 L78.592,32.103 L96.122,32.103 L96.122,32.022" fill="#1A1919"/>
    <path d="M177.966,117.422 L177.966,100.838 L175.97,100.838 C171.108,100.838 168.432,98.161 168.432,93.3 L168.432,16.615 C168.432,15.778 167.75,15.096 166.912,15.096 L152.42,15.096 C151.583,15.096 150.901,15.778 150.901,16.615 L150.901,97.527 C150.901,110.955 157.71,117.764 171.139,117.764 L188.046,117.764 C201.475,117.764 208.283,110.955 208.283,97.527 L208.283,16.615 C208.283,15.778 207.602,15.096 206.765,15.096 L192.876,15.096 C192.039,15.096 191.358,15.778 191.358,16.615 L191.358,93.3 C191.358,98.161 188.681,100.838 183.819,100.838 L180.966,100.838 L180.966,117.422 L177.966,117.422" fill="#1A1919"/>
    <path d="M240.389,96.978 C240.127,96.115 239.985,95.143 239.985,94.055 L239.985,39.258 C239.985,37.356 240.401,35.794 241.191,34.59 L227.496,21.266 C224.672,24.632 223.21,29.335 223.21,35.333 L223.21,97.527 C223.21,102.92 224.399,107.258 226.687,110.529 L240.347,96.935 L240.389,96.978" fill="#1A1919"/>
    <path d="M260.505,117.764 C273.745,117.764 280.743,110.766 280.743,97.527 L280.743,81.224 C280.743,80.539 280.512,80.308 279.827,80.308 L265.638,80.308 C264.877,80.308 264.723,80.462 264.723,81.224 L264.723,94.055 C264.723,98.916 262.046,101.593 257.185,101.593 L247.524,101.593 C245.075,101.593 243.182,100.912 241.905,99.617 L228.639,112.819 C232.065,116.079 237.074,117.764 243.599,117.764 L260.505,117.764" fill="#1A1919"/>
    <path d="M247.524,31.72 L257.185,31.72 C261.904,31.72 264.723,34.538 264.723,39.258 L264.723,51.637 C264.723,52.398 264.877,52.552 265.638,52.552 L279.827,52.552 C280.512,52.552 280.743,52.321 280.743,51.637 L280.743,35.333 C280.743,22.094 273.745,15.096 260.505,15.096 L243.599,15.096 C237.684,15.096 233.013,16.479 229.637,19.164 L243.437,32.589 C244.549,32.02 245.914,31.72 247.524,31.72" fill="#1A1919"/>
    <path d="M346.799,116.782 C347.019,117.764 347.362,117.764 347.761,117.764 L362.403,117.764 C362.913,117.764 363.113,117.667 363.156,117.641 C363.145,117.627 363.169,117.456 363.069,117.093 L358.952,100.499 L342.664,100.499 L346.799,116.782" fill="#1A1919"/>
    <path d="M341.902,97.499 L358.207,97.499 L354.353,81.965 L334.813,82.289 L334.81,82.12 L317.828,82.12 L314.145,96.631 L341.682,96.631 L341.902,97.499" fill="#1A1919"/>
    <path d="M326.325,32.912 L337.057,79.251 L353.611,78.977 L338.002,16.071 C337.842,15.274 337.626,15.096 336.892,15.096 L315.909,15.096 C315.175,15.096 314.959,15.274 314.814,16.003 L289.74,117.059 C289.628,117.472 289.656,117.654 289.667,117.695 C289.667,117.694 289.838,117.764 290.246,117.764 L305.04,117.764 C305.439,117.764 305.782,117.764 305.991,116.826 L310.959,96.631 L311.049,96.631 L316.96,73.348 L326.325,32.912" fill="#1A1919"/>
    <path d="M379.907,116.849 C379.907,117.611 380.062,117.764 380.822,117.764 L396.522,117.764 C397.351,117.764 397.437,117.679 397.437,116.849 L397.437,35.569 L379.907,35.569 L379.907,116.849" fill="#1A1919"/>
    <path d="M360.897,15.096 C360.212,15.096 359.981,15.327 359.981,16.011 L359.981,31.107 C359.981,31.791 360.212,32.022 360.897,32.022 L377.142,32.022 L377.142,15.096 L360.897,15.096" fill="#1A1919"/>
    <path d="M397.437,32.569 L397.437,32.022 L416.447,32.022 C417.209,32.022 417.363,31.868 417.363,31.107 L417.363,16.011 C417.363,15.25 417.209,15.096 416.447,15.096 L380.142,15.096 L380.142,32.569 L397.437,32.569" fill="#1A1919"/>
    <path d="M445.292,16.011 C445.292,15.327 445.061,15.096 444.376,15.096 L429.252,15.096 L445.292,35.178 L445.292,16.011" fill="#1A1919"/>
    <path d="M428.677,117.764 L444.376,117.764 C445.061,117.764 445.292,117.533 445.292,116.849 L445.292,39.985 L427.762,18.037 L427.762,116.849 C427.762,117.611 427.916,117.764 428.677,117.764" fill="#1A1919"/>
    <path d="M497.36,15.096 L480.453,15.096 C467.024,15.096 460.216,21.905 460.216,35.333 L460.216,97.527 C460.216,105.402 462.576,110.981 467.22,114.265 L465.546,112.715 L478.365,98.87 C477.363,97.618 476.84,95.9 476.84,93.753 L476.84,39.107 C476.84,34.387 479.658,31.569 484.378,31.569 L494.039,31.569 C496.035,31.569 497.686,32.078 498.933,33.017 L513.081,20.82 C509.711,17.027 504.474,15.096 497.36,15.096" fill="#1A1919"/>
    <path d="M501.577,39.107 L501.577,93.753 C501.577,98.614 498.9,101.291 494.039,101.291 L484.378,101.291 C483.005,101.291 481.814,101.071 480.801,100.655 L467.819,114.676 C471.027,116.722 475.233,117.764 480.453,117.764 L497.36,117.764 C510.789,117.764 517.598,110.955 517.598,97.527 L517.598,35.333 C517.598,30.411 516.674,26.387 514.853,23.253 L500.816,35.354 C501.313,36.413 501.577,37.671 501.577,39.107" fill="#1A1919"/>
    <path d="M532.525,116.849 C532.525,117.533 532.756,117.764 533.441,117.764 L547.631,117.764 C548.392,117.764 548.546,117.611 548.546,116.849 L548.546,59.369 L532.525,23.221 L532.525,116.849" fill="#1A1919"/>
    <path d="M552.752,61.456 L552.638,61.507 L579.771,116.64 C580.25,117.715 580.587,117.764 581.143,117.764 L593.068,117.764 C593.753,117.764 593.983,117.533 593.983,116.849 L593.983,16.011 C593.983,15.327 593.753,15.096 593.068,15.096 L578.878,15.096 C578.117,15.096 577.963,15.25 577.963,16.011 L577.963,79.668 L546.737,16.221 C546.259,15.146 545.922,15.096 545.366,15.096 L533.441,15.096 C532.756,15.096 532.525,15.327 532.525,16.011 L532.525,16.019 L532.6,15.986 L552.752,61.456" fill="#1A1919"/>
    <path d="M149.014,326.218 L156.863,326.218 C161.583,326.218 164.401,329.035 164.401,333.756 L164.401,345.832 C164.401,346.594 164.556,346.747 165.317,346.747 L180.412,346.747 C181.097,346.747 181.328,346.516 181.328,345.832 L181.328,329.529 C181.328,316.289 174.33,309.291 161.09,309.291 L144.184,309.291 C138.413,309.291 133.824,310.607 130.469,313.165 L143.534,328.064 C144.808,326.855 146.65,326.218 149.014,326.218" fill="#1A1919"/>
    <path d="M128.288,315.229 C125.331,318.609 123.795,323.388 123.795,329.529 L123.795,406.818 C123.795,412.46 125.087,416.957 127.588,420.273 L141.546,406.264 L143.037,407.749 C142.013,406.493 141.476,404.762 141.476,402.591 L141.476,333.756 C141.476,332.003 141.829,330.538 142.502,329.377 L141.481,330.272 L128.288,315.229" fill="#1A1919"/>
    <path d="M144.184,427.055 L161.09,427.055 C174.33,427.055 181.328,420.057 181.328,406.818 L181.328,390.515 C181.328,389.83 181.097,389.599 180.412,389.599 L165.317,389.599 C164.556,389.599 164.401,389.753 164.401,390.515 L164.401,402.591 C164.401,407.452 161.725,410.129 156.863,410.129 L149.014,410.129 C146.725,410.129 144.928,409.529 143.659,408.393 L129.634,422.47 C133.046,425.488 137.91,427.055 144.184,427.055" fill="#1A1919"/>
    <path d="M212.879,403.044 L212.879,348.398 C212.879,343.678 215.697,340.86 220.417,340.86 L230.078,340.86 C231.365,340.86 232.504,341.076 233.489,341.476 L247.992,328.974 C244.622,325.935 239.764,324.387 233.399,324.387 L216.492,324.387 C203.064,324.387 196.255,331.196 196.255,344.624 L196.255,406.818 C196.255,412.863 197.647,417.553 200.389,420.899 L213.544,406.692 C213.109,405.664 212.879,404.449 212.879,403.044" fill="#1A1919"/>
    <path d="M237.616,348.398 L237.616,403.044 C237.616,407.905 234.94,410.582 230.078,410.582 L220.417,410.582 C218.317,410.582 216.628,410.081 215.382,409.121 L202.518,423.015 C205.856,425.698 210.514,427.055 216.492,427.055 L233.399,427.055 C246.828,427.055 253.637,420.246 253.637,406.818 L253.637,344.624 C253.637,338.963 252.412,334.493 250.006,331.199 L235.992,343.28 C237.045,344.549 237.616,346.28 237.616,348.398" fill="#1A1919"/>
    <path d="M268.565,426.14 C268.565,426.824 268.795,427.055 269.48,427.055 L283.67,427.055 C284.431,427.055 284.585,426.902 284.585,426.14 L284.585,368.88 L268.565,332.731 L268.565,426.14" fill="#1A1919"/>
    <path d="M288.456,370.349 L315.81,425.931 C316.289,427.006 316.626,427.055 317.182,427.055 L329.108,427.055 C329.792,427.055 330.023,426.824 330.023,426.14 L330.023,325.302 C330.023,324.618 329.792,324.387 329.108,324.387 L314.917,324.387 C314.156,324.387 314.002,324.541 314.002,325.302 L314.002,388.959 L282.776,325.512 C282.298,324.437 281.961,324.387 281.405,324.387 L269.48,324.387 C268.795,324.387 268.565,324.618 268.565,325.302 L268.565,325.327 L288.507,370.326 L288.456,370.349" fill="#1A1919"/>
    <path d="M402.33,372.4 C402.33,371.638 402.176,371.485 401.415,371.485 L376.96,371.485 C376.131,371.485 376.045,371.57 376.045,372.4 L376.045,387.495 C376.045,388.257 376.199,388.411 376.96,388.411 L386.31,388.411 L386.31,388.661 L402.33,388.661 L402.33,372.4" fill="#1A1919"/>
    <path d="M369.11,340.86 L378.772,340.86 C383.491,340.86 386.31,343.678 386.31,348.398 L386.31,355.795 C386.31,356.556 386.464,356.71 387.226,356.71 L401.415,356.71 C402.1,356.71 402.33,356.479 402.33,355.795 L402.33,344.624 C402.33,331.385 395.332,324.387 382.093,324.387 L365.186,324.387 C359.102,324.387 354.391,325.8 351.043,328.577 L364.906,341.793 C366.039,341.182 367.443,340.86 369.11,340.86" fill="#1A1919"/>
    <path d="M386.31,403.044 C386.31,407.905 383.633,410.582 378.772,410.582 L369.11,410.582 C364.249,410.582 361.572,407.905 361.572,403.044 L361.572,348.398 C361.572,346.554 361.959,345.027 362.703,343.838 L348.934,330.712 C346.286,334.046 344.948,338.684 344.948,344.624 L344.948,406.818 C344.948,420.246 351.757,427.055 365.186,427.055 L382.093,427.055 C395.332,427.055 402.33,420.057 402.33,406.818 L402.33,391.661 L386.31,391.661 L386.31,403.044" fill="#1A1919"/>
    <path d="M433.882,403.044 L433.882,348.398 C433.882,343.678 436.7,340.86 441.42,340.86 L451.081,340.86 C452.233,340.86 453.269,341.031 454.181,341.353 L468.771,328.776 C465.41,325.869 460.627,324.387 454.402,324.387 L437.495,324.387 C424.066,324.387 417.258,331.196 417.258,344.624 L417.258,406.818 C417.258,412.706 418.568,417.321 421.171,420.648 L434.408,406.351 C434.062,405.398 433.882,404.295 433.882,403.044" fill="#1A1919"/>
    <path d="M458.619,348.398 L458.619,403.044 C458.619,407.905 455.942,410.582 451.081,410.582 L441.42,410.582 C439.171,410.582 437.397,410.003 436.131,408.906 L423.272,422.795 C426.625,425.618 431.361,427.055 437.495,427.055 L454.402,427.055 C467.831,427.055 474.64,420.246 474.64,406.818 L474.64,344.624 C474.64,338.826 473.364,334.268 470.84,330.953 L456.798,343.058 C457.975,344.345 458.619,346.153 458.619,348.398" fill="#1A1919"/>
    <path d="M154.682,213.825 L170.709,229.851 L229.73,172.518 L349.211,281.456 L259.442,281.456 L297.712,239.389 L282.223,225.267 L204.809,304.289 L401.435,304.289 L230.906,138.146 L154.682,213.825" fill="#B0402C"/>
    <path d="M366.409,169.449 L434.739,231.951 L449.514,218.994 L367.039,138.176 L303.584,203.91 L318.359,218.306 L366.409,169.449" fill="#B0402C"/>
    <path d="M267.175,137.419 L300.971,166.777 L331.395,137.419 L267.175,137.419" fill="#1A1919"/>
    <path d="M517.598,216.482 L453.966,158.464 L543.734,158.464 L505.466,200.532 L520.954,214.654 L598.368,135.632 L401.742,135.632 L502.507,233.805" fill="#B7792D"/>
    <path d="M436.768,270.472 L368.437,207.97 L353.663,220.927 L436.138,301.744 L499.594,236.011 L484.817,221.615 L436.768,270.472" fill="#B7792D"/>
    <path d="M499.594,236.011 L495.066,231.6 L499.594,236.011" fill="#1A1919"/>
    <path d="M246.753,226.095 L230.727,210.069 L171.706,267.403 L52.224,158.464 L141.992,158.464 L103.724,200.532 L119.213,214.654 L196.626,135.632 L-0,135.632 L170.53,301.775 L246.753,226.095" fill="#356E8D"/>
  </g>
</svg>
