<?xml version="1.0" encoding="UTF-8"?>
<!DOCTYPE svg PUBLIC "-//W3C//DTD SVG 1.1//EN" "http://www.w3.org/Graphics/SVG/1.1/DTD/svg11.dtd">
<svg version="1.1" xmlns="http://www.w3.org/2000/svg" xmlns:xlink="http://www.w3.org/1999/xlink" x="0" y="0" width="811.096" height="250.344" viewBox="0, 0, 811.096, 250.344">
  <g id="Layer_1" transform="translate(-64.268, -31.208)">
    <g>
      <path d="M663.79,69.141 C663.79,69.141 663.79,97.766 663.79,120.016 C663.79,144.141 675.837,163.777 683.915,175.641 C699.915,199.141 724.665,214.391 724.665,214.391 C724.665,214.391 752.165,200.141 772.915,165.641 C782.969,148.924 786.415,131.266 786.415,118.141 C786.415,106.766 786.415,69.141 786.415,69.141 L663.79,69.141 z" fill="#FFFFFF"/>
      <path d="M663.79,69.141 C663.79,69.141 663.79,97.766 663.79,120.016 C663.79,144.141 675.837,163.777 683.915,175.641 C699.915,199.141 724.665,214.391 724.665,214.391 C724.665,214.391 752.165,200.141 772.915,165.641 C782.969,148.924 786.415,131.266 786.415,118.141 C786.415,106.766 786.415,69.141 786.415,69.141 L663.79,69.141 z" fill-opacity="0" stroke="#0F0D15" stroke-width="1.875"/>
    </g>
    <path d="M641.585,45.685 L641.585,50.843 C641.585,52.988 642.167,53.67 643.842,53.67 L643.842,54.199 L636.766,54.199 L636.766,53.67 C638.269,53.67 638.988,53.204 638.988,50.843 L638.988,39.751 C638.988,37.638 638.509,36.923 636.766,36.923 L636.766,36.395 L643.842,36.395 L643.842,36.923 C642.303,36.923 641.585,37.483 641.585,39.751 L641.585,44.815 L652.252,44.815 L652.252,39.751 C652.252,37.576 651.739,36.923 650.063,36.923 L650.063,36.395 L657.072,36.395 L657.072,36.923 C655.397,36.923 654.851,37.638 654.851,39.751 L654.851,50.843 C654.851,52.956 655.397,53.67 657.072,53.67 L657.072,54.199 L650.063,54.199 L650.063,53.67 C651.602,53.67 652.252,53.204 652.252,50.843 L652.252,45.685 z" fill="#000000"/>
    <path d="M641.585,45.685 L641.585,50.842 C641.585,52.988 642.167,53.67 643.842,53.67 L643.842,54.199 L636.766,54.199 L636.766,53.67 C638.269,53.67 638.988,53.204 638.988,50.842 L638.988,39.751 C638.988,37.638 638.509,36.923 636.766,36.923 L636.766,36.395 L643.842,36.395 L643.842,36.923 C642.303,36.923 641.585,37.483 641.585,39.751 L641.585,44.815 L652.252,44.815 L652.252,39.751 C652.252,37.576 651.739,36.923 650.063,36.923 L650.063,36.395 L657.072,36.395 L657.072,36.923 C655.397,36.923 654.851,37.638 654.851,39.751 L654.851,50.842 C654.851,52.956 655.397,53.67 657.072,53.67 L657.072,54.199 L650.063,54.199 L650.063,53.67 C651.602,53.67 652.252,53.204 652.252,50.842 L652.252,45.685 z" fill-opacity="0" stroke="#000000" stroke-width="0.5"/>
    <path d="M673.206,38.353 L673.138,38.353 L670.403,45.903 L675.906,45.903 z M676.352,46.99 L670.027,46.99 L668.694,50.563 C668.044,52.303 667.702,53.639 669.753,53.67 L669.753,54.199 L664.694,54.199 L664.694,53.67 C666.541,53.422 666.984,52.521 667.599,50.875 L673,36.208 L675.018,36.208 L680.694,51.526 C681.274,53.173 681.752,53.67 683.496,53.67 L683.496,54.199 L676.59,54.199 L676.59,53.67 C677.923,53.67 678.573,53.142 678.129,51.93 z" fill="#000000"/>
    <path d="M673.206,38.353 L673.138,38.353 L670.403,45.903 L675.906,45.903 z M676.352,46.99 L670.027,46.99 L668.694,50.563 C668.044,52.303 667.702,53.639 669.753,53.67 L669.753,54.199 L664.694,54.199 L664.694,53.67 C666.541,53.422 666.984,52.52 667.599,50.875 L673,36.208 L675.018,36.208 L680.694,51.526 C681.274,53.173 681.752,53.67 683.496,53.67 L683.496,54.199 L676.59,54.199 L676.59,53.67 C677.923,53.67 678.573,53.142 678.129,51.93 z" fill-opacity="0" stroke="#000000" stroke-width="0.5"/>
    <path d="M695.837,45.219 L698.23,45.219 C701.544,45.219 702.844,43.168 702.844,41.119 C702.844,38.757 700.896,37.079 697.888,37.079 L695.837,37.079 z M695.837,50.843 C695.837,53.018 696.452,53.669 698.059,53.669 L698.059,54.199 L691.015,54.199 L691.015,53.669 C692.52,53.669 693.238,53.235 693.238,50.843 L693.238,39.689 C693.238,37.358 692.589,36.923 691.015,36.923 L691.015,36.395 L699.051,36.395 C703.459,36.395 705.58,38.695 705.58,41.056 C705.58,43.013 704.418,44.66 701.544,45.437 C705.204,47.581 706.434,53.453 709.682,53.669 L709.682,54.199 L705.682,54.199 C702.025,50.159 700.998,45.965 697.41,45.965 L695.837,45.965 z" fill="#000000"/>
    <path d="M695.837,45.219 L698.23,45.219 C701.544,45.219 702.844,43.168 702.844,41.119 C702.844,38.757 700.896,37.079 697.888,37.079 L695.837,37.079 z M695.837,50.842 C695.837,53.018 696.452,53.669 698.059,53.669 L698.059,54.199 L691.015,54.199 L691.015,53.669 C692.52,53.669 693.238,53.235 693.238,50.842 L693.238,39.689 C693.238,37.358 692.589,36.923 691.015,36.923 L691.015,36.395 L699.051,36.395 C703.459,36.395 705.58,38.695 705.58,41.056 C705.58,43.013 704.418,44.66 701.544,45.437 C705.204,47.581 706.434,53.453 709.682,53.669 L709.682,54.199 L705.682,54.199 C702.025,50.159 700.998,45.965 697.41,45.965 L695.837,45.965 z" fill-opacity="0" stroke="#000000" stroke-width="0.5"/>
    <path d="M722.846,54.447 L722.3,54.447 L716.249,40 C715.326,37.824 714.848,36.985 713.001,36.923 L713.001,36.395 L720.112,36.395 L720.112,36.923 C718.71,36.923 718.027,37.607 718.608,39.005 L723.394,50.502 L727.94,39.409 C728.556,37.886 728.248,36.923 726.471,36.923 L726.471,36.395 L732.181,36.395 L732.181,36.954 C730.709,36.954 729.615,37.98 728.624,40.404 z" fill="#000000"/>
    <path d="M722.846,54.447 L722.3,54.447 L716.249,40 C715.326,37.824 714.848,36.985 713.001,36.923 L713.001,36.395 L720.112,36.395 L720.112,36.923 C718.71,36.923 718.027,37.607 718.608,39.005 L723.394,50.502 L727.94,39.409 C728.556,37.886 728.248,36.923 726.471,36.923 L726.471,36.395 L732.181,36.395 L732.181,36.954 C730.709,36.954 729.615,37.98 728.624,40.404 z" fill-opacity="0" stroke="#000000" stroke-width="0.5"/>
    <path d="M744.115,38.353 L744.046,38.353 L741.31,45.903 L746.815,45.903 z M747.259,46.99 L740.936,46.99 L739.601,50.563 C738.953,52.303 738.61,53.639 740.662,53.67 L740.662,54.199 L735.601,54.199 L735.601,53.67 C737.448,53.422 737.892,52.521 738.508,50.875 L743.909,36.208 L745.927,36.208 L751.602,51.526 C752.182,53.173 752.661,53.67 754.404,53.67 L754.404,54.199 L747.499,54.199 L747.499,53.67 C748.832,53.67 749.482,53.142 749.036,51.93 z" fill="#000000"/>
    <path d="M744.115,38.353 L744.046,38.353 L741.31,45.903 L746.815,45.903 z M747.259,46.99 L740.936,46.99 L739.601,50.563 C738.953,52.303 738.61,53.639 740.662,53.67 L740.662,54.199 L735.601,54.199 L735.601,53.67 C737.448,53.422 737.892,52.52 738.508,50.875 L743.909,36.208 L745.927,36.208 L751.602,51.526 C752.182,53.173 752.661,53.67 754.404,53.67 L754.404,54.199 L747.499,54.199 L747.499,53.67 C748.832,53.67 749.482,53.142 749.036,51.93 z" fill-opacity="0" stroke="#000000" stroke-width="0.5"/>
    <path d="M766.745,45.219 L769.138,45.219 C772.453,45.219 773.753,43.168 773.753,41.119 C773.753,38.757 771.805,37.079 768.797,37.079 L766.745,37.079 z M766.745,50.843 C766.745,53.018 767.361,53.669 768.967,53.669 L768.967,54.199 L761.924,54.199 L761.924,53.669 C763.429,53.669 764.147,53.235 764.147,50.843 L764.147,39.689 C764.147,37.358 763.499,36.923 761.924,36.923 L761.924,36.395 L769.96,36.395 C774.368,36.395 776.489,38.695 776.489,41.056 C776.489,43.013 775.327,44.66 772.453,45.437 C776.113,47.581 777.342,53.453 780.591,53.669 L780.591,54.199 L776.591,54.199 C772.934,50.159 771.907,45.965 768.319,45.965 L766.745,45.965 z" fill="#000000"/>
    <path d="M766.745,45.219 L769.138,45.219 C772.453,45.219 773.753,43.168 773.753,41.119 C773.753,38.757 771.805,37.079 768.797,37.079 L766.745,37.079 z M766.745,50.842 C766.745,53.018 767.361,53.669 768.967,53.669 L768.967,54.199 L761.924,54.199 L761.924,53.669 C763.429,53.669 764.147,53.235 764.147,50.842 L764.147,39.689 C764.147,37.358 763.499,36.923 761.924,36.923 L761.924,36.395 L769.96,36.395 C774.368,36.395 776.489,38.695 776.489,41.056 C776.489,43.013 775.327,44.66 772.453,45.437 C776.113,47.581 777.342,53.453 780.591,53.669 L780.591,54.199 L776.591,54.199 C772.934,50.159 771.907,45.965 768.319,45.965 L766.745,45.965 z" fill-opacity="0" stroke="#000000" stroke-width="0.5"/>
    <path d="M792.554,50.222 C792.554,52.987 793.238,53.516 795.051,53.516 L797.066,53.516 C801.922,53.516 804.826,50.47 804.826,45.624 C804.826,41.366 802.468,37.079 796.28,37.079 L792.554,37.079 z M789.956,39.75 C789.956,37.607 789.376,36.924 787.733,36.924 L787.733,36.396 L796.793,36.396 C804.28,36.396 807.835,40.962 807.835,45.593 C807.835,50.066 804.726,54.199 797.032,54.199 L787.733,54.199 L787.733,53.67 C789.307,53.67 789.956,53.048 789.956,50.843 z" fill="#000000"/>
    <path d="M792.554,50.222 C792.554,52.987 793.238,53.516 795.051,53.516 L797.066,53.516 C801.922,53.516 804.826,50.47 804.826,45.624 C804.826,41.366 802.468,37.079 796.28,37.079 L792.554,37.079 z M789.956,39.75 C789.956,37.608 789.376,36.924 787.733,36.924 L787.733,36.396 L796.793,36.396 C804.28,36.396 807.835,40.962 807.835,45.593 C807.835,50.066 804.726,54.199 797.032,54.199 L787.733,54.199 L787.733,53.67 C789.307,53.67 789.956,53.048 789.956,50.843 z" fill-opacity="0" stroke="#000000" stroke-width="0.5"/>
    <path d="M586.39,246.224 C585.492,246.454 582.631,246.581 581.902,246.581 C574.833,246.581 572.477,242.706 572.477,239.34 C572.477,234.162 576.798,231.255 580.752,231.255 C583.025,231.255 583.893,231.944 585.128,231.944 C585.632,231.944 585.858,231.816 586.026,231.459 L586.53,231.459 L586.53,235.769 L586.081,235.769 C585.661,232.989 582.94,231.816 580.752,231.816 C577.442,231.816 574.945,234.443 574.945,238.447 C574.945,242.73 577.751,245.893 581.565,245.893 C582.716,245.893 584.259,245.638 584.259,244.338 L584.259,242.756 C584.259,240.971 583.81,240.334 582.491,240.334 L581.875,240.334 L581.875,239.9 L588.382,239.9 L588.382,240.334 C586.811,240.334 586.39,241.022 586.39,242.298 z" fill="#931430"/>
    <path d="M586.39,246.224 C585.492,246.454 582.631,246.581 581.902,246.581 C574.833,246.581 572.477,242.706 572.477,239.34 C572.477,234.162 576.798,231.255 580.752,231.255 C583.025,231.255 583.893,231.944 585.128,231.944 C585.632,231.944 585.858,231.816 586.026,231.459 L586.53,231.459 L586.53,235.769 L586.081,235.769 C585.661,232.989 582.94,231.816 580.752,231.816 C577.442,231.816 574.945,234.443 574.945,238.447 C574.945,242.73 577.751,245.893 581.565,245.893 C582.716,245.893 584.259,245.638 584.259,244.338 L584.259,242.756 C584.259,240.971 583.81,240.334 582.491,240.334 L581.875,240.334 L581.875,239.9 L588.382,239.9 L588.382,240.334 C586.811,240.334 586.39,241.022 586.39,242.298 z" fill-opacity="0" stroke="#931430" stroke-width="0.5"/>
    <path d="M598.642,238.855 L600.606,238.855 C603.327,238.855 604.392,237.173 604.392,235.489 C604.392,233.551 602.793,232.173 600.324,232.173 L598.642,232.173 z M598.642,243.471 C598.642,245.255 599.147,245.791 600.466,245.791 L600.466,246.224 L594.688,246.224 L594.688,245.791 C595.921,245.791 596.51,245.434 596.51,243.471 L596.51,234.316 C596.51,232.402 595.978,232.045 594.688,232.045 L594.688,231.612 L601.279,231.612 C604.898,231.612 606.637,233.5 606.637,235.438 C606.637,237.044 605.682,238.396 603.327,239.034 C606.328,240.793 607.338,245.612 610.003,245.791 L610.003,246.224 L606.722,246.224 C603.719,242.909 602.878,239.467 599.932,239.467 L598.642,239.467 z" fill="#931430"/>
    <path d="M598.642,238.855 L600.606,238.855 C603.327,238.855 604.392,237.173 604.392,235.488 C604.392,233.551 602.793,232.173 600.324,232.173 L598.642,232.173 z M598.642,243.471 C598.642,245.255 599.147,245.791 600.466,245.791 L600.466,246.224 L594.688,246.224 L594.688,245.791 C595.921,245.791 596.51,245.434 596.51,243.471 L596.51,234.316 C596.51,232.402 595.978,232.045 594.688,232.045 L594.688,231.612 L601.279,231.612 C604.898,231.612 606.637,233.5 606.637,235.438 C606.637,237.044 605.682,238.396 603.327,239.033 C606.328,240.793 607.338,245.612 610.003,245.791 L610.003,246.224 L606.722,246.224 C603.719,242.908 602.878,239.467 599.932,239.467 L598.642,239.467 z" fill-opacity="0" stroke="#931430" stroke-width="0.5"/>
    <path d="M622.507,233.219 L622.451,233.219 L620.207,239.415 L624.722,239.415 z M625.087,240.307 L619.898,240.307 L618.805,243.241 C618.272,244.668 617.992,245.764 619.674,245.791 L619.674,246.225 L615.522,246.225 L615.522,245.791 C617.037,245.586 617.402,244.847 617.907,243.496 L622.34,231.46 L623.994,231.46 L628.651,244.031 C629.128,245.383 629.52,245.791 630.951,245.791 L630.951,246.225 L625.284,246.225 L625.284,245.791 C626.378,245.791 626.91,245.357 626.547,244.362 z" fill="#931430"/>
    <path d="M622.507,233.219 L622.451,233.219 L620.207,239.415 L624.722,239.415 z M625.087,240.307 L619.898,240.307 L618.805,243.241 C618.272,244.668 617.992,245.764 619.674,245.791 L619.674,246.225 L615.522,246.225 L615.522,245.791 C617.037,245.586 617.402,244.847 617.907,243.496 L622.34,231.46 L623.994,231.46 L628.651,244.031 C629.128,245.383 629.52,245.791 630.951,245.791 L630.951,246.225 L625.284,246.225 L625.284,245.791 C626.378,245.791 626.91,245.357 626.547,244.362 z" fill-opacity="0" stroke="#931430" stroke-width="0.5"/>
    <path d="M640.901,242.96 C640.901,245.23 641.462,245.662 642.949,245.662 L644.604,245.662 C648.587,245.662 650.971,243.165 650.971,239.186 C650.971,235.692 649.036,232.174 643.958,232.174 L640.901,232.174 z M638.769,234.367 C638.769,232.605 638.292,232.046 636.946,232.046 L636.946,231.611 L644.379,231.611 C650.523,231.611 653.441,235.362 653.441,239.16 C653.441,242.833 650.887,246.225 644.576,246.225 L636.946,246.225 L636.946,245.791 C638.237,245.791 638.769,245.281 638.769,243.47 z" fill="#931430"/>
    <path d="M640.901,242.96 C640.901,245.23 641.462,245.662 642.949,245.662 L644.604,245.662 C648.587,245.662 650.971,243.165 650.971,239.186 C650.971,235.692 649.036,232.173 643.958,232.173 L640.901,232.173 z M638.769,234.367 C638.769,232.605 638.292,232.046 636.946,232.046 L636.946,231.611 L644.379,231.611 C650.523,231.611 653.441,235.362 653.441,239.16 C653.441,242.833 650.887,246.225 644.576,246.225 L636.946,246.225 L636.946,245.791 C638.237,245.791 638.769,245.281 638.769,243.47 z" fill-opacity="0" stroke="#931430" stroke-width="0.5"/>
    <path d="M672.983,244.184 C671.441,245.816 669.758,246.581 667.627,246.581 C663.726,246.581 662.156,244.082 662.156,241.558 L662.156,234.366 C662.156,232.427 661.595,232.046 660.331,232.046 L660.331,231.612 L666.14,231.612 L666.14,232.046 C664.82,232.046 664.287,232.478 664.287,234.341 L664.287,241.735 C664.287,243.98 665.662,245.586 668.383,245.586 C670.236,245.586 671.862,244.745 672.983,243.164 L672.983,234.366 C672.983,232.684 672.563,232.097 671.272,232.046 L671.272,231.612 L676.939,231.612 L676.939,232.046 C675.592,232.046 675.116,232.606 675.116,234.366 L675.116,243.47 C675.116,245.384 675.705,245.792 676.939,245.792 L676.939,246.224 L672.983,246.224 z" fill="#931430"/>
    <path d="M672.983,244.184 C671.441,245.816 669.758,246.581 667.627,246.581 C663.726,246.581 662.156,244.082 662.156,241.558 L662.156,234.366 C662.156,232.427 661.595,232.047 660.331,232.047 L660.331,231.612 L666.14,231.612 L666.14,232.047 C664.82,232.047 664.287,232.478 664.287,234.341 L664.287,241.735 C664.287,243.98 665.662,245.586 668.383,245.586 C670.236,245.586 671.862,244.745 672.983,243.165 L672.983,234.366 C672.983,232.684 672.563,232.097 671.272,232.047 L671.272,231.612 L676.939,231.612 L676.939,232.047 C675.592,232.047 675.116,232.606 675.116,234.366 L675.116,243.47 C675.116,245.384 675.705,245.792 676.939,245.792 L676.939,246.224 L672.983,246.224 z" fill-opacity="0" stroke="#931430" stroke-width="0.5"/>
    <path d="M689.281,233.219 L689.225,233.219 L686.981,239.415 L691.496,239.415 z M691.861,240.307 L686.672,240.307 L685.578,243.241 C685.046,244.668 684.765,245.764 686.448,245.791 L686.448,246.225 L682.295,246.225 L682.295,245.791 C683.811,245.586 684.176,244.847 684.68,243.496 L689.113,231.46 L690.768,231.46 L695.424,244.031 C695.902,245.383 696.294,245.791 697.725,245.791 L697.725,246.225 L692.058,246.225 L692.058,245.791 C693.151,245.791 693.684,245.357 693.321,244.362 z" fill="#931430"/>
    <path d="M689.281,233.219 L689.225,233.219 L686.981,239.415 L691.496,239.415 z M691.861,240.307 L686.672,240.307 L685.578,243.241 C685.046,244.668 684.765,245.764 686.448,245.791 L686.448,246.225 L682.295,246.225 L682.295,245.791 C683.811,245.586 684.176,244.847 684.68,243.496 L689.113,231.46 L690.768,231.46 L695.424,244.031 C695.902,245.383 696.294,245.791 697.725,245.791 L697.725,246.225 L692.058,246.225 L692.058,245.791 C693.151,245.791 693.684,245.357 693.321,244.362 z" fill-opacity="0" stroke="#931430" stroke-width="0.5"/>
    <path d="M709.531,243.547 C709.531,245.306 709.896,245.791 711.271,245.791 L711.271,246.225 L705.576,246.225 L705.576,245.791 C706.726,245.791 707.399,245.484 707.399,243.47 L707.399,232.327 L705.072,232.327 C702.911,232.327 701.929,232.887 701.789,234.417 L701.312,234.417 L701.312,231.076 L701.789,231.076 C702.013,231.254 702.266,231.382 702.659,231.484 C703.023,231.56 703.528,231.611 704.201,231.611 L712.617,231.611 C714.019,231.611 714.665,231.46 715.169,231.076 L715.675,231.076 L715.675,234.417 L715.366,234.417 C715.057,233.192 714.523,232.327 711.972,232.327 L709.531,232.327 z" fill="#931430"/>
    <path d="M709.531,243.547 C709.531,245.306 709.896,245.791 711.271,245.791 L711.271,246.225 L705.576,246.225 L705.576,245.791 C706.726,245.791 707.399,245.484 707.399,243.47 L707.399,232.327 L705.072,232.327 C702.911,232.327 701.929,232.887 701.789,234.417 L701.312,234.417 L701.312,231.076 L701.789,231.076 C702.013,231.255 702.266,231.382 702.659,231.484 C703.023,231.56 703.528,231.611 704.201,231.611 L712.617,231.611 C714.019,231.611 714.665,231.46 715.169,231.076 L715.675,231.076 L715.675,234.417 L715.366,234.417 C715.057,233.192 714.523,232.327 711.972,232.327 L709.531,232.327 z" fill-opacity="0" stroke="#931430" stroke-width="0.5"/>
    <path d="M732.526,240.69 L732.05,240.69 C731.713,239.441 731.461,239.288 729.805,239.288 L725.823,239.288 L725.823,244.516 C725.823,245.23 726.103,245.51 727.001,245.51 L729.805,245.51 C732.162,245.51 732.751,245.408 733.705,243.495 L734.182,243.495 L733.453,246.224 L721.868,246.224 L721.868,245.792 C723.129,245.792 723.691,245.434 723.691,243.495 L723.691,234.367 C723.691,232.557 723.241,232.045 721.868,232.045 L721.868,231.612 L733.453,231.612 L733.453,234.059 L733.145,234.059 C732.78,232.455 732.217,232.327 730.451,232.327 L725.823,232.327 L725.823,238.574 L730.311,238.574 C731.404,238.574 731.825,238.396 732.05,237.145 L732.526,237.145 z" fill="#931430"/>
    <path d="M732.526,240.69 L732.05,240.69 C731.713,239.441 731.461,239.288 729.805,239.288 L725.823,239.288 L725.823,244.516 C725.823,245.23 726.103,245.51 727.001,245.51 L729.805,245.51 C732.162,245.51 732.751,245.408 733.705,243.495 L734.182,243.495 L733.453,246.224 L721.868,246.224 L721.868,245.792 C723.129,245.792 723.691,245.434 723.691,243.495 L723.691,234.367 C723.691,232.557 723.241,232.045 721.868,232.045 L721.868,231.612 L733.453,231.612 L733.453,234.059 L733.145,234.059 C732.78,232.455 732.217,232.327 730.451,232.327 L725.823,232.327 L725.823,238.574 L730.311,238.574 C731.404,238.574 731.825,238.396 732.05,237.145 L732.526,237.145 z" fill-opacity="0" stroke="#931430" stroke-width="0.5"/>
    <path d="M760.541,234.825 L760.064,234.825 C759.812,232.658 758.129,231.816 756.502,231.816 C754.819,231.816 753.613,232.658 753.613,234.009 C753.613,236.713 757.708,237.426 760.009,239.517 C761.13,240.537 761.411,241.456 761.411,242.425 C761.411,244.719 759.363,246.581 756.839,246.581 C755.128,246.581 753.696,245.817 753.164,245.817 C752.883,245.817 752.686,245.995 752.546,246.377 L752.07,246.377 L752.07,242.425 L752.546,242.425 C752.574,245.127 755.016,246.019 756.418,246.019 C758.353,246.019 759.643,245.001 759.643,243.419 C759.643,240.895 755.323,239.721 753.529,238.089 C752.546,237.197 752.154,236.177 752.154,235.03 C752.154,232.785 753.921,231.254 756.53,231.254 C758.241,231.254 759.054,231.816 759.671,231.816 C759.924,231.816 759.98,231.765 760.094,231.409 L760.541,231.409 z" fill="#931430"/>
    <path d="M760.541,234.825 L760.064,234.825 C759.812,232.658 758.129,231.816 756.502,231.816 C754.819,231.816 753.613,232.658 753.613,234.009 C753.613,236.713 757.708,237.426 760.009,239.517 C761.13,240.537 761.411,241.456 761.411,242.425 C761.411,244.719 759.363,246.581 756.839,246.581 C755.128,246.581 753.696,245.817 753.164,245.817 C752.883,245.817 752.686,245.995 752.546,246.378 L752.07,246.378 L752.07,242.425 L752.546,242.425 C752.574,245.127 755.016,246.019 756.418,246.019 C758.353,246.019 759.643,245.001 759.643,243.419 C759.643,240.895 755.323,239.721 753.529,238.089 C752.546,237.197 752.154,236.177 752.154,235.03 C752.154,232.785 753.921,231.254 756.53,231.254 C758.241,231.254 759.054,231.816 759.671,231.816 C759.924,231.816 759.98,231.766 760.094,231.409 L760.541,231.409 z" fill-opacity="0" stroke="#931430" stroke-width="0.5"/>
    <path d="M782.108,235.769 C781.322,233.015 779.666,231.816 776.89,231.816 C773.02,231.816 770.943,234.646 770.943,238.395 C770.943,242.781 773.44,245.662 777.059,245.662 C779.584,245.662 781.462,244.592 782.669,242.45 L783.089,242.807 C782.023,245.127 779.471,246.581 776.385,246.581 C772.515,246.581 768.475,244.184 768.475,239.313 C768.475,234.673 771.981,231.254 776.777,231.254 C778.798,231.254 780.312,231.867 781.265,231.867 C781.687,231.867 781.966,231.714 782.136,231.409 L782.585,231.409 L782.585,235.769 z" fill="#931430"/>
    <path d="M782.108,235.769 C781.322,233.015 779.666,231.816 776.89,231.816 C773.02,231.816 770.943,234.646 770.943,238.395 C770.943,242.781 773.44,245.662 777.059,245.662 C779.584,245.662 781.462,244.591 782.669,242.45 L783.089,242.807 C782.023,245.127 779.471,246.581 776.385,246.581 C772.515,246.581 768.475,244.184 768.475,239.313 C768.475,234.673 771.981,231.254 776.777,231.254 C778.798,231.254 780.312,231.867 781.265,231.867 C781.687,231.867 781.966,231.714 782.136,231.409 L782.585,231.409 L782.585,235.769 z" fill-opacity="0" stroke="#931430" stroke-width="0.5"/>
    <path d="M793.49,239.237 L793.49,243.47 C793.49,245.229 793.967,245.791 795.341,245.791 L795.341,246.225 L789.534,246.225 L789.534,245.791 C790.769,245.791 791.357,245.408 791.357,243.47 L791.357,234.367 C791.357,232.633 790.964,232.046 789.534,232.046 L789.534,231.611 L795.341,231.611 L795.341,232.046 C794.079,232.046 793.49,232.505 793.49,234.367 L793.49,238.523 L802.242,238.523 L802.242,234.367 C802.242,232.582 801.82,232.046 800.447,232.046 L800.447,231.611 L806.197,231.611 L806.197,232.046 C804.822,232.046 804.374,232.633 804.374,234.367 L804.374,243.47 C804.374,245.204 804.822,245.791 806.197,245.791 L806.197,246.225 L800.447,246.225 L800.447,245.791 C801.708,245.791 802.242,245.408 802.242,243.47 L802.242,239.237 z" fill="#931430"/>
    <path d="M793.49,239.237 L793.49,243.47 C793.49,245.229 793.967,245.791 795.341,245.791 L795.341,246.225 L789.534,246.225 L789.534,245.791 C790.769,245.791 791.357,245.408 791.357,243.47 L791.357,234.367 C791.357,232.632 790.964,232.046 789.534,232.046 L789.534,231.611 L795.341,231.611 L795.341,232.046 C794.079,232.046 793.49,232.505 793.49,234.367 L793.49,238.523 L802.242,238.523 L802.242,234.367 C802.242,232.581 801.82,232.046 800.447,232.046 L800.447,231.611 L806.197,231.611 L806.197,232.046 C804.822,232.046 804.374,232.632 804.374,234.367 L804.374,243.47 C804.374,245.204 804.822,245.791 806.197,245.791 L806.197,246.225 L800.447,246.225 L800.447,245.791 C801.708,245.791 802.242,245.408 802.242,243.47 L802.242,239.237 z" fill-opacity="0" stroke="#931430" stroke-width="0.5"/>
    <path d="M821.926,246.02 C825.968,246.02 828.07,242.527 828.07,238.982 C828.07,234.392 825.379,231.817 822.067,231.817 C818.28,231.817 815.868,234.647 815.868,238.88 C815.868,243.139 818.307,246.02 821.926,246.02 M822.012,231.255 C826.781,231.255 830.537,234.596 830.537,238.854 C830.537,243.19 826.75,246.58 821.954,246.58 C817.157,246.58 813.4,243.19 813.4,238.854 C813.4,234.519 817.102,231.255 822.012,231.255" fill="#931430"/>
    <path d="M821.926,246.02 C825.968,246.02 828.07,242.527 828.07,238.982 C828.07,234.392 825.379,231.817 822.067,231.817 C818.28,231.817 815.868,234.647 815.868,238.88 C815.868,243.139 818.307,246.02 821.926,246.02 M822.012,231.255 C826.781,231.255 830.537,234.596 830.537,238.855 C830.537,243.19 826.75,246.58 821.954,246.58 C817.157,246.58 813.4,243.19 813.4,238.855 C813.4,234.519 817.102,231.255 822.012,231.255" fill-opacity="0" stroke="#931430" stroke-width="0.5"/>
    <path d="M845.762,246.02 C849.802,246.02 851.906,242.527 851.906,238.982 C851.906,234.392 849.212,231.817 845.904,231.817 C842.117,231.817 839.702,234.647 839.702,238.88 C839.702,243.139 842.143,246.02 845.762,246.02 M845.846,231.255 C850.614,231.255 854.373,234.596 854.373,238.854 C854.373,243.19 850.586,246.58 845.79,246.58 C840.993,246.58 837.235,243.19 837.235,238.854 C837.235,234.519 840.938,231.255 845.846,231.255" fill="#931430"/>
    <path d="M845.762,246.02 C849.802,246.02 851.906,242.527 851.906,238.982 C851.906,234.392 849.212,231.817 845.904,231.817 C842.117,231.817 839.702,234.647 839.702,238.88 C839.702,243.139 842.143,246.02 845.762,246.02 M845.846,231.255 C850.614,231.255 854.373,234.596 854.373,238.855 C854.373,243.19 850.586,246.58 845.79,246.58 C840.993,246.58 837.235,243.19 837.235,238.855 C837.235,234.519 840.938,231.255 845.846,231.255" fill-opacity="0" stroke="#931430" stroke-width="0.5"/>
    <path d="M873.383,246.224 L861.742,246.224 L861.742,245.791 C863.031,245.791 863.565,245.154 863.565,243.343 L863.565,234.162 C863.565,232.479 863.031,232.046 861.742,232.046 L861.742,231.612 L867.494,231.612 L867.494,232.046 C866.147,232.046 865.698,232.785 865.698,234.34 L865.698,244.108 C865.698,245.254 866.174,245.51 867.521,245.51 L870.719,245.51 C872.655,245.51 873.186,245.128 873.889,243.036 L874.364,243.036 z" fill="#931430"/>
    <path d="M873.383,246.224 L861.742,246.224 L861.742,245.791 C863.031,245.791 863.565,245.154 863.565,243.344 L863.565,234.162 C863.565,232.479 863.031,232.046 861.742,232.046 L861.742,231.612 L867.494,231.612 L867.494,232.046 C866.147,232.046 865.698,232.785 865.698,234.34 L865.698,244.108 C865.698,245.254 866.174,245.51 867.521,245.51 L870.719,245.51 C872.655,245.51 873.186,245.128 873.889,243.036 L874.364,243.036 z" fill-opacity="0" stroke="#931430" stroke-width="0.5"/>
    <path d="M623.269,275.065 C626.408,275.065 628.046,272.347 628.046,269.59 C628.046,266.018 625.952,264.015 623.379,264.015 C620.433,264.015 618.561,266.217 618.561,269.51 C618.561,272.823 620.456,275.065 623.269,275.065 M623.335,263.579 C627.042,263.579 629.963,266.178 629.963,269.491 C629.963,272.863 627.019,275.503 623.291,275.503 C619.562,275.503 616.64,272.863 616.64,269.491 C616.64,266.118 619.518,263.579 623.335,263.579" fill="#931430"/>
    <path d="M623.269,275.065 C626.408,275.065 628.046,272.347 628.046,269.59 C628.046,266.018 625.952,264.015 623.379,264.015 C620.433,264.015 618.561,266.217 618.561,269.51 C618.561,272.823 620.456,275.065 623.269,275.065 M623.335,263.579 C627.042,263.579 629.963,266.178 629.963,269.491 C629.963,272.863 627.019,275.503 623.291,275.503 C619.562,275.503 616.64,272.863 616.64,269.491 C616.64,266.118 619.518,263.579 623.335,263.579" fill-opacity="0" stroke="#931430" stroke-width="0.5"/>
    <path d="M638.604,273.082 C638.604,274.47 638.976,274.886 640.021,274.886 L640.021,275.225 L635.528,275.225 L635.528,274.886 C636.576,274.886 636.947,274.49 636.947,273.082 L636.947,265.999 C636.947,264.57 636.576,264.194 635.528,264.194 L635.528,263.856 L644.098,263.856 L644.098,265.88 L643.816,265.88 C643.509,264.492 643.138,264.413 641.788,264.413 L638.604,264.413 L638.604,269.173 L641.852,269.173 C642.79,269.173 643.138,268.738 643.249,267.824 L643.597,267.824 L643.597,271.018 L643.249,271.018 C643.205,270.205 642.767,269.729 641.896,269.729 L638.604,269.729 z" fill="#931430"/>
    <path d="M638.604,273.082 C638.604,274.47 638.976,274.886 640.021,274.886 L640.021,275.225 L635.528,275.225 L635.528,274.886 C636.576,274.886 636.947,274.49 636.947,273.082 L636.947,265.999 C636.947,264.57 636.576,264.194 635.528,264.194 L635.528,263.856 L644.098,263.856 L644.098,265.88 L643.816,265.88 C643.509,264.492 643.138,264.413 641.788,264.413 L638.604,264.413 L638.604,269.173 L641.852,269.173 C642.79,269.173 643.138,268.738 643.249,267.824 L643.597,267.824 L643.597,271.018 L643.249,271.018 C643.205,270.205 642.767,269.729 641.896,269.729 L638.604,269.729 z" fill-opacity="0" stroke="#931430" stroke-width="0.5"/>
    <path d="M669.581,269.69 L669.105,269.69 C668.768,268.441 668.516,268.288 666.861,268.288 L662.879,268.288 L662.879,273.516 C662.879,274.23 663.158,274.51 664.057,274.51 L666.861,274.51 C669.218,274.51 669.807,274.408 670.759,272.495 L671.238,272.495 L670.507,275.224 L658.923,275.224 L658.923,274.792 C660.183,274.792 660.746,274.434 660.746,272.495 L660.746,263.367 C660.746,261.557 660.297,261.045 658.923,261.045 L658.923,260.612 L670.507,260.612 L670.507,263.059 L670.201,263.059 C669.836,261.455 669.273,261.327 667.506,261.327 L662.879,261.327 L662.879,267.574 L667.365,267.574 C668.46,267.574 668.881,267.396 669.105,266.145 L669.581,266.145 z" fill="#931430"/>
    <path d="M669.581,269.69 L669.105,269.69 C668.768,268.441 668.516,268.288 666.861,268.288 L662.879,268.288 L662.879,273.516 C662.879,274.23 663.158,274.51 664.057,274.51 L666.861,274.51 C669.218,274.51 669.807,274.408 670.759,272.495 L671.238,272.495 L670.507,275.224 L658.923,275.224 L658.923,274.792 C660.183,274.792 660.746,274.434 660.746,272.495 L660.746,263.367 C660.746,261.557 660.297,261.045 658.923,261.045 L658.923,260.612 L670.507,260.612 L670.507,263.059 L670.201,263.059 C669.836,261.455 669.273,261.327 667.506,261.327 L662.879,261.327 L662.879,267.574 L667.365,267.574 C668.46,267.574 668.881,267.396 669.105,266.145 L669.581,266.145 z" fill-opacity="0" stroke="#931430" stroke-width="0.5"/>
    <path d="M682.17,271.96 C682.17,274.23 682.731,274.662 684.219,274.662 L685.873,274.662 C689.857,274.662 692.241,272.165 692.241,268.186 C692.241,264.692 690.305,261.173 685.229,261.173 L682.17,261.173 z M680.04,263.367 C680.04,261.605 679.561,261.046 678.217,261.046 L678.217,260.611 L685.65,260.611 C691.794,260.611 694.71,264.362 694.71,268.16 C694.71,271.833 692.159,275.225 685.846,275.225 L678.217,275.225 L678.217,274.791 C679.506,274.791 680.04,274.281 680.04,272.47 z" fill="#931430"/>
    <path d="M682.17,271.96 C682.17,274.23 682.731,274.662 684.219,274.662 L685.873,274.662 C689.857,274.662 692.241,272.165 692.241,268.186 C692.241,264.692 690.305,261.173 685.229,261.173 L682.17,261.173 z M680.04,263.367 C680.04,261.605 679.561,261.046 678.217,261.046 L678.217,260.611 L685.65,260.611 C691.794,260.611 694.71,264.362 694.71,268.16 C694.71,271.833 692.159,275.225 685.846,275.225 L678.217,275.225 L678.217,274.791 C679.506,274.791 680.04,274.281 680.04,272.47 z" fill-opacity="0" stroke="#931430" stroke-width="0.5"/>
    <path d="M712.57,273.184 C711.03,274.816 709.346,275.581 707.215,275.581 C703.315,275.581 701.743,273.082 701.743,270.558 L701.743,263.366 C701.743,261.427 701.182,261.046 699.92,261.046 L699.92,260.612 L705.727,260.612 L705.727,261.046 C704.407,261.046 703.876,261.478 703.876,263.341 L703.876,270.735 C703.876,272.98 705.251,274.586 707.97,274.586 C709.824,274.586 711.45,273.745 712.57,272.164 L712.57,263.366 C712.57,261.684 712.15,261.097 710.861,261.046 L710.861,260.612 L716.526,260.612 L716.526,261.046 C715.179,261.046 714.703,261.606 714.703,263.366 L714.703,272.47 C714.703,274.384 715.293,274.792 716.526,274.792 L716.526,275.224 L712.57,275.224 z" fill="#931430"/>
    <path d="M712.57,273.184 C711.03,274.816 709.346,275.581 707.215,275.581 C703.315,275.581 701.743,273.082 701.743,270.558 L701.743,263.366 C701.743,261.427 701.182,261.046 699.92,261.046 L699.92,260.612 L705.727,260.612 L705.727,261.046 C704.407,261.046 703.876,261.478 703.876,263.341 L703.876,270.735 C703.876,272.98 705.251,274.586 707.97,274.586 C709.824,274.586 711.45,273.745 712.57,272.164 L712.57,263.366 C712.57,261.684 712.15,261.097 710.861,261.046 L710.861,260.612 L716.526,260.612 L716.526,261.046 C715.179,261.046 714.703,261.606 714.703,263.366 L714.703,272.47 C714.703,274.384 715.293,274.792 716.526,274.792 L716.526,275.224 L712.57,275.224 z" fill-opacity="0" stroke="#931430" stroke-width="0.5"/>
    <path d="M737.444,264.769 C736.658,262.015 735.004,260.816 732.227,260.816 C728.357,260.816 726.28,263.646 726.28,267.395 C726.28,271.781 728.778,274.662 732.397,274.662 C734.922,274.662 736.8,273.592 738.005,271.45 L738.426,271.807 C737.361,274.127 734.809,275.581 731.721,275.581 C727.852,275.581 723.812,273.184 723.812,268.313 C723.812,263.673 727.318,260.254 732.113,260.254 C734.136,260.254 735.648,260.867 736.603,260.867 C737.024,260.867 737.303,260.714 737.473,260.409 L737.923,260.409 L737.923,264.769 z" fill="#931430"/>
    <path d="M737.444,264.769 C736.658,262.015 735.004,260.816 732.227,260.816 C728.357,260.816 726.28,263.646 726.28,267.395 C726.28,271.782 728.778,274.662 732.397,274.662 C734.922,274.662 736.8,273.592 738.005,271.45 L738.426,271.807 C737.361,274.127 734.809,275.581 731.721,275.581 C727.852,275.581 723.812,273.184 723.812,268.313 C723.812,263.673 727.318,260.254 732.113,260.254 C734.136,260.254 735.648,260.867 736.603,260.867 C737.024,260.867 737.303,260.715 737.473,260.409 L737.923,260.409 L737.923,264.769 z" fill-opacity="0" stroke="#931430" stroke-width="0.5"/>
    <path d="M750.902,262.219 L750.847,262.219 L748.603,268.415 L753.117,268.415 z M753.483,269.307 L748.293,269.307 L747.201,272.241 C746.667,273.668 746.387,274.764 748.069,274.791 L748.069,275.225 L743.917,275.225 L743.917,274.791 C745.434,274.586 745.798,273.847 746.302,272.496 L750.736,260.46 L752.391,260.46 L757.046,273.031 C757.525,274.383 757.917,274.791 759.347,274.791 L759.347,275.225 L753.679,275.225 L753.679,274.791 C754.774,274.791 755.305,274.357 754.944,273.362 z" fill="#931430"/>
    <path d="M750.902,262.219 L750.847,262.219 L748.603,268.415 L753.117,268.415 z M753.483,269.307 L748.293,269.307 L747.201,272.241 C746.667,273.668 746.387,274.765 748.069,274.791 L748.069,275.225 L743.917,275.225 L743.917,274.791 C745.434,274.586 745.798,273.847 746.302,272.496 L750.736,260.46 L752.391,260.46 L757.046,273.031 C757.525,274.384 757.917,274.791 759.347,274.791 L759.347,275.225 L753.679,275.225 L753.679,274.791 C754.774,274.791 755.305,274.357 754.944,273.362 z" fill-opacity="0" stroke="#931430" stroke-width="0.5"/>
    <path d="M770.589,272.547 C770.589,274.306 770.955,274.791 772.33,274.791 L772.33,275.225 L766.633,275.225 L766.633,274.791 C767.785,274.791 768.456,274.484 768.456,272.47 L768.456,261.327 L766.131,261.327 C763.969,261.327 762.988,261.887 762.846,263.417 L762.37,263.417 L762.37,260.076 L762.846,260.076 C763.07,260.254 763.325,260.382 763.717,260.484 C764.08,260.56 764.587,260.611 765.258,260.611 L773.674,260.611 C775.076,260.611 775.723,260.46 776.226,260.076 L776.733,260.076 L776.733,263.417 L776.423,263.417 C776.116,262.192 775.582,261.327 773.029,261.327 L770.589,261.327 z" fill="#931430"/>
    <path d="M770.589,272.547 C770.589,274.306 770.955,274.791 772.33,274.791 L772.33,275.225 L766.633,275.225 L766.633,274.791 C767.785,274.791 768.456,274.484 768.456,272.47 L768.456,261.327 L766.131,261.327 C763.969,261.327 762.988,261.887 762.846,263.417 L762.37,263.417 L762.37,260.076 L762.846,260.076 C763.07,260.254 763.325,260.382 763.717,260.484 C764.08,260.56 764.587,260.611 765.258,260.611 L773.674,260.611 C775.076,260.611 775.723,260.46 776.226,260.076 L776.733,260.076 L776.733,263.417 L776.423,263.417 C776.116,262.192 775.582,261.327 773.029,261.327 L770.589,261.327 z" fill-opacity="0" stroke="#931430" stroke-width="0.5"/>
    <path d="M786.683,272.47 C786.683,274.255 787.162,274.792 788.509,274.792 L788.509,275.224 L782.73,275.224 L782.73,274.792 C784.047,274.792 784.553,274.332 784.553,272.47 L784.553,263.366 C784.553,261.53 784.103,261.047 782.73,261.047 L782.73,260.612 L788.509,260.612 L788.509,261.047 C787.162,261.047 786.683,261.606 786.683,263.366 z" fill="#931430"/>
    <path d="M786.683,272.471 C786.683,274.255 787.162,274.792 788.509,274.792 L788.509,275.224 L782.73,275.224 L782.73,274.792 C784.047,274.792 784.553,274.332 784.553,272.471 L784.553,263.367 C784.553,261.53 784.103,261.047 782.73,261.047 L782.73,260.612 L788.509,260.612 L788.509,261.047 C787.162,261.047 786.683,261.606 786.683,263.367 z" fill-opacity="0" stroke="#931430" stroke-width="0.5"/>
    <path d="M803.958,275.02 C808,275.02 810.102,271.527 810.102,267.982 C810.102,263.392 807.411,260.817 804.1,260.817 C800.312,260.817 797.901,263.647 797.901,267.88 C797.901,272.139 800.339,275.02 803.958,275.02 M804.044,260.255 C808.813,260.255 812.569,263.596 812.569,267.854 C812.569,272.19 808.782,275.58 803.986,275.58 C799.189,275.58 795.432,272.19 795.432,267.854 C795.432,263.519 799.134,260.255 804.044,260.255" fill="#931430"/>
    <path d="M803.958,275.02 C808,275.02 810.102,271.527 810.102,267.982 C810.102,263.392 807.411,260.817 804.1,260.817 C800.312,260.817 797.901,263.647 797.901,267.88 C797.901,272.139 800.339,275.02 803.958,275.02 M804.044,260.255 C808.813,260.255 812.569,263.596 812.569,267.854 C812.569,272.19 808.782,275.58 803.986,275.58 C799.189,275.58 795.432,272.19 795.432,267.854 C795.432,263.519 799.134,260.255 804.044,260.255" fill-opacity="0" stroke="#931430" stroke-width="0.5"/>
    <path d="M834.303,275.224 L833.825,275.224 L822.494,262.524 L822.436,262.524 L822.436,272.775 C822.436,274.254 823.084,274.791 824.541,274.791 L824.541,275.224 L819.659,275.224 L819.659,274.791 C821.006,274.791 821.65,274.408 821.65,272.292 L821.65,263.748 C821.65,262.116 821.174,261.199 819.267,261.046 L819.267,260.612 L823.391,260.612 L833.432,271.985 L833.491,271.985 L833.491,263.443 C833.491,261.53 832.928,261.046 831.526,261.046 L831.526,260.612 L836.378,260.612 L836.378,261.046 C834.806,261.046 834.303,261.632 834.303,263.34 z" fill="#931430"/>
    <path d="M834.303,275.224 L833.825,275.224 L822.494,262.524 L822.436,262.524 L822.436,272.775 C822.436,274.254 823.084,274.791 824.541,274.791 L824.541,275.224 L819.659,275.224 L819.659,274.791 C821.006,274.791 821.65,274.408 821.65,272.292 L821.65,263.748 C821.65,262.116 821.174,261.199 819.267,261.046 L819.267,260.612 L823.391,260.612 L833.432,271.985 L833.491,271.985 L833.491,263.443 C833.491,261.53 832.928,261.046 831.526,261.046 L831.526,260.612 L836.378,260.612 L836.378,261.046 C834.806,261.046 834.303,261.632 834.303,263.34 z" fill-opacity="0" stroke="#931430" stroke-width="0.5"/>
    <path d="M83.756,70.805 L94.988,44.405 L95.18,44.405 L96.428,84.917 L103.244,84.917 L101.228,34.901 L92.78,34.901 L83.756,56.597 L74.732,34.901 L66.284,34.901 L64.268,84.917 L71.084,84.917 L72.332,44.405 L72.524,44.405 z" fill="#000000"/>
    <path d="M162.416,70.661 L167.024,85.541 L173.36,83.237 L157.616,34.277 L149.36,34.277 L133.616,83.237 L139.952,85.541 L144.656,70.661 z M160.592,64.901 L146.384,64.901 L153.488,41.765 z" fill="#000000"/>
    <path d="M217.828,34.901 L211.396,34.901 L211.396,84.917 L217.828,84.917 L217.828,61.493 L220.036,61.493 L240.292,86.165 L245.188,82.037 L225.7,58.517 L242.308,37.493 L237.412,33.653 L220.228,56.213 L217.828,56.213 z" fill="#000000"/>
    <path d="M286.028,84.917 L306.572,84.917 L306.572,79.157 L299.468,79.157 L299.468,40.661 L306.572,40.661 L306.572,34.901 L286.028,34.901 L286.028,40.661 L293.036,40.661 L293.036,79.157 L286.028,79.157 z" fill="#000000"/>
    <path d="M349.604,84.917 L356.036,84.917 L356.036,56.021 L355.46,42.965 L355.652,42.773 L375.044,84.917 L383.012,84.917 L383.012,34.901 L376.58,34.901 L376.58,63.893 L377.156,76.853 L376.964,77.045 L357.572,34.901 L349.604,34.901 z" fill="#000000"/>
    <path d="M454.148,58.229 L435.716,58.229 L435.716,63.989 L447.716,63.989 L447.716,77.141 C444.932,78.869 441.668,79.733 438.404,79.733 C428.324,79.733 426.596,67.829 426.596,60.053 C426.596,52.469 428.324,40.085 438.212,40.085 C443.108,40.085 446.756,43.157 449.156,47.189 L454.628,43.637 C451.172,37.973 445.316,34.037 438.596,34.037 C424.292,34.037 419.876,47.765 419.876,59.861 C419.876,72.149 424.1,85.781 438.788,85.781 C443.876,85.781 450.02,83.573 454.148,80.309 z" fill="#000000"/>
    <path d="M96.672,142.469 C93.696,146.981 90.72,150.533 84.864,150.533 C74.688,150.533 72.864,138.437 72.864,130.661 C72.864,122.981 74.88,110.885 84.864,110.885 C89.76,110.885 92.64,114.437 94.752,118.469 L100.608,115.493 C97.056,108.869 92.544,104.837 84.768,104.837 C76.704,104.837 66.144,110.789 66.144,130.757 C66.144,143.141 70.752,156.581 85.344,156.581 C93.12,156.581 97.92,152.453 101.952,146.117 z" fill="#EA7E23"/>
    <path d="M164.528,142.085 L169.136,156.965 L175.472,154.661 L159.728,105.701 L151.472,105.701 L135.728,154.661 L142.064,156.965 L146.768,142.085 z M162.704,136.325 L148.496,136.325 L155.6,113.189 z" fill="#EA7E23"/>
    <path d="M217.54,128.549 L217.54,111.461 L227.908,111.461 C233.668,111.461 236.356,114.821 236.356,119.333 C236.356,124.997 232.228,128.261 225.988,128.549 z M211.108,155.717 L217.54,155.717 L217.54,134.309 L226.852,134.309 L239.62,156.965 L245.188,153.605 L232.9,133.349 C238.948,131.525 243.076,125.477 243.076,119.333 C243.076,109.637 236.452,105.701 228.1,105.701 L211.108,105.701 z" fill="#EA7E23"/>
    <path d="M286.028,155.717 L306.572,155.717 L306.572,149.957 L299.468,149.957 L299.468,111.461 L306.572,111.461 L306.572,105.701 L286.028,105.701 L286.028,111.461 L293.036,111.461 L293.036,149.957 L286.028,149.957 z" fill="#EA7E23"/>
    <path d="M350.66,155.717 L357.092,155.717 L357.092,126.821 L356.516,113.765 L356.708,113.573 L376.1,155.717 L384.068,155.717 L384.068,105.701 L377.636,105.701 L377.636,134.693 L378.212,147.653 L378.02,147.845 L358.628,105.701 L350.66,105.701 z" fill="#EA7E23"/>
    <path d="M454.148,129.029 L435.716,129.029 L435.716,134.789 L447.716,134.789 L447.716,147.941 C444.932,149.669 441.668,150.533 438.404,150.533 C428.324,150.533 426.596,138.629 426.596,130.853 C426.596,123.269 428.324,110.885 438.212,110.885 C443.108,110.885 446.756,113.957 449.156,117.989 L454.628,114.437 C451.172,108.773 445.316,104.837 438.596,104.837 C424.292,104.837 419.876,118.565 419.876,130.661 C419.876,142.949 424.1,156.581 438.788,156.581 C443.876,156.581 450.02,154.373 454.148,151.109 z" fill="#EA7E23"/>
    <path d="M96.672,211.769 C93.696,216.281 90.72,219.833 84.864,219.833 C74.688,219.833 72.864,207.737 72.864,199.961 C72.864,192.281 74.88,180.185 84.864,180.185 C89.76,180.185 92.64,183.737 94.752,187.769 L100.608,184.793 C97.056,178.169 92.544,174.137 84.768,174.137 C76.704,174.137 66.144,180.089 66.144,200.057 C66.144,212.441 70.752,225.881 85.344,225.881 C93.12,225.881 97.92,221.753 101.952,215.417 z" fill="#000000"/>
    <path d="M155.6,174.137 C147.344,174.137 137.84,180.089 137.84,200.057 C137.84,220.121 147.536,225.881 155.6,225.881 C173.072,225.881 173.36,204.089 173.36,200.057 C173.36,179.897 163.568,174.137 155.6,174.137 z M155.6,180.185 C165.296,180.185 166.64,192.665 166.64,200.057 C166.64,207.353 165.296,219.833 155.6,219.833 C145.904,219.833 144.56,207.353 144.56,200.057 C144.56,192.665 145.904,180.185 155.6,180.185 z" fill="#000000"/>
    <path d="M225.7,210.905 L236.932,184.505 L237.124,184.505 L238.372,225.017 L245.188,225.017 L243.172,175.001 L234.724,175.001 L225.7,196.697 L216.676,175.001 L208.228,175.001 L206.212,225.017 L213.028,225.017 L214.276,184.505 L214.468,184.505 z" fill="#000000"/>
    <path d="M296.516,210.905 L307.748,184.505 L307.94,184.505 L309.188,225.017 L316.004,225.017 L313.988,175.001 L305.54,175.001 L296.516,196.697 L287.492,175.001 L279.044,175.001 L277.028,225.017 L283.844,225.017 L285.092,184.505 L285.284,184.505 z" fill="#000000"/>
    <path d="M367.364,174.137 C359.108,174.137 349.604,180.089 349.604,200.057 C349.604,220.121 359.3,225.881 367.364,225.881 C384.836,225.881 385.124,204.089 385.124,200.057 C385.124,179.897 375.332,174.137 367.364,174.137 z M367.364,180.185 C377.06,180.185 378.404,192.665 378.404,200.057 C378.404,207.353 377.06,219.833 367.364,219.833 C357.668,219.833 356.324,207.353 356.324,200.057 C356.324,192.665 357.668,180.185 367.364,180.185 z" fill="#000000"/>
    <path d="M420.876,225.017 L427.308,225.017 L427.308,196.121 L426.732,183.065 L426.924,182.873 L446.316,225.017 L454.284,225.017 L454.284,175.001 L447.852,175.001 L447.852,203.993 L448.428,216.953 L448.236,217.145 L428.844,175.001 L420.876,175.001 z" fill="#000000"/>
    <path d="M253.397,263.558 L258.843,263.558 C262.392,263.461 266.184,261.37 266.184,256.022 C266.184,252.327 263.899,249.118 258.016,249.118 L250.139,249.118 L250.139,274.449 L253.397,274.449 z M253.397,260.641 L253.397,252.035 L257.87,252.035 C260.544,252.132 262.781,252.813 262.781,256.265 C262.781,259.182 261.079,260.641 257.87,260.641 z" fill="#000000"/>
    <path d="M284.565,260.689 L284.565,252.035 L289.816,252.035 C292.733,252.035 294.095,253.737 294.095,256.022 C294.095,258.891 292.004,260.544 288.844,260.689 z M281.307,274.449 L284.565,274.449 L284.565,263.607 L289.281,263.607 L295.748,275.081 L298.568,273.38 L292.344,263.121 C295.408,262.197 297.498,259.134 297.498,256.022 C297.498,251.111 294.143,249.118 289.913,249.118 L281.307,249.118 z" fill="#000000"/>
    <path d="M320.099,248.68 C315.918,248.68 311.104,251.695 311.104,261.808 C311.104,271.97 316.015,274.887 320.099,274.887 C328.948,274.887 329.094,263.85 329.094,261.808 C329.094,251.597 324.135,248.68 320.099,248.68 z M320.099,251.743 C325.01,251.743 325.69,258.064 325.69,261.808 C325.69,265.503 325.01,271.824 320.099,271.824 C315.188,271.824 314.508,265.503 314.508,261.808 C314.508,258.064 315.188,251.743 320.099,251.743 z" fill="#000000"/>
    <path d="M343.488,265.114 C343.488,271.872 345.871,274.984 351.316,274.984 C356.956,274.984 359.485,271.094 359.485,267.496 L359.485,249.215 L356.227,249.215 L356.227,266.864 C356.227,269.928 354.622,271.921 351.316,271.921 C347.961,271.921 346.551,270.073 346.746,265.114 z" fill="#000000"/>
    <path d="M376.922,274.449 L392.724,274.449 L392.724,271.532 L380.179,271.532 L380.179,262.537 L390.536,262.537 L390.536,259.62 L380.179,259.62 L380.179,252.035 L392.724,252.035 L392.724,249.118 L376.922,249.118 z" fill="#000000"/>
    <path d="M421.742,267.74 C420.235,270.025 418.728,271.824 415.762,271.824 C410.608,271.824 409.684,265.697 409.684,261.759 C409.684,257.869 410.705,251.743 415.762,251.743 C418.242,251.743 419.7,253.542 420.77,255.584 L423.736,254.077 C421.937,250.722 419.652,248.68 415.713,248.68 C411.629,248.68 406.281,251.695 406.281,261.808 C406.281,268.08 408.615,274.887 416.005,274.887 C419.943,274.887 422.374,272.796 424.417,269.587 z" fill="#000000"/>
    <path d="M446.269,274.449 L449.527,274.449 L449.527,252.035 L456.382,252.035 L456.382,249.118 L439.268,249.118 L439.268,252.035 L446.269,252.035 z" fill="#000000"/>
    <path d="M516.6,36.208 L516.6,276.552" fill="#000000"/>
    <path d="M516.6,36.208 L516.6,276.552" fill-opacity="0" stroke="#000000" stroke-width="2.5"/>
    <g>
      <path d="M663.79,69.141 L786.415,69.141 L786.415,109.266 L663.79,109.266 L663.79,69.141 z" fill="#B71213"/>
      <path d="M663.79,69.141 L786.415,69.141 L786.415,109.266 L663.79,109.266 L663.79,69.141 z" fill-opacity="0" stroke="#1A1919" stroke-width="0.375"/>
    </g>
    <path d="M663.79,113.388 L683.278,113.388 L683.278,125.905 L699.264,125.905 L699.264,138.05 L715.994,138.05 L715.994,150.938 L734.211,150.938 L734.211,162.091 L749.578,162.091 L749.578,173.988 L767.795,173.988 C767.795,173.988 760.673,184.208 748.587,196.294 C737.186,207.696 724.665,214.391 724.665,214.391 C724.665,214.391 697.901,197.162 680.18,170.022 C660.649,140.112 663.79,113.388 663.79,113.388 z" fill="#1A1919"/>
    <g>
      <path d="M663.79,109.266 L786.415,109.266" fill="#FFFFFF"/>
      <path d="M663.79,109.266 L786.415,109.266" fill-opacity="0" stroke="#000000" stroke-width="1.875"/>
    </g>
    <path d="M760.604,128.24 C760.161,127.253 759.029,127.604 757.007,128.602 C754.985,129.6 753.488,130.418 751.946,129.463 C750.887,128.807 751.471,127.288 751.183,126.241 C750.872,125.109 749.712,124.413 750.406,122.276 C751.124,120.067 752.421,120.34 753.338,119.607 C754.186,118.93 754.607,117.358 755.85,117.45 C757.658,117.583 758.389,119.125 759.438,121.121 C760.486,123.117 761.087,124.071 762.026,123.533 C762.828,122.806 762.145,121.838 760.571,120.224 C758.996,118.61 757.756,117.438 758.188,115.677 C758.485,114.466 760.11,114.552 761.016,113.955 C761.996,113.31 762.301,111.991 764.547,111.991 C766.87,111.991 767.011,113.31 767.991,113.955 C768.898,114.552 770.523,114.466 770.82,115.677 C771.252,117.438 770.011,118.61 768.437,120.224 C766.863,121.838 766.18,122.806 766.982,123.533 C767.92,124.071 768.435,122.975 769.484,120.979 C770.532,118.983 771.263,117.441 773.072,117.308 C774.315,117.216 774.735,118.788 775.583,119.465 C776.5,120.198 777.848,120.08 778.542,122.217 C779.26,124.426 778.05,124.967 777.739,126.099 C777.451,127.146 778.035,128.664 776.975,129.321 C775.434,130.276 773.936,129.458 771.915,128.46 C769.893,127.462 768.801,126.851 768.358,127.838 C768.137,128.897 769.235,129.434 771.458,129.815 C773.68,130.196 775.372,130.414 776.058,132.093 C776.529,133.247 775.164,134.132 774.782,135.148 C774.368,136.247 774.897,137.492 773.079,138.812 C771.2,140.178 770.311,139.194 769.139,139.248 C768.054,139.298 766.79,140.322 765.838,139.518 C764.454,138.347 764.769,136.67 765.094,134.439 C765.418,132.207 765.402,131.022 764.326,130.906 C763.25,131.022 763.634,132.177 763.959,134.408 C764.284,136.639 764.599,138.316 763.214,139.487 C762.263,140.292 760.999,139.267 759.914,139.218 C758.742,139.164 757.721,140.051 755.903,138.731 C754.024,137.366 754.685,136.216 754.271,135.118 C753.889,134.102 752.524,133.216 752.995,132.062 C753.681,130.384 755.373,130.165 757.595,129.784 C759.818,129.404 760.826,129.299 760.604,128.24 M764.477,128.208 C765.345,128.208 766.049,127.504 766.049,126.636 C766.049,125.768 765.345,125.065 764.477,125.065 C763.609,125.065 762.906,125.768 762.906,126.636 C762.906,127.504 763.609,128.208 764.477,128.208 z" fill="#151212"/>
    <path d="M721.229,127.7 C720.786,126.712 719.654,127.063 717.632,128.061 C715.61,129.06 714.113,129.877 712.572,128.922 C711.512,128.266 712.096,126.747 711.808,125.7 C711.497,124.569 710.337,123.872 711.031,121.735 C711.749,119.526 713.047,119.799 713.964,119.067 C714.812,118.389 715.232,116.817 716.475,116.909 C718.283,117.042 719.014,118.584 720.063,120.58 C721.112,122.576 721.713,123.53 722.651,122.992 C723.453,122.266 722.77,121.297 721.196,119.683 C719.622,118.069 718.381,116.897 718.813,115.136 C719.11,113.926 720.735,114.012 721.641,113.414 C722.622,112.769 722.926,111.45 725.172,111.45 C727.495,111.45 727.636,112.769 728.617,113.414 C729.523,114.012 731.148,113.926 731.445,115.136 C731.877,116.897 730.636,118.069 729.062,119.683 C727.488,121.297 726.805,122.266 727.607,122.992 C728.545,123.53 729.06,122.434 730.109,120.438 C731.158,118.442 731.888,116.9 733.697,116.767 C734.94,116.675 735.36,118.247 736.208,118.925 C737.125,119.657 738.473,119.539 739.167,121.676 C739.885,123.885 738.675,124.427 738.364,125.558 C738.076,126.605 738.66,128.124 737.6,128.78 C736.059,129.735 734.561,128.918 732.54,127.919 C730.518,126.921 729.427,126.31 728.984,127.297 C728.762,128.356 729.86,128.894 732.083,129.274 C734.305,129.655 735.997,129.873 736.683,131.552 C737.154,132.706 735.789,133.591 735.407,134.607 C734.993,135.706 735.522,136.951 733.705,138.272 C731.826,139.637 730.936,138.654 729.764,138.707 C728.679,138.757 727.415,139.782 726.464,138.977 C725.079,137.806 725.394,136.129 725.719,133.898 C726.044,131.667 726.027,130.482 724.951,130.365 C723.875,130.482 724.26,131.636 724.584,133.867 C724.909,136.099 725.224,137.775 723.84,138.946 C722.888,139.751 721.624,138.727 720.539,138.677 C719.367,138.623 718.346,139.511 716.529,138.19 C714.649,136.825 715.31,135.675 714.896,134.577 C714.514,133.561 713.149,132.675 713.62,131.521 C714.306,129.843 715.998,129.624 718.22,129.244 C720.443,128.863 721.451,128.759 721.229,127.7 M725.102,127.667 C725.97,127.667 726.674,126.963 726.674,126.095 C726.674,125.228 725.97,124.524 725.102,124.524 C724.234,124.524 723.531,125.228 723.531,126.095 C723.531,126.963 724.234,127.667 725.102,127.667 z" fill="#151212"/>
    <g>
      <path d="M702.139,174.274 C701.723,173.348 700.661,173.677 698.766,174.613 C696.87,175.549 695.466,176.316 694.021,175.421 C693.027,174.805 693.575,173.381 693.305,172.4 C693.013,171.338 691.926,170.685 692.576,168.682 C693.25,166.61 694.466,166.866 695.326,166.179 C696.121,165.544 696.515,164.07 697.681,164.156 C699.377,164.281 700.062,165.727 701.045,167.598 C702.029,169.47 702.592,170.365 703.472,169.86 C704.224,169.179 703.584,168.271 702.107,166.757 C700.631,165.244 699.468,164.145 699.873,162.494 C700.152,161.359 701.675,161.439 702.525,160.879 C703.444,160.274 703.73,159.038 705.836,159.038 C708.014,159.038 708.147,160.274 709.066,160.879 C709.916,161.439 711.439,161.359 711.718,162.494 C712.123,164.145 710.96,165.244 709.483,166.757 C708.007,168.271 707.367,169.179 708.119,169.86 C708.999,170.365 709.482,169.337 710.465,167.465 C711.448,165.593 712.134,164.148 713.829,164.023 C714.995,163.937 715.389,165.411 716.184,166.046 C717.044,166.733 718.308,166.622 718.959,168.626 C719.632,170.697 718.497,171.205 718.205,172.266 C717.935,173.248 718.483,174.672 717.489,175.287 C716.044,176.183 714.64,175.416 712.744,174.48 C710.849,173.544 709.825,172.971 709.41,173.897 C709.202,174.89 710.232,175.394 712.316,175.75 C714.4,176.107 715.986,176.312 716.629,177.886 C717.071,178.968 715.791,179.799 715.433,180.751 C715.045,181.781 715.541,182.949 713.837,184.187 C712.075,185.467 711.241,184.545 710.141,184.596 C709.125,184.642 707.939,185.603 707.047,184.848 C705.748,183.751 706.044,182.178 706.348,180.086 C706.653,177.994 706.637,176.883 705.629,176.774 C704.62,176.883 704.98,177.965 705.285,180.057 C705.589,182.15 705.885,183.722 704.586,184.82 C703.694,185.574 702.509,184.614 701.492,184.567 C700.393,184.517 699.435,185.349 697.731,184.111 C695.969,182.831 696.588,181.753 696.201,180.723 C695.842,179.77 694.562,178.94 695.004,177.858 C695.647,176.284 697.234,176.079 699.318,175.722 C701.401,175.365 702.347,175.267 702.139,174.274 M705.77,174.243 C706.584,174.243 707.244,173.584 707.244,172.77 C707.244,171.956 706.584,171.296 705.77,171.296 C704.957,171.296 704.297,171.956 704.297,172.77 C704.297,173.584 704.957,174.243 705.77,174.243 z" fill="#FFFFFE"/>
      <path d="M702.139,174.274 C701.723,173.348 700.661,173.677 698.766,174.613 C696.87,175.549 695.466,176.316 694.021,175.421 C693.027,174.805 693.575,173.381 693.305,172.4 C693.013,171.338 691.926,170.685 692.576,168.682 C693.25,166.61 694.466,166.866 695.326,166.179 C696.121,165.544 696.515,164.07 697.681,164.156 C699.377,164.281 700.062,165.727 701.045,167.598 C702.029,169.47 702.592,170.365 703.472,169.86 C704.224,169.179 703.584,168.271 702.107,166.757 C700.631,165.244 699.468,164.145 699.873,162.494 C700.152,161.359 701.675,161.439 702.525,160.879 C703.444,160.274 703.73,159.038 705.836,159.038 C708.014,159.038 708.147,160.274 709.066,160.879 C709.916,161.439 711.439,161.359 711.718,162.494 C712.123,164.145 710.96,165.244 709.483,166.757 C708.007,168.271 707.367,169.179 708.119,169.86 C708.999,170.365 709.482,169.337 710.465,167.465 C711.448,165.593 712.134,164.148 713.829,164.023 C714.995,163.937 715.389,165.411 716.184,166.046 C717.044,166.733 718.308,166.622 718.959,168.626 C719.632,170.697 718.497,171.205 718.205,172.266 C717.935,173.248 718.483,174.672 717.489,175.287 C716.044,176.183 714.64,175.416 712.744,174.48 C710.849,173.544 709.825,172.971 709.41,173.897 C709.202,174.89 710.232,175.394 712.316,175.75 C714.4,176.107 715.986,176.312 716.629,177.886 C717.071,178.968 715.791,179.799 715.433,180.751 C715.045,181.781 715.541,182.949 713.837,184.187 C712.075,185.467 711.241,184.545 710.141,184.596 C709.125,184.642 707.939,185.603 707.047,184.848 C705.748,183.751 706.044,182.178 706.348,180.086 C706.653,177.994 706.637,176.883 705.629,176.774 C704.62,176.883 704.98,177.965 705.285,180.057 C705.589,182.15 705.885,183.722 704.586,184.82 C703.694,185.574 702.509,184.614 701.492,184.567 C700.393,184.517 699.435,185.349 697.731,184.111 C695.969,182.831 696.588,181.753 696.201,180.723 C695.842,179.77 694.562,178.94 695.004,177.858 C695.647,176.284 697.234,176.079 699.318,175.722 C701.401,175.365 702.347,175.267 702.139,174.274 M705.77,174.243 C706.584,174.243 707.244,173.584 707.244,172.77 C707.244,171.956 706.584,171.296 705.77,171.296 C704.957,171.296 704.297,171.956 704.297,172.77 C704.297,173.584 704.957,174.243 705.77,174.243 z" fill-opacity="0" stroke="#1A1919" stroke-width="0.75"/>
    </g>
    <g>
      <g>
        <path d="M685.378,104.041 C683.715,104.041 683.142,102.616 683.142,102.616 C683.142,102.616 672.195,102.341 671.476,102.341 C670.756,102.341 670.422,101.916 670.422,101.241 C670.422,100.566 670.422,99.116 670.422,98.691 C670.422,98.266 670.242,97.716 669.266,97.716 C668.29,97.716 669.523,97.716 668.187,97.716 C665.874,97.716 665.9,94.766 668.161,94.766 C669.395,94.766 668.624,94.741 669.317,94.741 C670.011,94.741 670.397,94.266 670.397,93.566 C670.397,92.866 670.397,87.141 670.397,86.366 C670.397,85.591 670.217,85.166 669.163,85.166 C668.11,85.166 668.624,85.166 667.904,85.166 C666.003,85.166 665.951,82.366 667.93,82.366 C669.112,82.366 668.804,82.366 669.446,82.366 C670.088,82.366 670.371,82.141 670.371,81.316 C670.371,80.491 670.371,79.266 670.371,78.391 C670.371,77.516 670.988,77.341 671.707,77.341 C672.427,77.341 678.337,77.366 679.647,77.366 C680.958,77.366 682.165,77.541 683.091,77.791 C684.016,78.041 685.378,78.791 685.378,78.791 C685.378,78.791 686.739,78.041 687.664,77.791 C688.59,77.541 689.797,77.366 691.108,77.366 C692.418,77.366 698.328,77.341 699.048,77.341 C699.767,77.341 700.384,77.516 700.384,78.391 C700.384,79.266 700.384,80.491 700.384,81.316 C700.384,82.141 700.667,82.366 701.309,82.366 C701.951,82.366 701.643,82.366 702.825,82.366 C704.804,82.366 704.752,85.166 702.851,85.166 C702.131,85.166 702.645,85.166 701.592,85.166 C700.538,85.166 700.358,85.591 700.358,86.366 C700.358,87.141 700.358,92.866 700.358,93.566 C700.358,94.266 700.744,94.741 701.438,94.741 C702.131,94.741 701.36,94.766 702.594,94.766 C704.855,94.766 704.881,97.716 702.568,97.716 C701.232,97.716 702.465,97.716 701.489,97.716 C700.513,97.716 700.333,98.266 700.333,98.691 C700.333,99.116 700.333,100.566 700.333,101.241 C700.333,101.916 699.999,102.341 699.279,102.341 C698.56,102.341 687.613,102.616 687.613,102.616 C687.613,102.616 686.94,104.041 685.378,104.041" fill="#FFFFFD"/>
        <path d="M685.378,104.041 C683.715,104.041 683.142,102.616 683.142,102.616 C683.142,102.616 672.195,102.341 671.476,102.341 C670.756,102.341 670.422,101.916 670.422,101.241 C670.422,100.566 670.422,99.116 670.422,98.691 C670.422,98.266 670.242,97.716 669.266,97.716 C668.29,97.716 669.523,97.716 668.187,97.716 C665.874,97.716 665.9,94.766 668.161,94.766 C669.395,94.766 668.624,94.741 669.317,94.741 C670.011,94.741 670.397,94.266 670.397,93.566 C670.397,92.866 670.397,87.141 670.397,86.366 C670.397,85.591 670.217,85.166 669.163,85.166 C668.11,85.166 668.624,85.166 667.904,85.166 C666.003,85.166 665.951,82.366 667.93,82.366 C669.112,82.366 668.804,82.366 669.446,82.366 C670.088,82.366 670.371,82.141 670.371,81.316 C670.371,80.491 670.371,79.266 670.371,78.391 C670.371,77.516 670.988,77.341 671.707,77.341 C672.427,77.341 678.337,77.366 679.647,77.366 C680.958,77.366 682.165,77.541 683.091,77.791 C684.016,78.041 685.378,78.791 685.378,78.791 C685.378,78.791 686.739,78.041 687.664,77.791 C688.59,77.541 689.797,77.366 691.108,77.366 C692.418,77.366 698.328,77.341 699.048,77.341 C699.767,77.341 700.384,77.516 700.384,78.391 C700.384,79.266 700.384,80.491 700.384,81.316 C700.384,82.141 700.667,82.366 701.309,82.366 C701.951,82.366 701.643,82.366 702.825,82.366 C704.804,82.366 704.752,85.166 702.851,85.166 C702.131,85.166 702.645,85.166 701.592,85.166 C700.538,85.166 700.358,85.591 700.358,86.366 C700.358,87.141 700.358,92.866 700.358,93.566 C700.358,94.266 700.744,94.741 701.438,94.741 C702.131,94.741 701.36,94.766 702.594,94.766 C704.855,94.766 704.881,97.716 702.568,97.716 C701.232,97.716 702.465,97.716 701.489,97.716 C700.513,97.716 700.333,98.266 700.333,98.691 C700.333,99.116 700.333,100.566 700.333,101.241 C700.333,101.916 699.999,102.341 699.279,102.341 C698.56,102.341 687.613,102.616 687.613,102.616 C687.613,102.616 686.94,104.041 685.378,104.041" fill-opacity="0" stroke="#000000" stroke-width="1.125"/>
      </g>
      <g>
        <path d="M685.378,78.791 L685.378,99.716" fill="#FFFFFF"/>
        <path d="M685.378,78.791 L685.378,99.716" fill-opacity="0" stroke="#000000" stroke-width="0.75"/>
      </g>
      <g>
        <path d="M674.965,77.716 L674.965,98.441 L673.315,100.091" fill-opacity="0" stroke="#000000" stroke-width="0.75"/>
        <path d="M674.965,77.716 L672.59,80.241 C672.59,80.241 672.59,97.991 672.59,98.841 C672.59,99.691 672.94,100.466 674.465,100.466 C675.99,100.466 679.69,100.466 680.59,100.466 C682.165,100.466 683.64,101.116 683.64,101.116" fill-opacity="0" stroke="#000000" stroke-width="0.875"/>
        <path d="M674.965,98.441 C674.965,98.441 678.49,98.441 680.94,98.441 C683.39,98.441 685.215,99.441 685.215,99.441" fill-opacity="0" stroke="#000000" stroke-width="0.875"/>
        <path d="M683.215,102.366 C683.215,102.366 682.773,101.252 683.64,100.291 C684.565,99.266 685.378,99.316 685.378,99.316" fill-opacity="0" stroke="#000000" stroke-width="0.875"/>
      </g>
      <g>
        <path d="M695.877,77.716 L695.877,98.441 L697.527,100.091" fill-opacity="0" stroke="#000000" stroke-width="0.75"/>
        <path d="M695.877,77.716 L698.252,80.241 C698.252,80.241 698.252,97.991 698.252,98.841 C698.252,99.691 697.902,100.466 696.377,100.466 C694.852,100.466 691.152,100.466 690.252,100.466 C688.677,100.466 687.202,101.116 687.202,101.116" fill-opacity="0" stroke="#000000" stroke-width="0.875"/>
        <path d="M695.877,98.441 C695.877,98.441 692.352,98.441 689.902,98.441 C687.452,98.441 685.627,99.441 685.627,99.441" fill-opacity="0" stroke="#000000" stroke-width="0.875"/>
        <path d="M687.627,102.366 C687.627,102.366 688.069,101.252 687.202,100.291 C686.277,99.266 685.465,99.316 685.465,99.316" fill-opacity="0" stroke="#000000" stroke-width="0.875"/>
      </g>
    </g>
    <g>
      <g>
        <path d="M725.14,104.041 C723.478,104.041 722.904,102.616 722.904,102.616 C722.904,102.616 711.958,102.341 711.238,102.341 C710.519,102.341 710.185,101.916 710.185,101.241 C710.185,100.566 710.185,99.116 710.185,98.691 C710.185,98.266 710.005,97.716 709.029,97.716 C708.052,97.716 709.286,97.716 707.949,97.716 C705.637,97.716 705.662,94.766 707.924,94.766 C709.157,94.766 708.386,94.741 709.08,94.741 C709.774,94.741 710.159,94.266 710.159,93.566 C710.159,92.866 710.159,87.141 710.159,86.366 C710.159,85.591 709.979,85.166 708.926,85.166 C707.872,85.166 708.386,85.166 707.667,85.166 C705.765,85.166 705.714,82.366 707.692,82.366 C708.874,82.366 708.566,82.366 709.208,82.366 C709.851,82.366 710.133,82.141 710.133,81.316 C710.133,80.491 710.133,79.266 710.133,78.391 C710.133,77.516 710.75,77.341 711.47,77.341 C712.189,77.341 718.099,77.366 719.41,77.366 C720.72,77.366 721.928,77.541 722.853,77.791 C723.778,78.041 725.14,78.791 725.14,78.791 C725.14,78.791 726.502,78.041 727.427,77.791 C728.352,77.541 729.56,77.366 730.87,77.366 C732.181,77.366 738.091,77.341 738.81,77.341 C739.53,77.341 740.147,77.516 740.147,78.391 C740.147,79.266 740.147,80.491 740.147,81.316 C740.147,82.141 740.429,82.366 741.072,82.366 C741.714,82.366 741.406,82.366 742.588,82.366 C744.566,82.366 744.515,85.166 742.613,85.166 C741.894,85.166 742.408,85.166 741.354,85.166 C740.301,85.166 740.121,85.591 740.121,86.366 C740.121,87.141 740.121,92.866 740.121,93.566 C740.121,94.266 740.506,94.741 741.2,94.741 C741.894,94.741 741.123,94.766 742.356,94.766 C744.618,94.766 744.643,97.716 742.331,97.716 C740.995,97.716 742.228,97.716 741.251,97.716 C740.275,97.716 740.095,98.266 740.095,98.691 C740.095,99.116 740.095,100.566 740.095,101.241 C740.095,101.916 739.761,102.341 739.042,102.341 C738.322,102.341 727.376,102.616 727.376,102.616 C727.376,102.616 726.703,104.041 725.14,104.041" fill="#FFFFFD"/>
        <path d="M725.14,104.041 C723.478,104.041 722.904,102.616 722.904,102.616 C722.904,102.616 711.958,102.341 711.238,102.341 C710.519,102.341 710.185,101.916 710.185,101.241 C710.185,100.566 710.185,99.116 710.185,98.691 C710.185,98.266 710.005,97.716 709.029,97.716 C708.052,97.716 709.286,97.716 707.949,97.716 C705.637,97.716 705.662,94.766 707.924,94.766 C709.157,94.766 708.386,94.741 709.08,94.741 C709.774,94.741 710.159,94.266 710.159,93.566 C710.159,92.866 710.159,87.141 710.159,86.366 C710.159,85.591 709.979,85.166 708.926,85.166 C707.872,85.166 708.386,85.166 707.667,85.166 C705.765,85.166 705.714,82.366 707.692,82.366 C708.874,82.366 708.566,82.366 709.208,82.366 C709.851,82.366 710.133,82.141 710.133,81.316 C710.133,80.491 710.133,79.266 710.133,78.391 C710.133,77.516 710.75,77.341 711.47,77.341 C712.189,77.341 718.099,77.366 719.41,77.366 C720.72,77.366 721.928,77.541 722.853,77.791 C723.778,78.041 725.14,78.791 725.14,78.791 C725.14,78.791 726.502,78.041 727.427,77.791 C728.352,77.541 729.56,77.366 730.87,77.366 C732.181,77.366 738.091,77.341 738.81,77.341 C739.53,77.341 740.147,77.516 740.147,78.391 C740.147,79.266 740.147,80.491 740.147,81.316 C740.147,82.141 740.429,82.366 741.072,82.366 C741.714,82.366 741.406,82.366 742.588,82.366 C744.566,82.366 744.515,85.166 742.613,85.166 C741.894,85.166 742.408,85.166 741.354,85.166 C740.301,85.166 740.121,85.591 740.121,86.366 C740.121,87.141 740.121,92.866 740.121,93.566 C740.121,94.266 740.506,94.741 741.2,94.741 C741.894,94.741 741.123,94.766 742.356,94.766 C744.618,94.766 744.643,97.716 742.331,97.716 C740.995,97.716 742.228,97.716 741.251,97.716 C740.275,97.716 740.095,98.266 740.095,98.691 C740.095,99.116 740.095,100.566 740.095,101.241 C740.095,101.916 739.761,102.341 739.042,102.341 C738.322,102.341 727.376,102.616 727.376,102.616 C727.376,102.616 726.703,104.041 725.14,104.041" fill-opacity="0" stroke="#000000" stroke-width="1.125"/>
      </g>
      <g>
        <path d="M725.14,78.791 L725.14,99.716" fill="#FFFFFF"/>
        <path d="M725.14,78.791 L725.14,99.716" fill-opacity="0" stroke="#000000" stroke-width="0.75"/>
      </g>
      <g>
        <path d="M714.728,77.716 L714.728,98.441 L713.078,100.091" fill-opacity="0" stroke="#000000" stroke-width="0.75"/>
        <path d="M714.728,77.716 L712.353,80.241 C712.353,80.241 712.353,97.991 712.353,98.841 C712.353,99.691 712.703,100.466 714.228,100.466 C715.753,100.466 719.453,100.466 720.353,100.466 C721.928,100.466 723.403,101.116 723.403,101.116" fill-opacity="0" stroke="#000000" stroke-width="0.875"/>
        <path d="M714.728,98.441 C714.728,98.441 718.253,98.441 720.703,98.441 C723.153,98.441 724.978,99.441 724.978,99.441" fill-opacity="0" stroke="#000000" stroke-width="0.875"/>
        <path d="M722.978,102.366 C722.978,102.366 722.536,101.252 723.403,100.291 C724.328,99.266 725.14,99.316 725.14,99.316" fill-opacity="0" stroke="#000000" stroke-width="0.875"/>
      </g>
      <g>
        <path d="M735.64,77.716 L735.64,98.441 L737.29,100.091" fill-opacity="0" stroke="#000000" stroke-width="0.75"/>
        <path d="M735.64,77.716 L738.015,80.241 C738.015,80.241 738.015,97.991 738.015,98.841 C738.015,99.691 737.665,100.466 736.14,100.466 C734.615,100.466 730.915,100.466 730.015,100.466 C728.44,100.466 726.965,101.116 726.965,101.116" fill-opacity="0" stroke="#000000" stroke-width="0.875"/>
        <path d="M735.64,98.441 C735.64,98.441 732.115,98.441 729.665,98.441 C727.215,98.441 725.39,99.441 725.39,99.441" fill-opacity="0" stroke="#000000" stroke-width="0.875"/>
        <path d="M727.39,102.366 C727.39,102.366 727.832,101.252 726.965,100.291 C726.04,99.266 725.228,99.316 725.228,99.316" fill-opacity="0" stroke="#000000" stroke-width="0.875"/>
      </g>
    </g>
    <g>
      <g>
        <path d="M764.952,104.041 C763.29,104.041 762.717,102.616 762.717,102.616 C762.717,102.616 751.77,102.341 751.051,102.341 C750.331,102.341 749.997,101.916 749.997,101.241 C749.997,100.566 749.997,99.116 749.997,98.691 C749.997,98.266 749.817,97.716 748.841,97.716 C747.864,97.716 749.098,97.716 747.761,97.716 C745.449,97.716 745.474,94.766 747.736,94.766 C748.969,94.766 748.198,94.741 748.892,94.741 C749.586,94.741 749.971,94.266 749.971,93.566 C749.971,92.866 749.971,87.141 749.971,86.366 C749.971,85.591 749.791,85.166 748.738,85.166 C747.684,85.166 748.198,85.166 747.479,85.166 C745.577,85.166 745.526,82.366 747.505,82.366 C748.687,82.366 748.378,82.366 749.021,82.366 C749.663,82.366 749.946,82.141 749.946,81.316 C749.946,80.491 749.946,79.266 749.946,78.391 C749.946,77.516 750.562,77.341 751.282,77.341 C752.001,77.341 757.911,77.366 759.222,77.366 C760.532,77.366 761.74,77.541 762.665,77.791 C763.59,78.041 764.952,78.791 764.952,78.791 C764.952,78.791 766.314,78.041 767.239,77.791 C768.164,77.541 769.372,77.366 770.682,77.366 C771.993,77.366 777.903,77.341 778.622,77.341 C779.342,77.341 779.959,77.516 779.959,78.391 C779.959,79.266 779.959,80.491 779.959,81.316 C779.959,82.141 780.241,82.366 780.884,82.366 C781.526,82.366 781.218,82.366 782.4,82.366 C784.378,82.366 784.327,85.166 782.425,85.166 C781.706,85.166 782.22,85.166 781.166,85.166 C780.113,85.166 779.933,85.591 779.933,86.366 C779.933,87.141 779.933,92.866 779.933,93.566 C779.933,94.266 780.318,94.741 781.012,94.741 C781.706,94.741 780.935,94.766 782.169,94.766 C784.43,94.766 784.456,97.716 782.143,97.716 C780.807,97.716 782.04,97.716 781.064,97.716 C780.087,97.716 779.907,98.266 779.907,98.691 C779.907,99.116 779.907,100.566 779.907,101.241 C779.907,101.916 779.573,102.341 778.854,102.341 C778.134,102.341 767.188,102.616 767.188,102.616 C767.188,102.616 766.515,104.041 764.952,104.041" fill="#FFFFFD"/>
        <path d="M764.952,104.041 C763.29,104.041 762.717,102.616 762.717,102.616 C762.717,102.616 751.77,102.341 751.051,102.341 C750.331,102.341 749.997,101.916 749.997,101.241 C749.997,100.566 749.997,99.116 749.997,98.691 C749.997,98.266 749.817,97.716 748.841,97.716 C747.864,97.716 749.098,97.716 747.761,97.716 C745.449,97.716 745.474,94.766 747.736,94.766 C748.969,94.766 748.198,94.741 748.892,94.741 C749.586,94.741 749.971,94.266 749.971,93.566 C749.971,92.866 749.971,87.141 749.971,86.366 C749.971,85.591 749.791,85.166 748.738,85.166 C747.684,85.166 748.198,85.166 747.479,85.166 C745.577,85.166 745.526,82.366 747.505,82.366 C748.687,82.366 748.378,82.366 749.021,82.366 C749.663,82.366 749.946,82.141 749.946,81.316 C749.946,80.491 749.946,79.266 749.946,78.391 C749.946,77.516 750.562,77.341 751.282,77.341 C752.001,77.341 757.911,77.366 759.222,77.366 C760.532,77.366 761.74,77.541 762.665,77.791 C763.59,78.041 764.952,78.791 764.952,78.791 C764.952,78.791 766.314,78.041 767.239,77.791 C768.164,77.541 769.372,77.366 770.682,77.366 C771.993,77.366 777.903,77.341 778.622,77.341 C779.342,77.341 779.959,77.516 779.959,78.391 C779.959,79.266 779.959,80.491 779.959,81.316 C779.959,82.141 780.241,82.366 780.884,82.366 C781.526,82.366 781.218,82.366 782.4,82.366 C784.378,82.366 784.327,85.166 782.425,85.166 C781.706,85.166 782.22,85.166 781.166,85.166 C780.113,85.166 779.933,85.591 779.933,86.366 C779.933,87.141 779.933,92.866 779.933,93.566 C779.933,94.266 780.318,94.741 781.012,94.741 C781.706,94.741 780.935,94.766 782.169,94.766 C784.43,94.766 784.456,97.716 782.143,97.716 C780.807,97.716 782.04,97.716 781.064,97.716 C780.087,97.716 779.907,98.266 779.907,98.691 C779.907,99.116 779.907,100.566 779.907,101.241 C779.907,101.916 779.573,102.341 778.854,102.341 C778.134,102.341 767.188,102.616 767.188,102.616 C767.188,102.616 766.515,104.041 764.952,104.041" fill-opacity="0" stroke="#000000" stroke-width="1.125"/>
      </g>
      <g>
        <path d="M764.952,78.791 L764.952,99.716" fill="#FFFFFF"/>
        <path d="M764.952,78.791 L764.952,99.716" fill-opacity="0" stroke="#000000" stroke-width="0.75"/>
      </g>
      <g>
        <path d="M754.54,77.716 L754.54,98.441 L752.89,100.091" fill-opacity="0" stroke="#000000" stroke-width="0.75"/>
        <path d="M754.54,77.716 L752.165,80.241 C752.165,80.241 752.165,97.991 752.165,98.841 C752.165,99.691 752.515,100.466 754.04,100.466 C755.565,100.466 759.265,100.466 760.165,100.466 C761.74,100.466 763.215,101.116 763.215,101.116" fill-opacity="0" stroke="#000000" stroke-width="0.875"/>
        <path d="M754.54,98.441 C754.54,98.441 758.065,98.441 760.515,98.441 C762.965,98.441 764.79,99.441 764.79,99.441" fill-opacity="0" stroke="#000000" stroke-width="0.875"/>
        <path d="M762.79,102.366 C762.79,102.366 762.348,101.252 763.215,100.291 C764.14,99.266 764.952,99.316 764.952,99.316" fill-opacity="0" stroke="#000000" stroke-width="0.875"/>
      </g>
      <g>
        <path d="M775.452,77.716 L775.452,98.441 L777.102,100.091" fill-opacity="0" stroke="#000000" stroke-width="0.75"/>
        <path d="M775.452,77.716 L777.827,80.241 C777.827,80.241 777.827,97.991 777.827,98.841 C777.827,99.691 777.477,100.466 775.952,100.466 C774.427,100.466 770.727,100.466 769.827,100.466 C768.252,100.466 766.777,101.116 766.777,101.116" fill-opacity="0" stroke="#000000" stroke-width="0.875"/>
        <path d="M775.452,98.441 C775.452,98.441 771.927,98.441 769.477,98.441 C767.027,98.441 765.202,99.441 765.202,99.441" fill-opacity="0" stroke="#000000" stroke-width="0.875"/>
        <path d="M767.202,102.366 C767.202,102.366 767.644,101.252 766.777,100.291 C765.852,99.266 765.04,99.316 765.04,99.316" fill-opacity="0" stroke="#000000" stroke-width="0.875"/>
      </g>
    </g>
    <g>
      <path d="M679.188,90.969 C679.404,91.586 679.633,92.305 679.773,92.921 C679.836,92.951 679.9,92.965 679.963,92.965 C680.014,92.965 680.065,92.951 680.103,92.921 C680.319,92.143 680.916,90.441 681.424,89.09 L682.11,87.285 C682.682,85.788 683.177,84.599 683.533,83.909 C683.698,83.601 683.889,83.424 684.194,83.395 L684.575,83.366 C684.638,83.292 684.638,83.057 684.55,82.999 C684.13,83.028 683.736,83.043 683.317,83.043 C682.834,83.043 682.352,83.028 681.996,82.999 C681.907,83.057 681.882,83.278 681.971,83.366 L682.199,83.395 C682.644,83.454 682.771,83.571 682.771,83.674 C682.771,83.777 682.758,83.938 682.657,84.246 C682.441,84.878 681.844,86.536 681.475,87.534 C681.183,88.312 680.649,89.824 680.255,90.793 C679.62,89.12 679.036,87.432 678.451,85.729 C678.058,84.613 677.842,83.821 677.816,83.674 C677.829,83.557 677.931,83.468 678.413,83.395 L678.604,83.366 C678.693,83.278 678.667,83.057 678.578,82.999 C678.045,83.028 677.6,83.043 677.041,83.043 C676.495,83.043 676.088,83.028 675.72,82.999 C675.618,83.072 675.606,83.278 675.695,83.366 L675.923,83.395 C676.47,83.468 676.66,83.777 676.952,84.599 z" fill="#000000"/>
      <path d="M679.188,90.969 C679.404,91.586 679.633,92.305 679.773,92.921 C679.836,92.951 679.9,92.965 679.963,92.965 C680.014,92.965 680.065,92.951 680.103,92.921 C680.319,92.143 680.916,90.441 681.424,89.09 L682.11,87.285 C682.682,85.788 683.177,84.599 683.533,83.909 C683.698,83.601 683.889,83.424 684.194,83.395 L684.575,83.366 C684.638,83.292 684.638,83.057 684.55,82.999 C684.13,83.028 683.736,83.043 683.317,83.043 C682.834,83.043 682.352,83.028 681.996,82.999 C681.907,83.057 681.882,83.278 681.971,83.366 L682.199,83.395 C682.644,83.454 682.771,83.571 682.771,83.674 C682.771,83.777 682.758,83.938 682.657,84.246 C682.441,84.878 681.844,86.536 681.475,87.534 C681.183,88.312 680.649,89.824 680.255,90.793 C679.62,89.12 679.036,87.432 678.451,85.729 C678.058,84.613 677.842,83.821 677.816,83.674 C677.829,83.557 677.931,83.468 678.413,83.395 L678.604,83.366 C678.693,83.278 678.667,83.057 678.578,82.999 C678.045,83.028 677.6,83.043 677.041,83.043 C676.495,83.043 676.088,83.028 675.72,82.999 C675.618,83.072 675.606,83.278 675.695,83.366 L675.923,83.395 C676.47,83.468 676.66,83.777 676.952,84.599 z" fill-opacity="0" stroke="#1A1919" stroke-width="0.375"/>
    </g>
    <g>
      <path d="M687.894,90.529 C687.894,92.07 687.83,92.29 687.106,92.364 L686.687,92.408 C686.611,92.496 686.636,92.731 686.712,92.775 C687.462,92.745 687.894,92.731 688.44,92.731 L689.583,92.731 C690.714,92.731 691.845,92.745 692.988,92.775 C693.153,92.378 693.471,91.248 693.56,90.734 C693.509,90.602 693.331,90.558 693.242,90.632 C692.912,91.395 692.569,91.909 692.34,92.055 C692.061,92.217 691.692,92.276 690.714,92.276 C689.596,92.276 689.329,92.114 689.177,91.938 C688.974,91.688 688.936,91.189 688.936,90.411 L688.936,88.342 C688.936,87.96 688.974,87.945 689.355,87.945 L690.092,87.945 C690.587,87.945 690.892,87.96 691.07,88.019 C691.324,88.092 691.413,88.312 691.464,88.577 L691.578,89.149 C691.642,89.237 691.858,89.237 691.908,89.134 C691.908,88.811 691.858,88.254 691.858,87.725 C691.858,87.167 691.908,86.595 691.908,86.243 C691.858,86.14 691.642,86.14 691.578,86.228 L691.476,86.83 C691.413,87.197 691.324,87.285 691.172,87.344 C691.019,87.402 690.625,87.432 690.092,87.432 L689.355,87.432 C688.974,87.432 688.936,87.432 688.936,87.021 L688.936,84.085 C688.936,83.527 688.936,83.498 689.317,83.498 L690.231,83.498 C690.79,83.498 691.197,83.513 691.464,83.586 C692.124,83.777 692.239,84.29 692.429,84.98 C692.493,85.068 692.696,85.039 692.747,84.951 C692.696,84.305 692.62,83.248 692.544,82.999 C692.391,83.043 691.642,83.043 690.829,83.043 L688.44,83.043 C687.919,83.043 687.487,83.028 686.941,82.999 C686.865,83.043 686.839,83.307 686.916,83.366 L687.119,83.395 C687.868,83.498 687.894,83.718 687.894,85.245 z" fill="#000000"/>
      <path d="M687.894,90.529 C687.894,92.07 687.83,92.29 687.106,92.364 L686.687,92.408 C686.611,92.496 686.636,92.731 686.712,92.775 C687.462,92.745 687.894,92.731 688.44,92.731 L689.583,92.731 C690.714,92.731 691.845,92.745 692.988,92.775 C693.153,92.378 693.471,91.248 693.56,90.734 C693.509,90.602 693.331,90.558 693.242,90.632 C692.912,91.395 692.569,91.909 692.34,92.055 C692.061,92.217 691.692,92.276 690.714,92.276 C689.596,92.276 689.329,92.114 689.177,91.938 C688.974,91.688 688.936,91.189 688.936,90.411 L688.936,88.342 C688.936,87.96 688.974,87.945 689.355,87.945 L690.092,87.945 C690.587,87.945 690.892,87.96 691.07,88.019 C691.324,88.092 691.413,88.312 691.464,88.577 L691.578,89.149 C691.642,89.237 691.858,89.237 691.908,89.134 C691.908,88.811 691.858,88.254 691.858,87.725 C691.858,87.167 691.908,86.595 691.908,86.243 C691.858,86.14 691.642,86.14 691.578,86.228 L691.476,86.83 C691.413,87.197 691.324,87.285 691.172,87.344 C691.019,87.402 690.625,87.432 690.092,87.432 L689.355,87.432 C688.974,87.432 688.936,87.432 688.936,87.021 L688.936,84.085 C688.936,83.527 688.936,83.498 689.317,83.498 L690.231,83.498 C690.79,83.498 691.197,83.513 691.464,83.586 C692.124,83.777 692.239,84.29 692.429,84.98 C692.493,85.068 692.696,85.039 692.747,84.951 C692.696,84.305 692.62,83.248 692.544,82.999 C692.391,83.043 691.642,83.043 690.829,83.043 L688.44,83.043 C687.919,83.043 687.487,83.028 686.941,82.999 C686.865,83.043 686.839,83.307 686.916,83.366 L687.119,83.395 C687.868,83.498 687.894,83.718 687.894,85.245 z" fill-opacity="0" stroke="#1A1919" stroke-width="0.375"/>
    </g>
    <g>
      <path d="M717.998,90.566 C717.998,92.107 717.972,92.298 717.235,92.4 L716.918,92.444 C716.842,92.547 716.867,92.767 716.943,92.811 C717.54,92.782 717.998,92.767 718.531,92.767 C719.039,92.767 719.471,92.782 720.043,92.811 C720.119,92.767 720.145,92.518 720.068,92.444 L719.802,92.4 C719.065,92.283 719.039,92.107 719.039,90.566 L719.039,88.716 C719.039,88.408 719.065,88.393 719.637,88.393 C720.145,88.393 720.348,88.54 720.539,88.863 C720.932,89.523 721.453,90.536 721.784,91.079 C722.686,92.562 723.333,92.929 724.413,92.929 C724.655,92.929 724.858,92.899 724.972,92.855 C725.036,92.797 725.023,92.679 724.96,92.65 C724.617,92.621 724.299,92.459 724.083,92.239 C723.219,91.402 722.546,90.228 721.529,88.334 C721.466,88.217 721.402,88.07 721.466,87.982 C722.101,87.689 723.054,86.925 723.054,85.531 C723.054,84.503 722.609,83.843 722,83.476 C721.415,83.109 720.666,83.035 719.878,83.035 C718.633,83.035 717.756,83.079 717.045,83.153 C716.943,83.212 716.943,83.446 717.032,83.52 L717.439,83.579 C717.96,83.652 717.998,83.901 717.998,85.296 z M719.039,83.96 C719.039,83.549 719.078,83.49 719.865,83.49 C721.275,83.49 721.898,84.591 721.898,85.751 C721.898,86.749 721.606,87.263 721.263,87.571 C720.894,87.894 720.411,87.953 719.954,87.953 C719.306,87.953 719.116,87.923 719.078,87.879 C719.039,87.821 719.039,87.659 719.039,87.395 z" fill="#000000"/>
      <path d="M717.998,90.566 C717.998,92.107 717.972,92.298 717.235,92.4 L716.918,92.444 C716.842,92.547 716.867,92.767 716.943,92.811 C717.54,92.782 717.998,92.767 718.531,92.767 C719.039,92.767 719.471,92.782 720.043,92.811 C720.119,92.767 720.145,92.518 720.068,92.444 L719.802,92.4 C719.065,92.283 719.039,92.107 719.039,90.566 L719.039,88.716 C719.039,88.408 719.065,88.393 719.637,88.393 C720.145,88.393 720.348,88.54 720.539,88.863 C720.932,89.523 721.453,90.536 721.784,91.079 C722.686,92.562 723.333,92.929 724.413,92.929 C724.655,92.929 724.858,92.899 724.972,92.855 C725.036,92.797 725.023,92.679 724.96,92.65 C724.617,92.621 724.299,92.459 724.083,92.239 C723.219,91.402 722.546,90.228 721.529,88.334 C721.466,88.217 721.402,88.07 721.466,87.982 C722.101,87.689 723.054,86.925 723.054,85.531 C723.054,84.503 722.609,83.843 722,83.476 C721.415,83.109 720.666,83.035 719.878,83.035 C718.633,83.035 717.756,83.079 717.045,83.153 C716.943,83.212 716.943,83.446 717.032,83.52 L717.439,83.579 C717.96,83.652 717.998,83.901 717.998,85.296 z M719.039,83.96 C719.039,83.549 719.078,83.49 719.865,83.49 C721.275,83.49 721.898,84.591 721.898,85.751 C721.898,86.749 721.606,87.263 721.263,87.571 C720.894,87.894 720.411,87.953 719.954,87.953 C719.306,87.953 719.116,87.923 719.078,87.879 C719.039,87.821 719.039,87.659 719.039,87.395 z" fill-opacity="0" stroke="#1A1919" stroke-width="0.375"/>
    </g>
    <g>
      <path d="M729.553,90.499 C729.553,92.055 729.527,92.261 728.778,92.364 L728.46,92.408 C728.384,92.496 728.409,92.731 728.486,92.775 C729.121,92.745 729.553,92.731 730.086,92.731 C730.595,92.731 731.026,92.745 731.662,92.775 C731.738,92.731 731.763,92.466 731.687,92.408 L731.37,92.364 C730.62,92.261 730.595,92.055 730.595,90.499 L730.595,85.274 C730.595,83.718 730.62,83.468 731.37,83.395 L731.687,83.366 C731.763,83.307 731.738,83.043 731.662,82.999 C731.026,83.028 730.595,83.043 730.086,83.043 C729.553,83.043 729.121,83.028 728.486,82.999 C728.409,83.043 728.384,83.307 728.46,83.366 L728.778,83.395 C729.527,83.468 729.553,83.718 729.553,85.274 z" fill="#000000"/>
      <path d="M729.553,90.499 C729.553,92.055 729.527,92.261 728.778,92.364 L728.46,92.408 C728.384,92.496 728.409,92.731 728.486,92.775 C729.121,92.745 729.553,92.731 730.086,92.731 C730.595,92.731 731.026,92.745 731.662,92.775 C731.738,92.731 731.763,92.466 731.687,92.408 L731.37,92.364 C730.62,92.261 730.595,92.055 730.595,90.499 L730.595,85.274 C730.595,83.718 730.62,83.468 731.37,83.395 L731.687,83.366 C731.763,83.307 731.738,83.043 731.662,82.999 C731.026,83.028 730.595,83.043 730.086,83.043 C729.553,83.043 729.121,83.028 728.486,82.999 C728.409,83.043 728.384,83.307 728.46,83.366 L728.778,83.395 C729.527,83.468 729.553,83.718 729.553,85.274 z" fill-opacity="0" stroke="#1A1919" stroke-width="0.375"/>
    </g>
    <g>
      <path d="M759.589,84.216 C759.589,83.732 759.576,83.717 759.957,83.717 L760.859,83.717 C761.558,83.717 762.041,83.835 762.333,84.084 C762.524,84.246 762.613,84.789 762.651,85.156 C762.714,85.244 762.93,85.244 762.981,85.126 C762.943,84.686 763.032,83.497 763.172,82.895 C763.146,82.837 763.006,82.822 762.943,82.851 C762.752,83.233 762.638,83.262 761.952,83.262 L756.807,83.262 C756.222,83.262 755.803,83.277 755.727,82.807 C755.689,82.763 755.524,82.778 755.485,82.807 C755.397,83.394 755.206,84.334 755.003,84.994 C755.054,85.112 755.231,85.185 755.333,85.097 C755.473,84.73 755.6,84.407 755.905,84.084 C756.222,83.747 756.921,83.717 757.467,83.717 L758.166,83.717 C758.547,83.717 758.547,83.732 758.547,84.187 L758.547,90.748 C758.547,92.289 758.484,92.51 757.76,92.583 L757.302,92.627 C757.201,92.7 757.226,92.95 757.302,92.994 C758.115,92.965 758.56,92.95 759.068,92.95 C759.576,92.95 760.008,92.965 760.732,92.994 C760.809,92.95 760.834,92.686 760.758,92.627 L760.351,92.583 C759.614,92.51 759.589,92.289 759.589,90.748 z" fill="#000000"/>
      <path d="M759.589,84.216 C759.589,83.732 759.576,83.717 759.957,83.717 L760.859,83.717 C761.558,83.717 762.041,83.835 762.333,84.084 C762.524,84.246 762.613,84.789 762.651,85.156 C762.714,85.244 762.93,85.244 762.981,85.126 C762.943,84.686 763.032,83.497 763.172,82.895 C763.146,82.837 763.006,82.822 762.943,82.851 C762.752,83.233 762.638,83.262 761.952,83.262 L756.807,83.262 C756.222,83.262 755.803,83.277 755.727,82.807 C755.689,82.763 755.524,82.778 755.485,82.807 C755.397,83.394 755.206,84.334 755.003,84.994 C755.054,85.112 755.231,85.185 755.333,85.097 C755.473,84.73 755.6,84.407 755.905,84.084 C756.222,83.747 756.921,83.717 757.467,83.717 L758.166,83.717 C758.547,83.717 758.547,83.732 758.547,84.187 L758.547,90.748 C758.547,92.289 758.484,92.51 757.76,92.583 L757.302,92.627 C757.201,92.7 757.226,92.95 757.302,92.994 C758.115,92.965 758.56,92.95 759.068,92.95 C759.576,92.95 760.008,92.965 760.732,92.994 C760.809,92.95 760.834,92.686 760.758,92.627 L760.351,92.583 C759.614,92.51 759.589,92.289 759.589,90.748 z" fill-opacity="0" stroke="#1A1919" stroke-width="0.375"/>
    </g>
    <g>
      <path d="M766.605,91.417 C766.707,91.769 766.771,92.033 766.771,92.195 C766.771,92.342 766.593,92.43 766.326,92.459 L765.957,92.503 C765.869,92.576 765.881,92.811 765.983,92.87 C766.351,92.855 766.834,92.826 767.444,92.826 C768.016,92.826 768.46,92.841 768.981,92.87 C769.045,92.811 769.07,92.576 768.981,92.503 L768.638,92.459 C768.092,92.386 767.927,92.165 767.558,90.903 L765.818,85.002 C765.627,84.357 765.424,83.681 765.259,83.035 C765.233,82.933 765.144,82.903 765.068,82.903 C764.928,83.094 764.712,83.358 764.408,83.461 C764.446,83.696 764.369,83.975 764.192,84.503 L762.896,88.467 C762.362,90.11 762.006,91.065 761.778,91.74 C761.6,92.268 761.32,92.43 761.016,92.459 L760.596,92.503 C760.52,92.576 760.545,92.811 760.622,92.87 C760.965,92.855 761.422,92.826 761.841,92.826 C762.438,92.841 762.832,92.841 763.163,92.87 C763.277,92.811 763.277,92.576 763.188,92.503 L762.769,92.459 C762.464,92.43 762.4,92.342 762.4,92.165 C762.4,92.004 762.489,91.608 762.68,90.947 L763.124,89.406 C763.213,89.098 763.29,89.054 763.607,89.054 L765.526,89.054 C765.907,89.054 765.957,89.098 766.046,89.421 z M764.331,85.56 C764.471,85.12 764.598,84.768 764.636,84.694 L764.662,84.694 C764.738,84.87 764.852,85.267 764.954,85.619 L765.64,88.011 C765.754,88.408 765.729,88.467 765.36,88.467 L763.798,88.467 C763.442,88.467 763.429,88.452 763.531,88.114 z" fill="#000000"/>
      <path d="M766.605,91.417 C766.707,91.769 766.771,92.033 766.771,92.195 C766.771,92.342 766.593,92.43 766.326,92.459 L765.957,92.503 C765.869,92.576 765.881,92.811 765.983,92.87 C766.351,92.855 766.834,92.826 767.444,92.826 C768.016,92.826 768.46,92.841 768.981,92.87 C769.045,92.811 769.07,92.576 768.981,92.503 L768.638,92.459 C768.092,92.386 767.927,92.165 767.558,90.903 L765.818,85.002 C765.627,84.357 765.424,83.681 765.259,83.035 C765.233,82.933 765.144,82.903 765.068,82.903 C764.928,83.094 764.712,83.358 764.408,83.461 C764.446,83.696 764.369,83.975 764.192,84.503 L762.896,88.467 C762.362,90.11 762.006,91.065 761.778,91.74 C761.6,92.268 761.32,92.43 761.016,92.459 L760.596,92.503 C760.52,92.576 760.545,92.811 760.622,92.87 C760.965,92.855 761.422,92.826 761.841,92.826 C762.438,92.841 762.832,92.841 763.163,92.87 C763.277,92.811 763.277,92.576 763.188,92.503 L762.769,92.459 C762.464,92.43 762.4,92.342 762.4,92.165 C762.4,92.004 762.489,91.608 762.68,90.947 L763.124,89.406 C763.213,89.098 763.29,89.054 763.607,89.054 L765.526,89.054 C765.907,89.054 765.957,89.098 766.046,89.421 z M764.331,85.56 C764.471,85.12 764.598,84.768 764.636,84.694 L764.662,84.694 C764.738,84.87 764.852,85.267 764.954,85.619 L765.64,88.011 C765.754,88.408 765.729,88.467 765.36,88.467 L763.798,88.467 C763.442,88.467 763.429,88.452 763.531,88.114 z" fill-opacity="0" stroke="#1A1919" stroke-width="0.375"/>
    </g>
    <g>
      <path d="M774.293,90.25 C774.293,88.855 773.506,88.004 772.705,87.432 L771.689,86.698 C771.219,86.36 770.609,85.744 770.609,84.892 C770.609,84.217 770.876,83.263 772.121,83.263 C773.341,83.263 773.684,84.217 773.849,84.922 C773.912,85.01 774.116,84.966 774.166,84.878 C774.166,84.261 774.052,83.439 773.938,83.087 C773.836,83.087 773.658,83.057 773.493,82.999 C773.163,82.896 772.705,82.808 772.312,82.808 C770.66,82.808 769.72,83.938 769.72,85.333 C769.72,86.536 770.457,87.373 771.092,87.857 L772.299,88.767 C773.226,89.457 773.341,90.177 773.341,90.822 C773.341,91.703 772.82,92.51 771.753,92.51 C770.279,92.51 769.758,91.072 769.567,90.323 C769.517,90.235 769.326,90.265 769.263,90.367 C769.288,91.057 769.453,92.099 769.606,92.422 C769.847,92.584 770.52,92.965 771.587,92.965 C773.239,92.965 774.293,91.865 774.293,90.25 z" fill="#000000"/>
      <path d="M774.293,90.25 C774.293,88.855 773.506,88.004 772.705,87.432 L771.689,86.698 C771.219,86.36 770.609,85.744 770.609,84.892 C770.609,84.217 770.876,83.263 772.121,83.263 C773.341,83.263 773.684,84.217 773.849,84.922 C773.912,85.01 774.116,84.966 774.166,84.878 C774.166,84.261 774.052,83.439 773.938,83.087 C773.836,83.087 773.658,83.057 773.493,82.999 C773.163,82.896 772.705,82.808 772.312,82.808 C770.66,82.808 769.72,83.938 769.72,85.333 C769.72,86.536 770.457,87.373 771.092,87.857 L772.299,88.767 C773.226,89.457 773.341,90.177 773.341,90.822 C773.341,91.703 772.82,92.51 771.753,92.51 C770.279,92.51 769.758,91.072 769.567,90.323 C769.517,90.235 769.326,90.265 769.263,90.367 C769.288,91.057 769.453,92.099 769.606,92.422 C769.847,92.584 770.52,92.965 771.587,92.965 C773.239,92.965 774.293,91.865 774.293,90.25 z" fill-opacity="0" stroke="#1A1919" stroke-width="0.375"/>
    </g>
  </g>
</svg>
